<svg width="540" height="322" viewBox="0 0 540 322" fill="none" xmlns="http://www.w3.org/2000/svg">
<g clip-path="url(#clip0_506_19764)">
<rect y="0.238281" width="540" height="321" rx="16" fill="#E9F1FF"/>
<rect x="49.5" y="23.7383" width="337" height="266" rx="7.56758" stroke="black" stroke-dasharray="5 5"/>
<g clip-path="url(#clip1_506_19764)">
<rect x="78" y="45.2383" width="405" height="331.29" rx="9.72" fill="white"/>
<mask id="path-4-inside-1_506_19764" fill="white">
<path d="M78 45.2383H483V100.158H78V45.2383Z"/>
</mask>
<path d="M483 99.3483H78V100.968H483V99.3483Z" fill="#C2C2C2" mask="url(#path-4-inside-1_506_19764)"/>
<path d="M101.207 80.1982H98.6211L103.753 65.9876H106.3L111.432 80.1982H108.808L107.661 76.9129H102.354L101.207 80.1982ZM104.706 70.2255L103.092 74.8134H106.941L105.308 70.2255C105.192 69.8562 105.056 69.4285 105.017 69.1369C104.959 69.409 104.842 69.8367 104.706 70.2255ZM119.016 70.5949H121.387V80.1982H119.191L119.016 78.9152C118.433 79.8289 117.188 80.451 115.905 80.451C113.689 80.451 112.387 78.9541 112.387 76.6018V70.5949H114.758V75.7659C114.758 77.5933 115.478 78.332 116.8 78.332C118.296 78.332 119.016 77.4572 119.016 75.6298V70.5949ZM127.103 80.1982H124.731V72.5778H122.884V70.5949H124.731V67.6011H127.103V70.5949H128.969V72.5778H127.103V80.1982ZM132.815 80.1982H130.444V65.7349H132.835V71.839C133.437 70.9059 134.565 70.3033 135.945 70.3033C138.317 70.3033 139.561 71.8002 139.561 74.2885V80.1982H137.189V74.8522C137.189 73.2387 136.392 72.4611 135.187 72.4611C133.69 72.4611 132.815 73.5109 132.815 74.9494V80.1982ZM146.187 80.451C143.33 80.451 141.327 78.3709 141.327 75.3966C141.327 72.3834 143.291 70.3033 146.11 70.3033C148.987 70.3033 150.814 72.2278 150.814 75.2216V75.9409L143.582 75.9603C143.757 77.6516 144.652 78.507 146.226 78.507C147.529 78.507 148.384 78.0015 148.656 77.0878H150.853C150.445 79.1874 148.695 80.451 146.187 80.451ZM146.129 72.2473C144.729 72.2473 143.874 73.0054 143.641 74.444H148.462C148.462 73.1221 147.548 72.2473 146.129 72.2473ZM155.084 80.1982H152.712V70.5949H154.909L155.103 71.839C155.706 70.867 156.872 70.3033 158.175 70.3033C160.585 70.3033 161.83 71.8002 161.83 74.2885V80.1982H159.458V74.8522C159.458 73.2387 158.661 72.4611 157.436 72.4611C155.978 72.4611 155.084 73.472 155.084 75.0272V80.1982ZM167.426 80.1982H165.054V72.5778H163.207V70.5949H165.054V67.6011H167.426V70.5949H169.292V72.5778H167.426V80.1982ZM171.952 68.6703C171.136 68.6703 170.494 68.0288 170.494 67.2318C170.494 66.4347 171.136 65.8126 171.952 65.8126C172.73 65.8126 173.371 66.4347 173.371 67.2318C173.371 68.0288 172.73 68.6703 171.952 68.6703ZM170.766 80.1982V70.5949H173.138V80.1982H170.766ZM175.025 75.3771C175.025 72.4028 176.988 70.3033 179.826 70.3033C182.451 70.3033 184.239 71.7613 184.492 74.0746H182.12C181.848 72.986 181.051 72.4222 179.924 72.4222C178.407 72.4222 177.396 73.5692 177.396 75.3771C177.396 77.185 178.329 78.3126 179.846 78.3126C181.032 78.3126 181.868 77.7294 182.12 76.6796H184.511C184.22 78.9152 182.354 80.451 179.846 80.451C176.93 80.451 175.025 78.4292 175.025 75.3771ZM189.134 80.451C187.093 80.451 185.849 79.2651 185.849 77.4572C185.849 75.6882 187.132 74.5801 189.406 74.4051L192.284 74.1913V73.9774C192.284 72.675 191.506 72.1501 190.301 72.1501C188.901 72.1501 188.123 72.7333 188.123 73.7442H186.102C186.102 71.6641 187.812 70.3033 190.417 70.3033C193.003 70.3033 194.597 71.703 194.597 74.3662V80.1982H192.517L192.342 78.7791C191.934 79.7706 190.631 80.451 189.134 80.451ZM189.912 78.6625C191.37 78.6625 192.303 77.7877 192.303 76.3102V75.8048L190.301 75.9603C188.823 76.0964 188.26 76.5824 188.26 77.36C188.26 78.2348 188.843 78.6625 189.912 78.6625ZM200.06 80.1982H197.688V72.5778H195.841V70.5949H197.688V67.6011H200.06V70.5949H201.926V72.5778H200.06V80.1982ZM204.586 68.6703C203.77 68.6703 203.128 68.0288 203.128 67.2318C203.128 66.4347 203.77 65.8126 204.586 65.8126C205.364 65.8126 206.006 66.4347 206.006 67.2318C206.006 68.0288 205.364 68.6703 204.586 68.6703ZM203.401 80.1982V70.5949H205.772V80.1982H203.401ZM207.659 75.3771C207.659 72.3834 209.817 70.3227 212.791 70.3227C215.765 70.3227 217.923 72.3834 217.923 75.3771C217.923 78.3709 215.765 80.4315 212.791 80.4315C209.817 80.4315 207.659 78.3709 207.659 75.3771ZM210.03 75.3771C210.03 77.1267 211.158 78.3126 212.791 78.3126C214.424 78.3126 215.551 77.1267 215.551 75.3771C215.551 73.6275 214.424 72.4417 212.791 72.4417C211.158 72.4417 210.03 73.6275 210.03 75.3771ZM222.175 80.1982H219.803V70.5949H222L222.194 71.839C222.797 70.867 223.963 70.3033 225.266 70.3033C227.676 70.3033 228.92 71.8002 228.92 74.2885V80.1982H226.549V74.8522C226.549 73.2387 225.752 72.4611 224.527 72.4611C223.069 72.4611 222.175 73.472 222.175 75.0272V80.1982ZM235.538 70.5949H236.918V69.4285C236.918 66.8235 238.298 65.7349 240.378 65.7349C240.748 65.7349 241.195 65.7543 241.603 65.8321V67.8538H240.767C239.562 67.8538 239.27 68.4759 239.27 69.4285V70.5949H241.564V72.5778H239.27V80.1982H236.918V72.5778H235.538V70.5949ZM242.229 75.3771C242.229 72.3834 244.387 70.3227 247.362 70.3227C250.336 70.3227 252.494 72.3834 252.494 75.3771C252.494 78.3709 250.336 80.4315 247.362 80.4315C244.387 80.4315 242.229 78.3709 242.229 75.3771ZM244.601 75.3771C244.601 77.1267 245.729 78.3126 247.362 78.3126C248.994 78.3126 250.122 77.1267 250.122 75.3771C250.122 73.6275 248.994 72.4417 247.362 72.4417C245.729 72.4417 244.601 73.6275 244.601 75.3771ZM260.4 70.556V72.7527H259.525C257.814 72.7527 256.745 73.6664 256.745 75.5326V80.1982H254.374V70.6143H256.609L256.745 72.014C257.154 71.0614 258.067 70.4199 259.35 70.4199C259.681 70.4199 260.011 70.4588 260.4 70.556ZM266.506 77.2822H268.761C268.781 78.1182 269.403 78.643 270.491 78.643C271.6 78.643 272.202 78.1959 272.202 77.4961C272.202 77.0101 271.949 76.6602 271.094 76.4658L269.364 76.0575C267.634 75.6687 266.798 74.8522 266.798 73.3165C266.798 71.4308 268.392 70.3033 270.608 70.3033C272.766 70.3033 274.224 71.5474 274.243 73.4137H271.988C271.969 72.5972 271.425 72.0723 270.511 72.0723C269.578 72.0723 269.033 72.5 269.033 73.2193C269.033 73.7636 269.461 74.1135 270.278 74.3079L272.008 74.7162C273.621 75.0855 274.438 75.8242 274.438 77.3017C274.438 79.2457 272.785 80.451 270.414 80.451C268.023 80.451 266.506 79.1679 266.506 77.2822ZM277.429 68.6703C276.613 68.6703 275.971 68.0288 275.971 67.2318C275.971 66.4347 276.613 65.8126 277.429 65.8126C278.207 65.8126 278.849 66.4347 278.849 67.2318C278.849 68.0288 278.207 68.6703 277.429 68.6703ZM276.244 80.1982V70.5949H278.615V80.1982H276.244ZM280.521 75.1827C280.521 72.3834 282.349 70.2838 285.09 70.2838C286.528 70.2838 287.656 70.8865 288.22 71.9168L288.356 70.5949H290.552V79.7122C290.552 82.9198 288.628 84.9222 285.517 84.9222C282.757 84.9222 280.871 83.3475 280.58 80.7814H282.951C283.107 82.0256 284.059 82.7643 285.517 82.7643C287.15 82.7643 288.2 81.734 288.2 80.1399V78.5458C287.597 79.4401 286.412 80.0038 285.031 80.0038C282.31 80.0038 280.521 77.9626 280.521 75.1827ZM282.912 75.1244C282.912 76.7379 283.943 77.9432 285.498 77.9432C287.131 77.9432 288.142 76.7962 288.142 75.1244C288.142 73.4914 287.15 72.3639 285.498 72.3639C283.923 72.3639 282.912 73.5498 282.912 75.1244ZM295.378 80.1982H293.007V70.5949H295.204L295.398 71.839C296.001 70.867 297.167 70.3033 298.469 70.3033C300.88 70.3033 302.124 71.8002 302.124 74.2885V80.1982H299.752V74.8522C299.752 73.2387 298.955 72.4611 297.731 72.4611C296.273 72.4611 295.378 73.472 295.378 75.0272V80.1982ZM305.64 68.6703C304.824 68.6703 304.182 68.0288 304.182 67.2318C304.182 66.4347 304.824 65.8126 305.64 65.8126C306.418 65.8126 307.059 66.4347 307.059 67.2318C307.059 68.0288 306.418 68.6703 305.64 68.6703ZM304.454 80.1982V70.5949H306.826V80.1982H304.454ZM311.648 80.1982H309.276V70.5949H311.473L311.668 71.839C312.27 70.867 313.437 70.3033 314.739 70.3033C317.15 70.3033 318.394 71.8002 318.394 74.2885V80.1982H316.022V74.8522C316.022 73.2387 315.225 72.4611 314 72.4611C312.542 72.4611 311.648 73.472 311.648 75.0272V80.1982ZM320.18 75.1827C320.18 72.3834 322.007 70.2838 324.748 70.2838C326.187 70.2838 327.314 70.8865 327.878 71.9168L328.014 70.5949H330.211V79.7122C330.211 82.9198 328.286 84.9222 325.176 84.9222C322.415 84.9222 320.53 83.3475 320.238 80.7814H322.61C322.765 82.0256 323.718 82.7643 325.176 82.7643C326.809 82.7643 327.858 81.734 327.858 80.1399V78.5458C327.256 79.4401 326.07 80.0038 324.69 80.0038C321.968 80.0038 320.18 77.9626 320.18 75.1827ZM322.571 75.1244C322.571 76.7379 323.601 77.9432 325.156 77.9432C326.789 77.9432 327.8 76.7962 327.8 75.1244C327.8 73.4914 326.809 72.3639 325.156 72.3639C323.582 72.3639 322.571 73.5498 322.571 75.1244Z" fill="black"/>
<path d="M392.46 72.6986C392.46 68.2355 388.823 64.5986 384.36 64.5986C379.897 64.5986 376.26 68.2355 376.26 72.6986C376.26 75.0476 377.272 77.1617 378.876 78.644C378.876 78.6521 378.876 78.6521 378.868 78.6602C378.949 78.7412 379.046 78.806 379.127 78.8789C379.176 78.9194 379.216 78.9599 379.265 78.9923C379.411 79.1138 379.573 79.2272 379.727 79.3406C379.783 79.3811 379.832 79.4135 379.889 79.454C380.042 79.5593 380.204 79.6565 380.375 79.7456C380.431 79.778 380.496 79.8185 380.553 79.8509C380.715 79.94 380.885 80.021 381.063 80.0939C381.128 80.1263 381.193 80.1587 381.257 80.183C381.436 80.2559 381.614 80.3207 381.792 80.3774C381.857 80.4017 381.922 80.426 381.986 80.4422C382.181 80.4989 382.375 80.5475 382.57 80.5961C382.626 80.6123 382.683 80.6285 382.748 80.6366C382.975 80.6852 383.201 80.7176 383.436 80.7419C383.469 80.7419 383.501 80.75 383.534 80.7581C383.809 80.7824 384.084 80.7986 384.36 80.7986C384.635 80.7986 384.911 80.7824 385.178 80.7581C385.21 80.7581 385.243 80.75 385.275 80.7419C385.51 80.7176 385.737 80.6852 385.964 80.6366C386.02 80.6285 386.077 80.6042 386.142 80.5961C386.336 80.5475 386.539 80.507 386.725 80.4422C386.79 80.4179 386.855 80.3936 386.919 80.3774C387.098 80.3126 387.284 80.2559 387.454 80.183C387.519 80.1587 387.584 80.1263 387.648 80.0939C387.818 80.021 387.989 79.94 388.159 79.8509C388.223 79.8185 388.28 79.778 388.337 79.7456C388.499 79.6484 388.661 79.5593 388.823 79.454C388.88 79.4216 388.928 79.3811 388.985 79.3406C389.147 79.2272 389.301 79.1138 389.447 78.9923C389.495 78.9518 389.536 78.9113 389.584 78.8789C389.673 78.806 389.762 78.7331 389.843 78.6602C389.843 78.6521 389.843 78.6521 389.835 78.644C391.447 77.1617 392.46 75.0476 392.46 72.6986ZM388.361 76.7243C386.166 75.2501 382.57 75.2501 380.358 76.7243C380.002 76.9592 379.71 77.2346 379.467 77.5343C378.236 76.2869 377.475 74.5778 377.475 72.6986C377.475 68.8997 380.561 65.8136 384.36 65.8136C388.159 65.8136 391.245 68.8997 391.245 72.6986C391.245 74.5778 390.483 76.2869 389.252 77.5343C389.017 77.2346 388.718 76.9592 388.361 76.7243Z" fill="#1777F7"/>
<path d="M384.36 68.5918C382.683 68.5918 381.322 69.9526 381.322 71.6293C381.322 73.2736 382.61 74.6101 384.319 74.6587C384.344 74.6587 384.376 74.6587 384.392 74.6587C384.408 74.6587 384.433 74.6587 384.449 74.6587C384.457 74.6587 384.465 74.6587 384.465 74.6587C386.101 74.602 387.389 73.2736 387.397 71.6293C387.397 69.9526 386.036 68.5918 384.36 68.5918Z" fill="#1777F7"/>
<path d="M403.398 68.7489V76.9785H404.616V67.6084H401.428V68.7489H403.398ZM411.598 76.9785V73.272H413.995L415.745 76.9785H417.158L415.252 73.0257C416.419 72.6499 417.067 71.7168 417.067 70.4208C417.067 68.6712 415.874 67.6084 413.866 67.6084H410.328V76.9785H411.598ZM411.598 68.7489H413.866C415.032 68.7489 415.732 69.3451 415.732 70.4337C415.732 71.5094 415.058 72.1444 413.879 72.1444H411.598V68.7489ZM420.879 77.134C422.447 77.134 423.51 76.3694 423.821 75.0086H422.68C422.473 75.7344 421.851 76.1232 420.905 76.1232C419.699 76.1232 419 75.3844 418.909 74.0496L423.808 74.0366V73.583C423.808 71.7038 422.628 70.4596 420.827 70.4596C418.987 70.4596 417.73 71.8334 417.73 73.8163C417.73 75.7862 419.013 77.134 420.879 77.134ZM420.827 71.4835C421.903 71.4835 422.59 72.1833 422.59 73.2331H418.935C419.09 72.1185 419.764 71.4835 420.827 71.4835ZM424.754 73.8163C424.754 75.8121 425.985 77.134 427.851 77.134C429.381 77.134 430.56 76.2139 430.806 74.8401H429.588C429.368 75.5918 428.72 76.0454 427.851 76.0454C426.698 76.0454 425.959 75.1641 425.959 73.8033C425.959 72.4296 426.75 71.5483 427.903 71.5483C428.72 71.5483 429.368 71.976 429.575 72.7795H430.793C430.573 71.3668 429.458 70.4596 427.864 70.4596C426.011 70.4596 424.754 71.8334 424.754 73.8163ZM432.688 69.1377C433.128 69.1377 433.491 68.7748 433.491 68.3342C433.491 67.8806 433.128 67.5307 432.688 67.5307C432.247 67.5307 431.884 67.8806 431.884 68.3342C431.884 68.7748 432.247 69.1377 432.688 69.1377ZM432.091 76.9785H433.31V70.6411H432.091V76.9785ZM435.078 79.8168H436.297V75.9417C436.711 76.7193 437.554 77.147 438.565 77.147C440.444 77.147 441.507 75.6955 441.507 73.7644C441.507 71.8204 440.379 70.4596 438.565 70.4596C437.554 70.4596 436.698 70.9132 436.271 71.7816L436.18 70.6411H435.078V79.8168ZM436.31 73.8163C436.31 72.4944 437.061 71.5742 438.305 71.5742C439.55 71.5742 440.288 72.5073 440.288 73.8163C440.288 75.1123 439.55 76.0454 438.305 76.0454C437.061 76.0454 436.31 75.1123 436.31 73.8163ZM443.445 69.1377C443.886 69.1377 444.249 68.7748 444.249 68.3342C444.249 67.8806 443.886 67.5307 443.445 67.5307C443.005 67.5307 442.642 67.8806 442.642 68.3342C442.642 68.7748 443.005 69.1377 443.445 69.1377ZM442.849 76.9785H444.068V70.6411H442.849V76.9785ZM448.571 77.134C450.139 77.134 451.202 76.3694 451.513 75.0086H450.372C450.165 75.7344 449.543 76.1232 448.597 76.1232C447.391 76.1232 446.692 75.3844 446.601 74.0496L451.5 74.0366V73.583C451.5 71.7038 450.32 70.4596 448.519 70.4596C446.679 70.4596 445.421 71.8334 445.421 73.8163C445.421 75.7862 446.704 77.134 448.571 77.134ZM448.519 71.4835C449.595 71.4835 450.281 72.1833 450.281 73.2331H446.627C446.782 72.1185 447.456 71.4835 448.519 71.4835ZM454.079 76.9785V73.6219C454.079 72.3907 454.74 71.5742 455.88 71.5742C456.813 71.5742 457.409 72.0926 457.409 73.3756V76.9785H458.628V73.1035C458.628 71.4835 457.863 70.4596 456.191 70.4596C455.297 70.4596 454.493 70.8873 454.092 71.6131L453.962 70.6411H452.86V76.9785H454.079ZM462.103 76.9785V71.6649H463.348V70.6411H462.103V68.6582H460.885V70.6411H459.641V71.6649H460.885V76.9785H462.103Z" fill="black"/>
<path d="M97.4162 132.948L98.2457 130.615H102.186L103.028 132.948H104.363L100.928 123.578H99.5158L96.0943 132.948H97.4162ZM100.06 125.6C100.125 125.406 100.19 125.185 100.216 125.056C100.242 125.198 100.306 125.418 100.371 125.6L101.81 129.514H98.6345L100.06 125.6ZM109.604 126.611V129.954C109.604 131.315 108.995 132.028 107.881 132.028C106.948 132.028 106.364 131.51 106.364 130.149V126.611H105.146V130.551C105.146 132.106 105.976 133.104 107.453 133.104C108.386 133.104 109.228 132.65 109.591 131.989L109.721 132.948H110.81V126.611H109.604ZM114.366 132.948V127.635H115.61V126.611H114.366V124.628H113.147V126.611H111.903V127.635H113.147V132.948H114.366ZM117.921 132.935V129.488C117.921 128.399 118.556 127.544 119.736 127.544C120.643 127.544 121.252 128.062 121.252 129.345V132.948H122.47V129.073C122.47 127.453 121.693 126.429 120.073 126.429C119.088 126.429 118.323 126.896 117.921 127.583V123.41H116.703V132.935H117.921ZM126.892 133.104C128.46 133.104 129.523 132.339 129.834 130.978H128.694C128.486 131.704 127.864 132.093 126.918 132.093C125.713 132.093 125.013 131.354 124.922 130.019L129.821 130.006V129.553C129.821 127.674 128.642 126.429 126.84 126.429C125 126.429 123.743 127.803 123.743 129.786C123.743 131.756 125.026 133.104 126.892 133.104ZM126.84 127.453C127.916 127.453 128.603 128.153 128.603 129.203H124.948C125.104 128.088 125.778 127.453 126.84 127.453ZM132.4 132.948V129.592C132.4 128.36 133.061 127.544 134.201 127.544C135.135 127.544 135.731 128.062 135.731 129.345V132.948H136.949V129.073C136.949 127.453 136.184 126.429 134.513 126.429C133.618 126.429 132.815 126.857 132.413 127.583L132.283 126.611H131.182V132.948H132.4ZM140.425 132.948V127.635H141.669V126.611H140.425V124.628H139.207V126.611H137.962V127.635H139.207V132.948H140.425ZM143.358 125.107C143.799 125.107 144.162 124.745 144.162 124.304C144.162 123.85 143.799 123.5 143.358 123.5C142.918 123.5 142.555 123.85 142.555 124.304C142.555 124.745 142.918 125.107 143.358 125.107ZM142.762 132.948H143.981V126.611H142.762V132.948ZM145.334 129.786C145.334 131.782 146.566 133.104 148.432 133.104C149.961 133.104 151.14 132.184 151.387 130.81H150.168C149.948 131.562 149.3 132.015 148.432 132.015C147.278 132.015 146.54 131.134 146.54 129.773C146.54 128.399 147.33 127.518 148.484 127.518C149.3 127.518 149.948 127.946 150.156 128.749H151.374C151.153 127.337 150.039 126.429 148.445 126.429C146.592 126.429 145.334 127.803 145.334 129.786ZM154.525 133.104C155.549 133.104 156.418 132.65 156.742 131.924L156.871 132.948H157.908V128.97C157.908 127.259 156.845 126.429 155.277 126.429C153.644 126.429 152.555 127.298 152.555 128.62H153.618C153.618 127.855 154.201 127.401 155.225 127.401C156.081 127.401 156.716 127.777 156.716 128.84V129.021L154.72 129.177C153.229 129.294 152.361 130.019 152.361 131.186C152.361 132.339 153.165 133.104 154.525 133.104ZM154.875 132.158C154.085 132.158 153.592 131.821 153.592 131.147C153.592 130.525 154.033 130.11 155.109 130.006L156.729 129.877V130.214C156.729 131.406 156.029 132.158 154.875 132.158ZM161.282 132.948V127.635H162.526V126.611H161.282V124.628H160.064V126.611H158.82V127.635H160.064V132.948H161.282ZM164.216 125.107C164.657 125.107 165.019 124.745 165.019 124.304C165.019 123.85 164.657 123.5 164.216 123.5C163.775 123.5 163.412 123.85 163.412 124.304C163.412 124.745 163.775 125.107 164.216 125.107ZM163.62 132.948H164.838V126.611H163.62V132.948ZM166.192 129.773C166.192 131.73 167.592 133.104 169.497 133.104C171.389 133.104 172.789 131.73 172.789 129.773C172.789 127.816 171.389 126.442 169.497 126.442C167.592 126.442 166.192 127.816 166.192 129.773ZM167.423 129.773C167.423 128.451 168.266 127.531 169.497 127.531C170.715 127.531 171.57 128.451 171.57 129.773C171.57 131.095 170.715 132.015 169.497 132.015C168.266 132.015 167.423 131.095 167.423 129.773ZM175.355 132.948V129.592C175.355 128.36 176.016 127.544 177.157 127.544C178.09 127.544 178.686 128.062 178.686 129.345V132.948H179.904V129.073C179.904 127.453 179.14 126.429 177.468 126.429C176.574 126.429 175.77 126.857 175.368 127.583L175.239 126.611H174.137V132.948H175.355ZM186.924 132.948V127.635H188.168V126.611H186.924V124.628H185.706V126.611H184.461V127.635H185.706V132.948H186.924ZM188.652 135.786C188.976 135.864 189.313 135.916 189.715 135.916C190.687 135.916 191.322 135.462 191.75 134.374L194.743 126.611H193.486L191.607 131.717L189.767 126.611H188.484L191.037 133.285L190.817 133.894C190.518 134.698 190.052 134.789 189.469 134.789H188.652V135.786ZM195.716 135.786H196.934V131.911C197.349 132.689 198.191 133.117 199.202 133.117C201.081 133.117 202.144 131.665 202.144 129.734C202.144 127.79 201.017 126.429 199.202 126.429C198.191 126.429 197.336 126.883 196.908 127.751L196.818 126.611H195.716V135.786ZM196.947 129.786C196.947 128.464 197.699 127.544 198.943 127.544C200.187 127.544 200.926 128.477 200.926 129.786C200.926 131.082 200.187 132.015 198.943 132.015C197.699 132.015 196.947 131.082 196.947 129.786ZM206.222 133.104C207.79 133.104 208.852 132.339 209.163 130.978H208.023C207.816 131.704 207.194 132.093 206.247 132.093C205.042 132.093 204.342 131.354 204.252 130.019L209.15 130.006V129.553C209.15 127.674 207.971 126.429 206.17 126.429C204.329 126.429 203.072 127.803 203.072 129.786C203.072 131.756 204.355 133.104 206.222 133.104ZM206.17 127.453C207.245 127.453 207.932 128.153 207.932 129.203H204.278C204.433 128.088 205.107 127.453 206.17 127.453Z" fill="#878787"/>
<rect x="97.0349" y="145.273" width="366.12" height="35.63" rx="6.075" stroke="#1777F7" stroke-width="0.81"/>
<path d="M114.396 157.688H111.264C110.896 157.688 110.378 157.904 110.119 158.164L107.905 160.378C107.646 160.637 107.43 161.155 107.43 161.522V164.654C107.43 165.022 107.646 165.54 107.905 165.799L110.119 168.013C110.378 168.272 110.896 168.488 111.264 168.488H114.396C114.763 168.488 115.281 168.272 115.54 168.013L117.754 165.799C118.014 165.54 118.23 165.022 118.23 164.654V161.522C118.23 161.155 118.014 160.637 117.754 160.378L115.54 158.164C115.281 157.904 114.763 157.688 114.396 157.688Z" stroke="#292D32" stroke-width="1.215" stroke-linecap="round" stroke-linejoin="round"/>
<path d="M109.017 166.911L116.652 159.276" stroke="#292D32" stroke-width="1.215" stroke-linecap="round" stroke-linejoin="round"/>
<path d="M128.661 167.588V161.249L132.857 167.588H133.968V159.39H132.857V165.729L128.661 159.39H127.55V167.588H128.661ZM135.333 164.81C135.333 166.522 136.558 167.724 138.225 167.724C139.881 167.724 141.105 166.522 141.105 164.81C141.105 163.098 139.881 161.896 138.225 161.896C136.558 161.896 135.333 163.098 135.333 164.81ZM136.411 164.81C136.411 163.653 137.148 162.848 138.225 162.848C139.291 162.848 140.039 163.653 140.039 164.81C140.039 165.967 139.291 166.772 138.225 166.772C137.148 166.772 136.411 165.967 136.411 164.81ZM145.908 167.588L146.633 165.547H150.081L150.818 167.588H151.986L148.981 159.39H147.745L144.751 167.588H145.908ZM148.221 161.159C148.278 160.988 148.334 160.796 148.357 160.682C148.38 160.807 148.437 161 148.493 161.159L149.752 164.583H146.974L148.221 161.159ZM156.572 162.043V164.969C156.572 166.16 156.039 166.783 155.064 166.783C154.248 166.783 153.737 166.33 153.737 165.139V162.043H152.671V165.49C152.671 166.851 153.397 167.724 154.69 167.724C155.506 167.724 156.243 167.328 156.561 166.749L156.674 167.588H157.627V162.043H156.572ZM160.738 167.588V162.939H161.827V162.043H160.738V160.308H159.672V162.043H158.584V162.939H159.672V167.588H160.738ZM163.85 167.577V164.561C163.85 163.608 164.405 162.86 165.437 162.86C166.231 162.86 166.764 163.313 166.764 164.436V167.588H167.83V164.198C167.83 162.78 167.15 161.884 165.732 161.884C164.87 161.884 164.201 162.293 163.85 162.894V159.242H162.784V167.577H163.85ZM171.699 167.724C173.071 167.724 174.001 167.055 174.273 165.865H173.275C173.094 166.5 172.55 166.84 171.722 166.84C170.667 166.84 170.055 166.194 169.975 165.026L174.262 165.014V164.617C174.262 162.973 173.23 161.884 171.654 161.884C170.043 161.884 168.943 163.086 168.943 164.821C168.943 166.545 170.066 167.724 171.699 167.724ZM171.654 162.78C172.595 162.78 173.196 163.393 173.196 164.311H169.998C170.134 163.336 170.724 162.78 171.654 162.78ZM176.519 167.588V164.651C176.519 163.574 177.097 162.86 178.095 162.86C178.911 162.86 179.433 163.313 179.433 164.436V167.588H180.499V164.198C180.499 162.78 179.83 161.884 178.367 161.884C177.584 161.884 176.881 162.259 176.53 162.894L176.416 162.043H175.453V167.588H176.519ZM183.54 167.588V162.939H184.629V162.043H183.54V160.308H182.474V162.043H181.386V162.939H182.474V167.588H183.54ZM186.107 160.728C186.493 160.728 186.81 160.41 186.81 160.025C186.81 159.628 186.493 159.322 186.107 159.322C185.722 159.322 185.404 159.628 185.404 160.025C185.404 160.41 185.722 160.728 186.107 160.728ZM185.585 167.588H186.651V162.043H185.585V167.588ZM187.836 164.821C187.836 166.568 188.913 167.724 190.546 167.724C191.884 167.724 192.916 166.919 193.132 165.717H192.066C191.873 166.375 191.306 166.772 190.546 166.772C189.537 166.772 188.891 166.001 188.891 164.81C188.891 163.608 189.582 162.837 190.592 162.837C191.306 162.837 191.873 163.211 192.055 163.914H193.121C192.928 162.678 191.953 161.884 190.558 161.884C188.936 161.884 187.836 163.086 187.836 164.821ZM195.878 167.724C196.774 167.724 197.534 167.328 197.817 166.693L197.931 167.588H198.838V164.107C198.838 162.61 197.908 161.884 196.536 161.884C195.107 161.884 194.155 162.644 194.155 163.801H195.084C195.084 163.132 195.595 162.735 196.491 162.735C197.239 162.735 197.795 163.064 197.795 163.994V164.152L196.048 164.288C194.744 164.39 193.984 165.026 193.984 166.046C193.984 167.055 194.687 167.724 195.878 167.724ZM196.184 166.897C195.493 166.897 195.062 166.602 195.062 166.012C195.062 165.468 195.447 165.105 196.388 165.014L197.806 164.901V165.196C197.806 166.239 197.194 166.897 196.184 166.897ZM201.791 167.588V162.939H202.879V162.043H201.791V160.308H200.725V162.043H199.636V162.939H200.725V167.588H201.791ZM204.357 160.728C204.743 160.728 205.06 160.41 205.06 160.025C205.06 159.628 204.743 159.322 204.357 159.322C203.972 159.322 203.654 159.628 203.654 160.025C203.654 160.41 203.972 160.728 204.357 160.728ZM203.836 167.588H204.902V162.043H203.836V167.588ZM206.086 164.81C206.086 166.522 207.311 167.724 208.978 167.724C210.634 167.724 211.858 166.522 211.858 164.81C211.858 163.098 210.634 161.896 208.978 161.896C207.311 161.896 206.086 163.098 206.086 164.81ZM207.164 164.81C207.164 163.653 207.901 162.848 208.978 162.848C210.044 162.848 210.793 163.653 210.793 164.81C210.793 165.967 210.044 166.772 208.978 166.772C207.901 166.772 207.164 165.967 207.164 164.81ZM214.104 167.588V164.651C214.104 163.574 214.683 162.86 215.681 162.86C216.497 162.86 217.019 163.313 217.019 164.436V167.588H218.085V164.198C218.085 162.78 217.416 161.884 215.953 161.884C215.17 161.884 214.467 162.259 214.116 162.894L214.002 162.043H213.038V167.588H214.104Z" fill="black"/>
<path d="M451.637 161.441L448.116 164.962C447.7 165.378 447.02 165.378 446.604 164.962L443.083 161.441" stroke="#292D32" stroke-width="1.215" stroke-miterlimit="10" stroke-linecap="round" stroke-linejoin="round"/>
<g filter="url(#filter0_d_506_19764)">
<rect x="96.6299" y="187.798" width="366.93" height="116.6" rx="9.72" fill="white" shape-rendering="crispEdges"/>
<path d="M114.396 200.619H111.264C110.896 200.619 110.378 200.835 110.119 201.094L107.905 203.308C107.646 203.567 107.43 204.085 107.43 204.453V207.585C107.43 207.952 107.646 208.47 107.905 208.729L110.119 210.943C110.378 211.203 110.896 211.419 111.264 211.419H114.396C114.763 211.419 115.281 211.203 115.54 210.943L117.754 208.729C118.014 208.47 118.23 207.952 118.23 207.585V204.453C118.23 204.085 118.014 203.567 117.754 203.308L115.54 201.094C115.281 200.835 114.763 200.619 114.396 200.619Z" stroke="#1777F7" stroke-width="1.215" stroke-linecap="round" stroke-linejoin="round"/>
<path d="M109.017 209.842L116.652 202.206" stroke="#1777F7" stroke-width="1.215" stroke-linecap="round" stroke-linejoin="round"/>
<path d="M128.661 210.519V204.179L132.857 210.519H133.968V202.32H132.857V208.659L128.661 202.32H127.55V210.519H128.661ZM135.333 207.74C135.333 209.453 136.558 210.655 138.225 210.655C139.881 210.655 141.105 209.453 141.105 207.74C141.105 206.028 139.881 204.826 138.225 204.826C136.558 204.826 135.333 206.028 135.333 207.74ZM136.411 207.74C136.411 206.584 137.148 205.778 138.225 205.778C139.291 205.778 140.039 206.584 140.039 207.74C140.039 208.897 139.291 209.702 138.225 209.702C137.148 209.702 136.411 208.897 136.411 207.74ZM145.908 210.519L146.633 208.477H150.081L150.818 210.519H151.986L148.981 202.32H147.745L144.751 210.519H145.908ZM148.221 204.089C148.278 203.919 148.334 203.726 148.357 203.612C148.38 203.737 148.437 203.93 148.493 204.089L149.752 207.513H146.974L148.221 204.089ZM156.572 204.973V207.899C156.572 209.09 156.039 209.713 155.064 209.713C154.248 209.713 153.737 209.26 153.737 208.069V204.973H152.671V208.421C152.671 209.781 153.397 210.655 154.69 210.655C155.506 210.655 156.243 210.258 156.561 209.679L156.674 210.519H157.627V204.973H156.572ZM160.738 210.519V205.869H161.827V204.973H160.738V203.238H159.672V204.973H158.584V205.869H159.672V210.519H160.738ZM163.85 210.507V207.491C163.85 206.538 164.405 205.79 165.437 205.79C166.231 205.79 166.764 206.243 166.764 207.366V210.519H167.83V207.128C167.83 205.71 167.15 204.815 165.732 204.815C164.87 204.815 164.201 205.223 163.85 205.824V202.172H162.784V210.507H163.85ZM171.699 210.655C173.071 210.655 174.001 209.986 174.273 208.795H173.275C173.094 209.43 172.55 209.77 171.722 209.77C170.667 209.77 170.055 209.124 169.975 207.956L174.262 207.944V207.547C174.262 205.903 173.23 204.815 171.654 204.815C170.043 204.815 168.943 206.017 168.943 207.752C168.943 209.475 170.066 210.655 171.699 210.655ZM171.654 205.71C172.595 205.71 173.196 206.323 173.196 207.241H169.998C170.134 206.266 170.724 205.71 171.654 205.71ZM176.519 210.519V207.581C176.519 206.504 177.097 205.79 178.095 205.79C178.911 205.79 179.433 206.243 179.433 207.366V210.519H180.499V207.128C180.499 205.71 179.83 204.815 178.367 204.815C177.584 204.815 176.881 205.189 176.53 205.824L176.416 204.973H175.453V210.519H176.519ZM183.54 210.519V205.869H184.629V204.973H183.54V203.238H182.474V204.973H181.386V205.869H182.474V210.519H183.54ZM186.107 203.658C186.493 203.658 186.81 203.34 186.81 202.955C186.81 202.558 186.493 202.252 186.107 202.252C185.722 202.252 185.404 202.558 185.404 202.955C185.404 203.34 185.722 203.658 186.107 203.658ZM185.585 210.519H186.651V204.973H185.585V210.519ZM187.836 207.752C187.836 209.498 188.913 210.655 190.546 210.655C191.884 210.655 192.916 209.849 193.132 208.647H192.066C191.873 209.305 191.306 209.702 190.546 209.702C189.537 209.702 188.891 208.931 188.891 207.74C188.891 206.538 189.582 205.767 190.592 205.767C191.306 205.767 191.873 206.141 192.055 206.844H193.121C192.928 205.608 191.953 204.815 190.558 204.815C188.936 204.815 187.836 206.017 187.836 207.752ZM195.878 210.655C196.774 210.655 197.534 210.258 197.817 209.623L197.931 210.519H198.838V207.037C198.838 205.54 197.908 204.815 196.536 204.815C195.107 204.815 194.155 205.574 194.155 206.731H195.084C195.084 206.062 195.595 205.665 196.491 205.665C197.239 205.665 197.795 205.994 197.795 206.924V207.083L196.048 207.219C194.744 207.321 193.984 207.956 193.984 208.976C193.984 209.986 194.687 210.655 195.878 210.655ZM196.184 209.827C195.493 209.827 195.062 209.532 195.062 208.942C195.062 208.398 195.447 208.035 196.388 207.944L197.806 207.831V208.126C197.806 209.169 197.194 209.827 196.184 209.827ZM201.791 210.519V205.869H202.879V204.973H201.791V203.238H200.725V204.973H199.636V205.869H200.725V210.519H201.791ZM204.357 203.658C204.743 203.658 205.06 203.34 205.06 202.955C205.06 202.558 204.743 202.252 204.357 202.252C203.972 202.252 203.654 202.558 203.654 202.955C203.654 203.34 203.972 203.658 204.357 203.658ZM203.836 210.519H204.902V204.973H203.836V210.519ZM206.086 207.74C206.086 209.453 207.311 210.655 208.978 210.655C210.634 210.655 211.858 209.453 211.858 207.74C211.858 206.028 210.634 204.826 208.978 204.826C207.311 204.826 206.086 206.028 206.086 207.74ZM207.164 207.74C207.164 206.584 207.901 205.778 208.978 205.778C210.044 205.778 210.793 206.584 210.793 207.74C210.793 208.897 210.044 209.702 208.978 209.702C207.901 209.702 207.164 208.897 207.164 207.74ZM214.104 210.519V207.581C214.104 206.504 214.683 205.79 215.681 205.79C216.497 205.79 217.019 206.243 217.019 207.366V210.519H218.085V207.128C218.085 205.71 217.416 204.815 215.953 204.815C215.17 204.815 214.467 205.189 214.116 205.824L214.002 204.973H213.038V210.519H214.104Z" fill="#1777F7"/>
<path d="M443.04 203.998L446.28 207.238L451.68 200.758" stroke="#1777F7" stroke-width="1.62" stroke-linecap="round" stroke-linejoin="round"/>
<path d="M109.59 231.658V230.578C109.59 228.791 110.13 227.338 112.83 227.338C115.53 227.338 116.07 228.791 116.07 230.578V231.658" stroke="#292D32" stroke-width="1.215" stroke-linecap="round" stroke-linejoin="round"/>
<path d="M115.53 238.138H110.13C107.97 238.138 107.43 237.598 107.43 235.438V234.358C107.43 232.198 107.97 231.658 110.13 231.658H115.53C117.69 231.658 118.23 232.198 118.23 234.358V235.438C118.23 237.598 117.69 238.138 115.53 238.138Z" stroke="#292D32" stroke-width="1.215" stroke-linecap="round" stroke-linejoin="round"/>
<path d="M114.988 234.898H114.993" stroke="#292D32" stroke-width="1.62" stroke-linecap="round" stroke-linejoin="round"/>
<path d="M112.827 234.898H112.831" stroke="#292D32" stroke-width="1.62" stroke-linecap="round" stroke-linejoin="round"/>
<path d="M110.666 234.898H110.671" stroke="#292D32" stroke-width="1.62" stroke-linecap="round" stroke-linejoin="round"/>
<path d="M130.158 234.313C131.757 234.313 132.801 233.201 132.801 231.67C132.801 230.094 131.769 229.039 130.158 229.039H126.972V237.238H128.083V234.313H130.158ZM129.966 230.037C131.009 230.037 131.632 230.627 131.632 231.659C131.632 232.668 131.02 233.315 129.92 233.315H128.083V230.037H129.966ZM135.278 237.374C136.174 237.374 136.934 236.977 137.217 236.342L137.33 237.238H138.238V233.757C138.238 232.26 137.308 231.534 135.936 231.534C134.507 231.534 133.554 232.294 133.554 233.451H134.484C134.484 232.782 134.994 232.385 135.89 232.385C136.639 232.385 137.194 232.714 137.194 233.644V233.802L135.448 233.938C134.144 234.04 133.384 234.675 133.384 235.696C133.384 236.705 134.087 237.374 135.278 237.374ZM135.584 236.547C134.892 236.547 134.461 236.252 134.461 235.662C134.461 235.118 134.847 234.755 135.788 234.664L137.206 234.551V234.846C137.206 235.889 136.593 236.547 135.584 236.547ZM139.26 235.628C139.26 236.683 140.088 237.374 141.392 237.374C142.708 237.374 143.615 236.705 143.615 235.651C143.615 234.823 143.15 234.392 142.209 234.165L141.233 233.927C140.689 233.791 140.417 233.541 140.417 233.167C140.417 232.657 140.791 232.362 141.46 232.362C142.107 232.362 142.481 232.714 142.504 233.269H143.524C143.501 232.215 142.708 231.534 141.494 231.534C140.27 231.534 139.408 232.181 139.408 233.201C139.408 234.018 139.873 234.505 140.859 234.743L141.834 234.97C142.413 235.118 142.594 235.345 142.594 235.719C142.594 236.229 142.163 236.535 141.415 236.535C140.712 236.535 140.281 236.195 140.281 235.628H139.26ZM144.343 235.628C144.343 236.683 145.171 237.374 146.475 237.374C147.791 237.374 148.698 236.705 148.698 235.651C148.698 234.823 148.233 234.392 147.292 234.165L146.317 233.927C145.772 233.791 145.5 233.541 145.5 233.167C145.5 232.657 145.874 232.362 146.543 232.362C147.19 232.362 147.564 232.714 147.587 233.269H148.607C148.585 232.215 147.791 231.534 146.577 231.534C145.353 231.534 144.491 232.181 144.491 233.201C144.491 234.018 144.956 234.505 145.942 234.743L146.918 234.97C147.496 235.118 147.677 235.345 147.677 235.719C147.677 236.229 147.246 236.535 146.498 236.535C145.795 236.535 145.364 236.195 145.364 235.628H144.343ZM150.938 237.238H151.992L152.956 234.279C153.16 233.609 153.263 233.247 153.319 232.974C153.376 233.281 153.489 233.712 153.671 234.267L154.635 237.238H155.644L157.538 231.693H156.426L155.497 234.573C155.338 235.061 155.236 235.447 155.145 235.889C155.054 235.492 154.873 234.846 154.782 234.573L153.864 231.693H152.775L151.845 234.573C151.72 234.936 151.573 235.401 151.482 235.889C151.38 235.401 151.267 234.982 151.142 234.573L150.223 231.693H149.123L150.938 237.238ZM157.834 234.46C157.834 236.172 159.059 237.374 160.726 237.374C162.381 237.374 163.606 236.172 163.606 234.46C163.606 232.748 162.381 231.546 160.726 231.546C159.059 231.546 157.834 232.748 157.834 234.46ZM158.911 234.46C158.911 233.303 159.648 232.498 160.726 232.498C161.792 232.498 162.54 233.303 162.54 234.46C162.54 235.617 161.792 236.422 160.726 236.422C159.648 236.422 158.911 235.617 158.911 234.46ZM167.961 231.648C167.746 231.602 167.587 231.58 167.394 231.58C166.634 231.58 166.079 231.965 165.852 232.544L165.784 231.704H164.786V237.238H165.852V234.301C165.852 233.235 166.476 232.623 167.485 232.623H167.961V231.648ZM170.984 237.374C171.869 237.374 172.617 236.989 172.98 236.229L173.071 237.238H174.023V228.892H172.969V232.589C172.595 231.908 171.88 231.534 171.03 231.534C169.385 231.534 168.399 232.782 168.399 234.483C168.399 236.172 169.374 237.374 170.984 237.374ZM171.2 236.41C170.111 236.41 169.476 235.594 169.476 234.449C169.476 233.315 170.111 232.498 171.2 232.498C172.288 232.498 172.957 233.315 172.957 234.449C172.957 235.605 172.288 236.41 171.2 236.41Z" fill="black"/>
<path d="M110.94 263.239H110.67C108.51 263.239 107.43 262.699 107.43 259.999V257.299C107.43 255.139 108.51 254.059 110.67 254.059H114.99C117.15 254.059 118.23 255.139 118.23 257.299V259.999C118.23 262.159 117.15 263.239 114.99 263.239H114.72C114.552 263.239 114.39 263.32 114.288 263.455L113.478 264.535C113.121 265.01 112.538 265.01 112.182 264.535L111.372 263.455C111.285 263.336 111.085 263.239 110.94 263.239Z" stroke="#292D32" stroke-width="1.215" stroke-miterlimit="10" stroke-linecap="round" stroke-linejoin="round"/>
<path d="M114.988 258.918H114.993" stroke="#292D32" stroke-width="1.62" stroke-linecap="round" stroke-linejoin="round"/>
<path d="M112.827 258.918H112.831" stroke="#292D32" stroke-width="1.62" stroke-linecap="round" stroke-linejoin="round"/>
<path d="M110.666 258.918H110.671" stroke="#292D32" stroke-width="1.62" stroke-linecap="round" stroke-linejoin="round"/>
<path d="M126.089 256.78H128.561V263.958H129.673V256.78H132.134V255.76H126.089V256.78ZM134.565 264.095C135.937 264.095 136.867 263.426 137.139 262.235H136.141C135.96 262.87 135.416 263.21 134.588 263.21C133.533 263.21 132.921 262.564 132.841 261.396L137.128 261.384V260.987C137.128 259.343 136.096 258.254 134.52 258.254C132.909 258.254 131.809 259.457 131.809 261.192C131.809 262.915 132.932 264.095 134.565 264.095ZM134.52 259.15C135.461 259.15 136.062 259.763 136.062 260.681H132.864C133 259.706 133.59 259.15 134.52 259.15ZM138.675 263.958L140.036 261.929L141.419 263.958H142.655L140.762 261.214L142.689 258.413H141.476L140.104 260.477L138.698 258.413H137.462L139.39 261.214L137.45 263.958H138.675ZM145.365 263.958V259.309H146.454V258.413H145.365V256.678H144.299V258.413H143.211V259.309H144.299V263.958H145.365ZM151.781 263.958V260.454C151.781 259.309 151.759 258.47 151.702 258.073L154.083 263.958H155.127L157.519 258.05C157.463 258.629 157.451 259.184 157.451 260.715V263.958H158.54V255.76H157.429L154.605 262.654L151.781 255.76H150.693V263.958H151.781ZM162.66 264.095C164.033 264.095 164.962 263.426 165.235 262.235H164.237C164.055 262.87 163.511 263.21 162.683 263.21C161.628 263.21 161.016 262.564 160.937 261.396L165.223 261.384V260.987C165.223 259.343 164.191 258.254 162.615 258.254C161.005 258.254 159.905 259.457 159.905 261.192C159.905 262.915 161.027 264.095 162.66 264.095ZM162.615 259.15C163.556 259.15 164.157 259.763 164.157 260.681H160.959C161.095 259.706 161.685 259.15 162.615 259.15ZM165.96 262.348C165.96 263.403 166.788 264.095 168.092 264.095C169.408 264.095 170.315 263.426 170.315 262.371C170.315 261.543 169.85 261.112 168.909 260.885L167.933 260.647C167.389 260.511 167.117 260.262 167.117 259.887C167.117 259.377 167.491 259.082 168.16 259.082C168.807 259.082 169.181 259.434 169.203 259.989H170.224C170.201 258.935 169.408 258.254 168.194 258.254C166.969 258.254 166.108 258.901 166.108 259.921C166.108 260.738 166.573 261.226 167.559 261.464L168.534 261.69C169.113 261.838 169.294 262.065 169.294 262.439C169.294 262.949 168.863 263.255 168.115 263.255C167.412 263.255 166.981 262.915 166.981 262.348H165.96ZM171.043 262.348C171.043 263.403 171.871 264.095 173.175 264.095C174.491 264.095 175.398 263.426 175.398 262.371C175.398 261.543 174.933 261.112 173.992 260.885L173.016 260.647C172.472 260.511 172.2 260.262 172.2 259.887C172.2 259.377 172.574 259.082 173.243 259.082C173.89 259.082 174.264 259.434 174.287 259.989H175.307C175.284 258.935 174.491 258.254 173.277 258.254C172.053 258.254 171.191 258.901 171.191 259.921C171.191 260.738 171.656 261.226 172.642 261.464L173.617 261.69C174.196 261.838 174.377 262.065 174.377 262.439C174.377 262.949 173.946 263.255 173.198 263.255C172.495 263.255 172.064 262.915 172.064 262.348H171.043ZM178.202 264.095C179.097 264.095 179.857 263.698 180.141 263.063L180.254 263.958H181.161V260.477C181.161 258.98 180.231 258.254 178.859 258.254C177.43 258.254 176.478 259.014 176.478 260.171H177.408C177.408 259.502 177.918 259.105 178.814 259.105C179.562 259.105 180.118 259.434 180.118 260.364V260.522L178.372 260.659C177.068 260.761 176.308 261.396 176.308 262.416C176.308 263.426 177.011 264.095 178.202 264.095ZM178.508 263.267C177.816 263.267 177.385 262.972 177.385 262.382C177.385 261.838 177.771 261.475 178.712 261.384L180.129 261.271V261.566C180.129 262.609 179.517 263.267 178.508 263.267ZM182.286 261.044C182.286 262.598 183.284 263.811 184.86 263.811C185.733 263.811 186.459 263.426 186.822 262.779V263.89C186.822 264.945 186.142 265.625 185.098 265.625C184.168 265.625 183.556 265.149 183.42 264.333H182.354C182.558 265.739 183.59 266.589 185.098 266.589C186.799 266.589 187.877 265.478 187.877 263.732V258.413H186.924L186.845 259.354C186.493 258.663 185.801 258.254 184.906 258.254C183.295 258.254 182.286 259.479 182.286 261.044ZM183.352 261.021C183.352 260.001 183.987 259.184 185.053 259.184C186.142 259.184 186.777 259.955 186.777 261.021C186.777 262.11 186.119 262.881 185.042 262.881C183.998 262.881 183.352 262.065 183.352 261.021ZM191.808 264.095C193.18 264.095 194.11 263.426 194.382 262.235H193.384C193.203 262.87 192.658 263.21 191.83 263.21C190.776 263.21 190.163 262.564 190.084 261.396L194.371 261.384V260.987C194.371 259.343 193.339 258.254 191.762 258.254C190.152 258.254 189.052 259.457 189.052 261.192C189.052 262.915 190.175 264.095 191.808 264.095ZM191.762 259.15C192.704 259.15 193.305 259.763 193.305 260.681H190.107C190.243 259.706 190.832 259.15 191.762 259.15Z" fill="black"/>
<path d="M118.213 289.597C118.213 289.791 118.17 289.991 118.078 290.185C117.987 290.38 117.868 290.563 117.711 290.736C117.447 291.028 117.155 291.238 116.826 291.373C116.502 291.508 116.151 291.578 115.773 291.578C115.222 291.578 114.633 291.449 114.012 291.184C113.391 290.92 112.77 290.563 112.155 290.115C111.534 289.661 110.945 289.159 110.383 288.603C109.827 288.041 109.325 287.453 108.877 286.837C108.434 286.222 108.078 285.606 107.818 284.996C107.559 284.38 107.43 283.792 107.43 283.23C107.43 282.863 107.494 282.512 107.624 282.188C107.754 281.858 107.959 281.556 108.245 281.286C108.591 280.946 108.969 280.778 109.368 280.778C109.519 280.778 109.671 280.811 109.806 280.876C109.946 280.94 110.07 281.038 110.167 281.178L111.42 282.944C111.517 283.079 111.588 283.203 111.636 283.322C111.685 283.435 111.712 283.549 111.712 283.651C111.712 283.781 111.674 283.91 111.598 284.035C111.528 284.159 111.426 284.288 111.296 284.418L110.886 284.845C110.826 284.904 110.799 284.974 110.799 285.061C110.799 285.104 110.805 285.142 110.815 285.185C110.832 285.228 110.848 285.26 110.859 285.293C110.956 285.471 111.123 285.703 111.361 285.984C111.604 286.265 111.863 286.551 112.144 286.837C112.435 287.123 112.716 287.388 113.002 287.631C113.283 287.869 113.515 288.031 113.699 288.128C113.726 288.139 113.758 288.155 113.796 288.171C113.839 288.187 113.883 288.193 113.931 288.193C114.023 288.193 114.093 288.16 114.153 288.101L114.563 287.696C114.698 287.561 114.828 287.458 114.952 287.393C115.076 287.318 115.2 287.28 115.335 287.28C115.438 287.28 115.546 287.302 115.665 287.35C115.783 287.399 115.908 287.469 116.043 287.561L117.83 288.83C117.97 288.927 118.068 289.04 118.127 289.175C118.181 289.31 118.213 289.445 118.213 289.597Z" stroke="#292D32" stroke-width="1.215" stroke-miterlimit="10"/>
<path d="M130.27 287.753C131.869 287.753 132.912 286.641 132.912 285.11C132.912 283.534 131.88 282.479 130.27 282.479H127.084V290.678H128.195V287.753H130.27ZM130.077 283.477C131.121 283.477 131.744 284.067 131.744 285.099C131.744 286.108 131.132 286.755 130.032 286.755H128.195V283.477H130.077ZM135.056 290.667V287.65C135.056 286.698 135.611 285.949 136.643 285.949C137.437 285.949 137.97 286.403 137.97 287.526V290.678H139.036V287.288C139.036 285.87 138.356 284.974 136.938 284.974C136.076 284.974 135.407 285.382 135.056 285.983V282.332H133.99V290.667H135.056ZM140.149 287.9C140.149 289.612 141.374 290.814 143.041 290.814C144.697 290.814 145.922 289.612 145.922 287.9C145.922 286.188 144.697 284.986 143.041 284.986C141.374 284.986 140.149 286.188 140.149 287.9ZM141.227 287.9C141.227 286.743 141.964 285.938 143.041 285.938C144.107 285.938 144.856 286.743 144.856 287.9C144.856 289.057 144.107 289.862 143.041 289.862C141.964 289.862 141.227 289.057 141.227 287.9ZM148.167 290.678V287.741C148.167 286.664 148.746 285.949 149.744 285.949C150.56 285.949 151.082 286.403 151.082 287.526V290.678H152.148V287.288C152.148 285.87 151.479 284.974 150.016 284.974C149.233 284.974 148.53 285.348 148.179 285.983L148.065 285.133H147.102V290.678H148.167ZM156.017 290.814C157.389 290.814 158.319 290.145 158.591 288.955H157.593C157.412 289.59 156.867 289.93 156.04 289.93C154.985 289.93 154.373 289.283 154.293 288.115L158.58 288.104V287.707C158.58 286.063 157.548 284.974 155.972 284.974C154.361 284.974 153.261 286.176 153.261 287.911C153.261 289.635 154.384 290.814 156.017 290.814ZM155.972 285.87C156.913 285.87 157.514 286.482 157.514 287.401H154.316C154.452 286.426 155.042 285.87 155.972 285.87ZM166.455 290.803C168.303 290.803 169.766 289.714 170.117 288.081H168.938C168.632 289.091 167.679 289.737 166.477 289.737C164.822 289.737 163.733 288.49 163.733 286.573C163.733 284.657 164.822 283.409 166.477 283.409C167.668 283.409 168.587 284.056 168.893 285.122H170.083C169.777 283.443 168.36 282.343 166.511 282.343C164.164 282.343 162.565 284.056 162.565 286.584C162.565 289.125 164.119 290.803 166.455 290.803ZM172.81 290.814C173.705 290.814 174.465 290.417 174.749 289.782L174.862 290.678H175.769V287.197C175.769 285.7 174.839 284.974 173.467 284.974C172.038 284.974 171.086 285.734 171.086 286.891H172.016C172.016 286.222 172.526 285.825 173.422 285.825C174.17 285.825 174.726 286.154 174.726 287.083V287.242L172.98 287.378C171.676 287.48 170.916 288.115 170.916 289.136C170.916 290.145 171.619 290.814 172.81 290.814ZM173.116 289.986C172.424 289.986 171.993 289.692 171.993 289.102C171.993 288.558 172.379 288.195 173.32 288.104L174.737 287.991V288.285C174.737 289.329 174.125 289.986 173.116 289.986ZM178.334 290.678V282.332H177.268V290.678H178.334ZM180.992 290.678V282.332H179.926V290.678H180.992Z" fill="black"/>
</g>
</g>
<g filter="url(#filter1_d_506_19764)">
<rect x="447" y="235.238" width="56" height="56" rx="12" fill="#1777F7" shape-rendering="crispEdges"/>
<path d="M484 273.238H466C465.59 273.238 465.25 272.898 465.25 272.488C465.25 272.078 465.59 271.738 466 271.738H484C484.41 271.738 484.75 272.078 484.75 272.488C484.75 272.898 484.41 273.238 484 273.238Z" fill="white"/>
<path d="M482.02 254.718C480.08 252.778 478.18 252.728 476.19 254.718L474.98 255.928C474.88 256.028 474.84 256.188 474.88 256.328C475.64 258.978 477.76 261.098 480.41 261.858C480.45 261.868 480.49 261.878 480.53 261.878C480.64 261.878 480.74 261.838 480.82 261.758L482.02 260.548C483.01 259.568 483.49 258.618 483.49 257.658C483.5 256.668 483.02 255.708 482.02 254.718Z" fill="white"/>
<path d="M478.61 262.768C478.32 262.628 478.04 262.488 477.77 262.328C477.55 262.198 477.34 262.058 477.13 261.908C476.96 261.798 476.76 261.638 476.57 261.478C476.55 261.468 476.48 261.408 476.4 261.328C476.07 261.048 475.7 260.688 475.37 260.288C475.34 260.268 475.29 260.198 475.22 260.108C475.12 259.988 474.95 259.788 474.8 259.558C474.68 259.408 474.54 259.188 474.41 258.968C474.25 258.698 474.11 258.428 473.97 258.148C473.949 258.103 473.929 258.058 473.909 258.013C473.761 257.679 473.327 257.582 473.069 257.84L467.34 263.568C467.21 263.698 467.09 263.948 467.06 264.118L466.52 267.948C466.42 268.628 466.61 269.268 467.03 269.698C467.39 270.048 467.89 270.238 468.43 270.238C468.55 270.238 468.67 270.228 468.79 270.208L472.63 269.668C472.81 269.638 473.06 269.518 473.18 269.388L478.902 263.667C479.161 263.407 479.063 262.962 478.726 262.818C478.688 262.801 478.649 262.785 478.61 262.768Z" fill="white"/>
</g>
</g>
<defs>
<filter id="filter0_d_506_19764" x="86.9099" y="181.318" width="386.37" height="136.04" filterUnits="userSpaceOnUse" color-interpolation-filters="sRGB">
<feFlood flood-opacity="0" result="BackgroundImageFix"/>
<feColorMatrix in="SourceAlpha" type="matrix" values="0 0 0 0 0 0 0 0 0 0 0 0 0 0 0 0 0 0 127 0" result="hardAlpha"/>
<feOffset dy="3.24"/>
<feGaussianBlur stdDeviation="4.86"/>
<feComposite in2="hardAlpha" operator="out"/>
<feColorMatrix type="matrix" values="0 0 0 0 0 0 0 0 0 0 0 0 0 0 0 0 0 0 0.08 0"/>
<feBlend mode="normal" in2="BackgroundImageFix" result="effect1_dropShadow_506_19764"/>
<feBlend mode="normal" in="SourceGraphic" in2="effect1_dropShadow_506_19764" result="shape"/>
</filter>
<filter id="filter1_d_506_19764" x="431" y="223.238" width="88" height="88" filterUnits="userSpaceOnUse" color-interpolation-filters="sRGB">
<feFlood flood-opacity="0" result="BackgroundImageFix"/>
<feColorMatrix in="SourceAlpha" type="matrix" values="0 0 0 0 0 0 0 0 0 0 0 0 0 0 0 0 0 0 127 0" result="hardAlpha"/>
<feOffset dy="4"/>
<feGaussianBlur stdDeviation="8"/>
<feComposite in2="hardAlpha" operator="out"/>
<feColorMatrix type="matrix" values="0 0 0 0 0 0 0 0 0 0 0 0 0 0 0 0 0 0 0.1 0"/>
<feBlend mode="normal" in2="BackgroundImageFix" result="effect1_dropShadow_506_19764"/>
<feBlend mode="normal" in="SourceGraphic" in2="effect1_dropShadow_506_19764" result="shape"/>
</filter>
<clipPath id="clip0_506_19764">
<rect y="0.238281" width="540" height="321" rx="16" fill="white"/>
</clipPath>
<clipPath id="clip1_506_19764">
<rect x="78" y="45.2383" width="405" height="331.29" rx="9.72" fill="white"/>
</clipPath>
</defs>
</svg>
