<svg width="178" height="41" viewBox="0 0 178 41" fill="none" xmlns="http://www.w3.org/2000/svg">
<path d="M41.9396 28.0373L41.9148 27.9707L57.6526 15.8176V9.96191H32.4038V15.8176H47.485L47.5097 15.8737L31.9258 28.0373V33.8931H57.906V28.0373H41.9396Z" fill="white"/>
<path d="M73.4033 9.4043C70.4909 9.4043 68.1174 9.77481 66.2826 10.5158C64.5738 11.1616 63.1341 12.2256 62.1507 13.5699C61.2101 14.923 60.6193 16.4286 60.4175 17.9879L68.0784 18.8961C68.3556 17.5192 68.91 16.5433 69.7412 15.9682C70.6864 15.3668 71.851 15.0629 73.0334 15.1092C74.5881 15.1092 75.716 15.4598 76.4173 16.1611C77.1115 16.8624 77.4647 17.8336 77.4647 19.1135V19.7516H70.0987C66.3491 19.7516 63.6556 20.4529 62.018 21.8554C60.38 23.258 59.5626 25.1094 59.5654 27.4096C59.5654 29.7658 60.3828 31.5191 62.018 32.669C63.6527 33.8193 65.7091 34.3908 68.1868 34.3836C71.2598 34.3836 73.6238 33.492 75.2781 31.7084C76.2551 30.6122 76.9529 29.3576 77.3274 28.0232H77.606L78.662 33.8787H85.6039V19.0504C85.6039 15.9858 84.6463 13.612 82.7316 11.9289C80.8164 10.2459 77.7072 9.4043 73.4033 9.4043ZM75.831 27.6831C74.7294 28.4579 73.2872 28.8437 71.4913 28.8437C70.0113 28.8437 68.9833 28.6251 68.4069 28.188C68.1262 27.9812 67.9025 27.7247 67.7524 27.4369C67.6023 27.149 67.529 26.8368 67.5382 26.5224C67.5216 26.226 67.5772 25.9297 67.7007 25.6519C67.8243 25.374 68.0137 25.1202 68.2572 24.906C68.5206 24.6976 68.8314 24.5364 69.1709 24.4322C69.5104 24.3279 69.8711 24.2827 70.2318 24.2994H77.4771V24.7026C77.492 25.2726 77.3511 25.8378 77.0658 26.3546C76.7801 26.8713 76.3578 27.3259 75.831 27.6831Z" fill="white"/>
<path d="M127.577 9.96191H119.376V33.8964H127.577V9.96191Z" fill="white"/>
<path d="M175.998 9.96191C173.681 9.96191 171.855 10.6515 170.519 12.0307C169.56 13.0218 168.831 14.4863 168.333 16.4242H168.092L167.019 9.96191H160.015V33.8931H168.216V21.6206C168.216 20.0732 168.646 18.8868 169.505 18.0617C170.364 17.2365 171.949 16.8239 174.26 16.8239H177.374V9.96191H175.998Z" fill="white"/>
<path d="M151.884 10.7443C149.969 9.78352 147.554 9.30432 144.639 9.30665C140.05 9.30665 136.458 10.4088 133.864 12.6132C131.27 14.8175 129.974 17.8564 129.974 21.7298C129.907 24.0715 130.514 26.392 131.74 28.4935C132.863 30.3662 134.612 31.9205 136.77 32.9641C138.943 34.0232 141.527 34.5539 144.522 34.556C147.114 34.556 149.278 34.2194 151.015 33.5464C152.649 32.9417 154.071 31.9939 155.147 30.7938C156.172 29.6155 156.933 28.2894 157.392 26.8806L150.325 25.2116C150.028 26.1277 149.455 26.9634 148.663 27.638C147.864 28.3112 146.527 28.6478 144.651 28.6478C142.421 28.6478 140.758 28.109 139.663 27.0314C138.869 26.253 138.371 25.1414 138.15 23.7003H157.5C157.579 23.0271 157.621 22.4626 157.621 22.0067V20.5165C157.667 18.5146 157.177 16.5296 156.187 14.71C155.26 13.0524 153.76 11.67 151.884 10.7443ZM144.402 15.0115C147.727 15.0115 149.613 16.3918 150.059 19.1525H138.295C138.482 18.2314 138.935 17.3632 139.613 16.6245C140.691 15.5468 142.288 15.0092 144.402 15.0115Z" fill="white"/>
<path d="M123.565 0.315966C122.948 0.298266 122.333 0.385365 121.757 0.572092C121.18 0.758819 120.655 1.04135 120.21 1.40292C119.772 1.76795 119.429 2.20581 119.202 2.68868C118.975 3.17157 118.87 3.68892 118.893 4.20799C118.87 4.7304 118.976 5.25105 119.203 5.73745C119.43 6.22388 119.774 6.6656 120.212 7.03507C120.651 7.40453 121.175 7.69382 121.751 7.8849C122.328 8.07598 122.946 8.16472 123.565 8.14561C124.18 8.16523 124.794 8.07652 125.366 7.88514C125.939 7.69379 126.458 7.40394 126.89 7.03408C127.319 6.66041 127.654 6.21743 127.875 5.73174C128.096 5.24606 128.198 4.72777 128.175 4.20799C128.203 3.69128 128.103 3.17526 127.882 2.69288C127.661 2.2105 127.323 1.77237 126.889 1.40645C126.456 1.04053 125.937 0.754866 125.365 0.567705C124.793 0.380545 124.182 0.296008 123.569 0.319476L123.565 0.315966Z" fill="white"/>
<path d="M106.624 9.30664C103.831 9.30664 101.586 10.0465 99.8903 11.5261C98.6347 12.6225 97.7136 14.2588 97.1259 16.4351H96.864L95.7917 9.97283H88.7871V40.7729H96.9886V28.0868H97.2881C97.5383 28.9327 97.8892 29.755 98.3356 30.5412C99.0294 31.8219 100.167 32.8954 101.599 33.6198C103.083 34.303 104.755 34.6431 106.445 34.6052C109.879 34.6052 112.494 33.4774 114.29 31.2214C116.085 28.9657 116.983 25.8182 116.983 21.7788C116.983 17.8774 116.114 14.8234 114.377 12.6167C112.639 10.41 110.055 9.30664 106.624 9.30664ZM107.456 26.6492C106.5 27.818 105.003 28.4024 102.966 28.4024C102.127 28.4351 101.289 28.2985 100.525 28.004C99.7597 27.7095 99.0892 27.2655 98.5685 26.7088C97.5068 25.5844 96.9776 24.0451 96.9804 22.0909V21.6351C96.9804 19.6504 97.5097 18.131 98.5685 17.0768C99.6269 16.0225 101.093 15.5012 102.966 15.5129C105.039 15.5129 106.545 16.0681 107.485 17.1784C108.424 18.2888 108.894 19.8375 108.894 21.8244C108.9 23.8791 108.423 25.4874 107.464 26.6492H107.456Z" fill="white"/>
<path d="M28.7496 28.0374H0.375V33.9001H28.7496V28.0374Z" fill="white"/>
</svg>
