<svg width="540" height="322" viewBox="0 0 540 322" fill="none" xmlns="http://www.w3.org/2000/svg">
<g clip-path="url(#clip0_506_19669)">
<rect y="0.238037" width="540" height="321" rx="16" fill="#E9F1FF"/>
<rect x="93.5" y="69.738" width="337" height="215" rx="7.56758" stroke="black" stroke-dasharray="5 5"/>
<g clip-path="url(#clip1_506_19669)">
<rect x="131" y="128.238" width="348" height="249" rx="12" fill="white"/>
<mask id="path-4-inside-1_506_19669" fill="white">
<path d="M131 128.238H479V176.238H131V128.238Z"/>
</mask>
<path d="M479 175.238H131V177.238H479V175.238Z" fill="#EDEDED" mask="url(#path-4-inside-1_506_19669)"/>
<path d="M181.912 146.67H180.344V158.238H181.912V146.67ZM185.858 158.238V154.094C185.858 152.574 186.674 151.566 188.082 151.566C189.234 151.566 189.97 152.206 189.97 153.79V158.238H191.474V153.454C191.474 151.454 190.53 150.19 188.466 150.19C187.362 150.19 186.37 150.718 185.874 151.614L185.714 150.414H184.354V158.238H185.858ZM194.293 148.558C194.837 148.558 195.285 148.11 195.285 147.566C195.285 147.006 194.837 146.574 194.293 146.574C193.749 146.574 193.301 147.006 193.301 147.566C193.301 148.11 193.749 148.558 194.293 148.558ZM193.557 158.238H195.061V150.414H193.557V158.238ZM199.452 158.238V151.678H200.988V150.414H199.452V147.966H197.948V150.414H196.412V151.678H197.948V158.238H199.452ZM203.074 148.558C203.618 148.558 204.066 148.11 204.066 147.566C204.066 147.006 203.618 146.574 203.074 146.574C202.53 146.574 202.082 147.006 202.082 147.566C202.082 148.11 202.53 148.558 203.074 148.558ZM202.338 158.238H203.842V150.414H202.338V158.238ZM208.314 158.43C209.578 158.43 210.65 157.87 211.05 156.974L211.21 158.238H212.49V153.326C212.49 151.214 211.178 150.19 209.242 150.19C207.226 150.19 205.882 151.262 205.882 152.894H207.194C207.194 151.95 207.914 151.39 209.178 151.39C210.234 151.39 211.018 151.854 211.018 153.166V153.39L208.554 153.582C206.714 153.726 205.642 154.622 205.642 156.062C205.642 157.486 206.634 158.43 208.314 158.43ZM208.746 157.262C207.77 157.262 207.162 156.846 207.162 156.014C207.162 155.246 207.706 154.734 209.034 154.606L211.034 154.446V154.862C211.034 156.334 210.17 157.262 208.746 157.262ZM216.108 158.238V146.462H214.604V158.238H216.108ZM217.682 155.966C217.682 157.454 218.85 158.43 220.69 158.43C222.546 158.43 223.826 157.486 223.826 155.998C223.826 154.83 223.17 154.222 221.842 153.902L220.466 153.566C219.698 153.374 219.314 153.022 219.314 152.494C219.314 151.774 219.842 151.358 220.786 151.358C221.698 151.358 222.226 151.854 222.258 152.638H223.698C223.666 151.15 222.546 150.19 220.834 150.19C219.106 150.19 217.89 151.102 217.89 152.542C217.89 153.694 218.546 154.382 219.938 154.718L221.314 155.038C222.13 155.246 222.386 155.566 222.386 156.094C222.386 156.814 221.778 157.246 220.722 157.246C219.73 157.246 219.122 156.766 219.122 155.966H217.682Z" fill="black"/>
<path d="M270.672 149.79C270.672 151.454 271.648 152.542 273.536 152.974L275.44 153.406C276.544 153.662 277.04 154.238 277.04 155.15C277.04 156.302 276.064 157.022 274.528 157.022C273.072 157.022 272.144 156.318 272.112 155.214H270.512C270.608 157.198 272.176 158.43 274.528 158.43C276.992 158.43 278.608 157.102 278.608 155.022C278.608 153.39 277.648 152.366 275.76 151.934L273.856 151.486C272.768 151.23 272.24 150.67 272.24 149.742C272.24 148.606 273.184 147.87 274.64 147.87C275.936 147.87 276.752 148.542 276.832 149.694H278.416C278.288 147.694 276.864 146.462 274.656 146.462C272.272 146.462 270.672 147.806 270.672 149.79ZM282.53 158.238V151.678H284.066V150.414H282.53V147.966H281.026V150.414H279.49V151.678H281.026V158.238H282.53ZM287.61 158.43C288.874 158.43 289.946 157.87 290.346 156.974L290.506 158.238H291.786V153.326C291.786 151.214 290.474 150.19 288.538 150.19C286.522 150.19 285.178 151.262 285.178 152.894H286.49C286.49 151.95 287.21 151.39 288.474 151.39C289.53 151.39 290.314 151.854 290.314 153.166V153.39L287.85 153.582C286.01 153.726 284.938 154.622 284.938 156.062C284.938 157.486 285.93 158.43 287.61 158.43ZM288.042 157.262C287.066 157.262 286.458 156.846 286.458 156.014C286.458 155.246 287.002 154.734 288.33 154.606L290.33 154.446V154.862C290.33 156.334 289.466 157.262 288.042 157.262ZM295.373 158.238V153.598C295.373 152.35 296.125 151.566 297.261 151.566C298.317 151.566 298.989 152.238 298.989 153.47V158.238H300.477V153.598C300.477 152.35 301.229 151.55 302.365 151.55C303.421 151.55 304.109 152.254 304.109 153.486V158.238H305.581V153.118C305.581 151.31 304.493 150.19 302.701 150.19C301.485 150.19 300.541 150.798 300.173 151.774C299.773 150.798 298.909 150.19 297.693 150.19C296.589 150.19 295.757 150.702 295.357 151.438L295.213 150.414H293.869V158.238H295.373ZM307.666 161.742H309.17V156.958C309.682 157.918 310.722 158.446 311.97 158.446C314.29 158.446 315.602 156.654 315.602 154.27C315.602 151.87 314.21 150.19 311.97 150.19C310.722 150.19 309.666 150.75 309.138 151.822L309.026 150.414H307.666V161.742ZM309.186 154.334C309.186 152.702 310.114 151.566 311.65 151.566C313.186 151.566 314.098 152.718 314.098 154.334C314.098 155.934 313.186 157.086 311.65 157.086C310.114 157.086 309.186 155.934 309.186 154.334Z" fill="black"/>
<mask id="path-8-inside-2_506_19669" fill="white">
<path d="M346 128.238H447V176.238H346V128.238Z"/>
</mask>
<path d="M447 174.238H346V178.238H447V174.238Z" fill="#1777F7" mask="url(#path-8-inside-2_506_19669)"/>
<path d="M362.672 149.79C362.672 151.454 363.648 152.542 365.536 152.974L367.44 153.406C368.544 153.662 369.04 154.238 369.04 155.15C369.04 156.302 368.064 157.022 366.528 157.022C365.072 157.022 364.144 156.318 364.112 155.214H362.512C362.608 157.198 364.176 158.43 366.528 158.43C368.992 158.43 370.608 157.102 370.608 155.022C370.608 153.39 369.648 152.366 367.76 151.934L365.856 151.486C364.768 151.23 364.24 150.67 364.24 149.742C364.24 148.606 365.184 147.87 366.64 147.87C367.936 147.87 368.752 148.542 368.832 149.694H370.416C370.288 147.694 368.864 146.462 366.656 146.462C364.272 146.462 362.672 147.806 362.672 149.79ZM373.058 148.558C373.602 148.558 374.05 148.11 374.05 147.566C374.05 147.006 373.602 146.574 373.058 146.574C372.514 146.574 372.066 147.006 372.066 147.566C372.066 148.11 372.514 148.558 373.058 148.558ZM372.322 158.238H373.826V150.414H372.322V158.238ZM375.514 154.126C375.514 156.318 376.922 158.03 379.146 158.03C380.378 158.03 381.402 157.486 381.914 156.574V158.142C381.914 159.63 380.954 160.59 379.482 160.59C378.17 160.59 377.306 159.918 377.114 158.766H375.61C375.898 160.75 377.354 161.95 379.482 161.95C381.882 161.95 383.402 160.382 383.402 157.918V150.414H382.058L381.946 151.742C381.45 150.766 380.474 150.19 379.21 150.19C376.938 150.19 375.514 151.918 375.514 154.126ZM377.018 154.094C377.018 152.654 377.914 151.502 379.418 151.502C380.954 151.502 381.85 152.59 381.85 154.094C381.85 155.63 380.922 156.718 379.402 156.718C377.93 156.718 377.018 155.566 377.018 154.094ZM387.076 158.238V154.094C387.076 152.574 387.892 151.566 389.3 151.566C390.452 151.566 391.188 152.206 391.188 153.79V158.238H392.692V153.454C392.692 151.454 391.748 150.19 389.684 150.19C388.58 150.19 387.588 150.718 387.092 151.614L386.932 150.414H385.572V158.238H387.076ZM397.064 158.43C398.328 158.43 399.4 157.87 399.8 156.974L399.96 158.238H401.24V153.326C401.24 151.214 399.928 150.19 397.992 150.19C395.976 150.19 394.632 151.262 394.632 152.894H395.944C395.944 151.95 396.664 151.39 397.928 151.39C398.984 151.39 399.768 151.854 399.768 153.166V153.39L397.304 153.582C395.464 153.726 394.392 154.622 394.392 156.062C394.392 157.486 395.384 158.43 397.064 158.43ZM397.496 157.262C396.52 157.262 395.912 156.846 395.912 156.014C395.912 155.246 396.456 154.734 397.784 154.606L399.784 154.446V154.862C399.784 156.334 398.92 157.262 397.496 157.262ZM405.405 158.238V151.678H406.941V150.414H405.405V147.966H403.901V150.414H402.365V151.678H403.901V158.238H405.405ZM413.699 150.414V154.542C413.699 156.222 412.947 157.102 411.571 157.102C410.419 157.102 409.699 156.462 409.699 154.782V150.414H408.195V155.278C408.195 157.198 409.219 158.43 411.043 158.43C412.195 158.43 413.235 157.87 413.683 157.054L413.843 158.238H415.187V150.414H413.699ZM421.849 150.35C421.545 150.286 421.321 150.254 421.049 150.254C419.977 150.254 419.193 150.798 418.873 151.614L418.777 150.43H417.369V158.238H418.873V154.094C418.873 152.59 419.753 151.726 421.177 151.726H421.849V150.35ZM426.355 158.43C428.291 158.43 429.603 157.486 429.987 155.806H428.579C428.323 156.702 427.555 157.182 426.387 157.182C424.899 157.182 424.035 156.27 423.923 154.622L429.971 154.606V154.046C429.971 151.726 428.515 150.19 426.291 150.19C424.019 150.19 422.467 151.886 422.467 154.334C422.467 156.766 424.051 158.43 426.355 158.43ZM426.291 151.454C427.619 151.454 428.467 152.318 428.467 153.614H423.955C424.147 152.238 424.979 151.454 426.291 151.454Z" fill="black"/>
<path d="M155.624 201.806C155.624 203.598 156.664 204.734 158.648 205.166L160.504 205.582C161.464 205.79 161.864 206.254 161.864 207.038C161.864 208.014 161 208.606 159.64 208.606C158.328 208.606 157.528 208.014 157.512 207.022H155.464C155.512 209.118 157.144 210.446 159.64 210.446C162.216 210.446 163.912 209.038 163.912 206.862C163.912 205.118 162.936 204.094 160.936 203.662L159.096 203.262C158.12 203.038 157.672 202.574 157.672 201.742C157.672 200.766 158.488 200.158 159.752 200.158C160.904 200.158 161.624 200.75 161.672 201.758H163.72C163.656 199.646 162.152 198.334 159.784 198.334C157.32 198.334 155.624 199.758 155.624 201.806ZM169.013 210.446C171.077 210.446 172.517 209.406 172.853 207.678H171.045C170.821 208.43 170.117 208.846 169.045 208.846C167.749 208.846 167.013 208.142 166.869 206.75L172.821 206.734V206.142C172.821 203.678 171.317 202.094 168.949 202.094C166.629 202.094 165.013 203.806 165.013 206.286C165.013 208.734 166.661 210.446 169.013 210.446ZM168.965 203.694C170.133 203.694 170.885 204.414 170.885 205.502H166.917C167.109 204.318 167.813 203.694 168.965 203.694ZM176.351 210.238V198.334H174.415V210.238H176.351ZM181.935 210.446C183.999 210.446 185.439 209.406 185.775 207.678H183.967C183.743 208.43 183.039 208.846 181.967 208.846C180.671 208.846 179.935 208.142 179.791 206.75L185.743 206.734V206.142C185.743 203.678 184.239 202.094 181.871 202.094C179.551 202.094 177.935 203.806 177.935 206.286C177.935 208.734 179.583 210.446 181.935 210.446ZM181.887 203.694C183.055 203.694 183.807 204.414 183.807 205.502H179.839C180.031 204.318 180.735 203.694 181.887 203.694ZM186.841 206.27C186.841 208.782 188.409 210.446 190.809 210.446C192.873 210.446 194.409 209.182 194.649 207.342H192.681C192.473 208.206 191.785 208.686 190.809 208.686C189.561 208.686 188.793 207.758 188.793 206.27C188.793 204.782 189.625 203.838 190.873 203.838C191.801 203.838 192.457 204.302 192.681 205.198H194.633C194.425 203.294 192.953 202.094 190.793 202.094C188.457 202.094 186.841 203.822 186.841 206.27ZM198.79 210.238V203.966H200.326V202.334H198.79V199.87H196.838V202.334H195.318V203.966H196.838V210.238H198.79ZM205.468 201.806C205.468 203.598 206.508 204.734 208.492 205.166L210.348 205.582C211.308 205.79 211.708 206.254 211.708 207.038C211.708 208.014 210.844 208.606 209.484 208.606C208.172 208.606 207.372 208.014 207.356 207.022H205.308C205.356 209.118 206.988 210.446 209.484 210.446C212.06 210.446 213.756 209.038 213.756 206.862C213.756 205.118 212.78 204.094 210.78 203.662L208.94 203.262C207.964 203.038 207.516 202.574 207.516 201.742C207.516 200.766 208.332 200.158 209.596 200.158C210.748 200.158 211.468 200.75 211.516 201.758H213.564C213.5 199.646 211.996 198.334 209.628 198.334C207.164 198.334 205.468 199.758 205.468 201.806ZM216.297 200.75C216.937 200.75 217.465 200.222 217.465 199.566C217.465 198.91 216.937 198.398 216.297 198.398C215.625 198.398 215.097 198.91 215.097 199.566C215.097 200.222 215.625 200.75 216.297 200.75ZM215.321 210.238H217.273V202.334H215.321V210.238ZM218.841 206.11C218.841 208.398 220.313 210.078 222.553 210.078C223.689 210.078 224.665 209.614 225.161 208.878V210.19C225.161 211.502 224.297 212.35 222.953 212.35C221.753 212.35 220.969 211.742 220.841 210.718H218.889C219.129 212.83 220.681 214.126 222.953 214.126C225.513 214.126 227.097 212.478 227.097 209.838V202.334H225.289L225.177 203.422C224.713 202.574 223.785 202.078 222.601 202.078C220.345 202.078 218.841 203.806 218.841 206.11ZM220.809 206.062C220.809 204.766 221.641 203.79 222.937 203.79C224.297 203.79 225.113 204.718 225.113 206.062C225.113 207.438 224.281 208.382 222.937 208.382C221.657 208.382 220.809 207.39 220.809 206.062ZM231.069 210.238V205.982C231.069 204.702 231.805 203.87 233.005 203.87C234.013 203.87 234.669 204.51 234.669 205.838V210.238H236.621V205.374C236.621 203.326 235.597 202.094 233.613 202.094C232.541 202.094 231.581 202.558 231.085 203.358L230.925 202.334H229.117V210.238H231.069ZM240.891 210.446C242.123 210.446 243.195 209.886 243.531 209.07L243.675 210.238H245.387V205.438C245.387 203.246 244.075 202.094 241.947 202.094C239.803 202.094 238.395 203.214 238.395 204.926H240.059C240.059 204.094 240.699 203.614 241.851 203.614C242.843 203.614 243.483 204.046 243.483 205.118V205.294L241.115 205.47C239.243 205.614 238.187 206.526 238.187 207.982C238.187 209.47 239.211 210.446 240.891 210.446ZM241.531 208.974C240.651 208.974 240.171 208.622 240.171 207.902C240.171 207.262 240.635 206.862 241.851 206.75L243.499 206.622V207.038C243.499 208.254 242.731 208.974 241.531 208.974ZM249.884 210.238V203.966H251.42V202.334H249.884V199.87H247.932V202.334H246.412V203.966H247.932V210.238H249.884ZM257.993 202.334V206.478C257.993 207.982 257.401 208.702 256.169 208.702C255.081 208.702 254.489 208.094 254.489 206.59V202.334H252.537V207.278C252.537 209.214 253.609 210.446 255.433 210.446C256.489 210.446 257.513 209.934 257.993 209.182L258.137 210.238H259.945V202.334H257.993ZM266.921 202.302C266.601 202.222 266.329 202.19 266.057 202.19C265.001 202.19 264.249 202.718 263.913 203.502L263.801 202.35H261.961V210.238H263.913V206.398C263.913 204.862 264.793 204.11 266.201 204.11H266.921V202.302ZM271.513 210.446C273.577 210.446 275.017 209.406 275.353 207.678H273.545C273.321 208.43 272.617 208.846 271.545 208.846C270.249 208.846 269.513 208.142 269.369 206.75L275.321 206.734V206.142C275.321 203.678 273.817 202.094 271.449 202.094C269.129 202.094 267.513 203.806 267.513 206.286C267.513 208.734 269.161 210.446 271.513 210.446ZM271.465 203.694C272.633 203.694 273.385 204.414 273.385 205.502H269.417C269.609 204.318 270.313 203.694 271.465 203.694Z" fill="black"/>
<rect x="318" y="192.238" width="137" height="29" rx="4" fill="#1777F7"/>
<path d="M340.374 205.898L339.467 204.845C339.294 204.645 339.154 204.271 339.154 204.005V202.871C339.154 202.165 338.574 201.585 337.867 201.585H336.734C336.474 201.585 336.094 201.445 335.894 201.271L334.84 200.365C334.38 199.971 333.627 199.971 333.16 200.365L332.114 201.278C331.914 201.445 331.534 201.585 331.274 201.585H330.12C329.414 201.585 328.834 202.165 328.834 202.871V204.011C328.834 204.271 328.694 204.645 328.527 204.845L327.627 205.905C327.24 206.365 327.24 207.111 327.627 207.571L328.527 208.631C328.694 208.831 328.834 209.205 328.834 209.465V210.605C328.834 211.311 329.414 211.891 330.12 211.891H331.274C331.534 211.891 331.914 212.031 332.114 212.205L333.167 213.111C333.627 213.505 334.38 213.505 334.847 213.111L335.9 212.205C336.1 212.031 336.474 211.891 336.74 211.891H337.874C338.58 211.891 339.16 211.311 339.16 210.605V209.471C339.16 209.211 339.3 208.831 339.474 208.631L340.38 207.578C340.767 207.118 340.767 206.358 340.374 205.898ZM336.774 205.478L333.554 208.698C333.46 208.791 333.334 208.845 333.2 208.845C333.067 208.845 332.94 208.791 332.847 208.698L331.234 207.085C331.04 206.891 331.04 206.571 331.234 206.378C331.427 206.185 331.747 206.185 331.94 206.378L333.2 207.638L336.067 204.771C336.26 204.578 336.58 204.578 336.774 204.771C336.967 204.965 336.967 205.285 336.774 205.478Z" fill="white"/>
<path d="M352.548 202.116H351.176V212.238H357V210.964H352.548V202.116ZM361.084 212.406C362.778 212.406 363.926 211.58 364.262 210.11H363.03C362.806 210.894 362.134 211.314 361.112 211.314C359.81 211.314 359.054 210.516 358.956 209.074L364.248 209.06V208.57C364.248 206.54 362.974 205.196 361.028 205.196C359.04 205.196 357.682 206.68 357.682 208.822C357.682 210.95 359.068 212.406 361.084 212.406ZM361.028 206.302C362.19 206.302 362.932 207.058 362.932 208.192H358.984C359.152 206.988 359.88 206.302 361.028 206.302ZM365.284 208.64C365.284 210.558 366.516 212.056 368.462 212.056C369.54 212.056 370.436 211.58 370.884 210.782V212.154C370.884 213.456 370.044 214.296 368.756 214.296C367.608 214.296 366.852 213.708 366.684 212.7H365.368C365.62 214.436 366.894 215.486 368.756 215.486C370.856 215.486 372.186 214.114 372.186 211.958V205.392H371.01L370.912 206.554C370.478 205.7 369.624 205.196 368.518 205.196C366.53 205.196 365.284 206.708 365.284 208.64ZM366.6 208.612C366.6 207.352 367.384 206.344 368.7 206.344C370.044 206.344 370.828 207.296 370.828 208.612C370.828 209.956 370.016 210.908 368.686 210.908C367.398 210.908 366.6 209.9 366.6 208.612ZM376.087 212.406C377.193 212.406 378.131 211.916 378.481 211.132L378.621 212.238H379.741V207.94C379.741 206.092 378.593 205.196 376.899 205.196C375.135 205.196 373.959 206.134 373.959 207.562H375.107C375.107 206.736 375.737 206.246 376.843 206.246C377.767 206.246 378.453 206.652 378.453 207.8V207.996L376.297 208.164C374.687 208.29 373.749 209.074 373.749 210.334C373.749 211.58 374.617 212.406 376.087 212.406ZM376.465 211.384C375.611 211.384 375.079 211.02 375.079 210.292C375.079 209.62 375.555 209.172 376.717 209.06L378.467 208.92V209.284C378.467 210.572 377.711 211.384 376.465 211.384ZM382.907 212.238V201.934H381.591V212.238H382.907ZM386.189 212.238V201.934H384.873V212.238H386.189ZM387.468 215.304C387.818 215.388 388.182 215.444 388.616 215.444C389.666 215.444 390.352 214.954 390.814 213.778L394.048 205.392H392.69L390.66 210.908L388.672 205.392H387.286L390.044 212.602L389.806 213.26C389.484 214.128 388.98 214.226 388.35 214.226H387.468V215.304ZM399.151 212.238H403.155C405.157 212.238 406.375 211.216 406.375 209.536C406.375 208.332 405.801 207.52 404.681 207.156C405.689 206.736 406.193 205.952 406.193 204.79C406.193 203.124 404.989 202.116 403.015 202.116H399.151V212.238ZM402.931 203.334C404.121 203.334 404.793 203.908 404.793 204.916C404.793 205.966 404.149 206.582 403.015 206.582H400.523V203.334H402.931ZM403.127 207.772C404.289 207.772 404.961 208.36 404.961 209.368C404.961 210.418 404.303 211.02 403.127 211.02H400.523V207.772H403.127ZM408.512 203.768C408.988 203.768 409.38 203.376 409.38 202.9C409.38 202.41 408.988 202.032 408.512 202.032C408.036 202.032 407.644 202.41 407.644 202.9C407.644 203.376 408.036 203.768 408.512 203.768ZM407.868 212.238H409.184V205.392H407.868V212.238ZM412.411 212.238V208.612C412.411 207.282 413.125 206.4 414.357 206.4C415.365 206.4 416.009 206.96 416.009 208.346V212.238H417.325V208.052C417.325 206.302 416.499 205.196 414.693 205.196C413.727 205.196 412.859 205.658 412.425 206.442L412.285 205.392H411.095V212.238H412.411ZM421.891 212.406C422.983 212.406 423.907 211.93 424.355 210.992L424.467 212.238H425.643V201.934H424.341V206.498C423.879 205.658 422.997 205.196 421.947 205.196C419.917 205.196 418.699 206.736 418.699 208.836C418.699 210.922 419.903 212.406 421.891 212.406ZM422.157 211.216C420.813 211.216 420.029 210.208 420.029 208.794C420.029 207.394 420.813 206.386 422.157 206.386C423.501 206.386 424.327 207.394 424.327 208.794C424.327 210.222 423.501 211.216 422.157 211.216ZM428.186 203.768C428.662 203.768 429.054 203.376 429.054 202.9C429.054 202.41 428.662 202.032 428.186 202.032C427.71 202.032 427.318 202.41 427.318 202.9C427.318 203.376 427.71 203.768 428.186 203.768ZM427.542 212.238H428.858V205.392H427.542V212.238ZM432.084 212.238V208.612C432.084 207.282 432.798 206.4 434.03 206.4C435.038 206.4 435.682 206.96 435.682 208.346V212.238H436.998V208.052C436.998 206.302 436.172 205.196 434.366 205.196C433.4 205.196 432.532 205.658 432.098 206.442L431.958 205.392H430.768V212.238H432.084ZM438.387 208.64C438.387 210.558 439.619 212.056 441.565 212.056C442.643 212.056 443.539 211.58 443.987 210.782V212.154C443.987 213.456 443.147 214.296 441.859 214.296C440.711 214.296 439.955 213.708 439.787 212.7H438.471C438.723 214.436 439.997 215.486 441.859 215.486C443.959 215.486 445.289 214.114 445.289 211.958V205.392H444.113L444.015 206.554C443.581 205.7 442.727 205.196 441.621 205.196C439.633 205.196 438.387 206.708 438.387 208.64ZM439.703 208.612C439.703 207.352 440.487 206.344 441.803 206.344C443.147 206.344 443.931 207.296 443.931 208.612C443.931 209.956 443.119 210.908 441.789 210.908C440.501 210.908 439.703 209.9 439.703 208.612Z" fill="white"/>
<rect x="155.5" y="237.738" width="148" height="67" rx="11.5" fill="#E7F0FC"/>
<rect x="155.5" y="237.738" width="148" height="67" rx="11.5" stroke="#1777F7"/>
<path d="M188.984 269.622C189.144 269.942 189.08 270.166 188.856 270.134C188.6 270.102 188.28 269.846 188.12 269.558C187.8 268.95 187.704 268.246 187.768 267.542C187.928 266.23 188.696 264.694 189.784 263.318C190.84 261.91 192.248 260.662 193.72 259.894C194.84 259.286 195.992 258.966 197.08 259.094C197.432 259.126 197.72 259.254 198.008 259.478C198.968 260.246 199.224 261.782 198.936 263.734C198.68 265.462 198.072 267.638 197.24 269.942C196.952 270.806 196.6 271.702 196.248 272.566C199.416 268.726 202.68 265.174 204.6 263.958C205.944 263.094 206.872 263.382 207.512 264.374C208.344 265.718 207.896 268.79 207.48 271.606C207.192 273.494 206.936 275.254 206.904 275.862C207.352 275.606 208.152 274.806 209.176 273.654C210.488 272.182 212.12 270.134 213.88 267.798C215 266.326 216.152 264.758 217.272 263.126C219.096 258.326 221.336 253.654 223.256 250.166C225.304 246.422 227.096 243.99 227.768 243.958C228.44 243.926 228.824 244.342 228.856 245.238C228.952 247.766 223.672 256.406 218.296 264.054L218.04 264.758C214.424 274.55 212.568 284.79 218.232 286.87C218.52 286.966 218.808 287.286 218.904 287.574C219 287.862 218.872 288.022 218.584 287.926C212.312 285.622 212.92 276.758 215.768 267.574C215.448 267.958 215.16 268.374 214.872 268.758C213.08 271.126 211.448 273.174 210.136 274.646C208.792 276.15 207.8 277.046 207.32 277.078C207.16 277.078 206.968 277.014 206.776 276.886C205.656 276.022 206.04 273.526 206.424 270.838C206.84 268.182 207.256 265.302 206.712 264.47C206.648 264.342 206.296 264.502 205.496 265.014C202.936 266.614 198.008 272.406 194.104 277.462C192.248 281.302 190.296 284.534 188.984 285.654C188.728 285.878 188.536 285.974 188.408 286.006C187.064 286.262 186.968 285.494 187.864 283.958C188.248 283.286 188.888 282.294 189.72 281.11C190.648 279.766 191.832 278.166 193.112 276.502C194.264 274.134 195.352 271.542 196.216 269.078C197.016 266.806 197.624 264.63 197.88 262.934C198.104 261.462 198.104 260.47 197.848 260.246C197.816 260.214 197.752 260.214 197.656 260.214C196.696 260.086 195.64 260.374 194.584 260.95C193.176 261.718 191.8 262.934 190.744 264.278C189.688 265.622 188.952 267.094 188.824 268.31C188.76 268.854 188.792 269.302 188.984 269.622ZM220.824 257.91C224.088 253.014 226.808 248.342 227.576 245.814C226.776 246.806 225.592 248.662 224.248 251.094C223.16 253.078 221.976 255.382 220.824 257.91ZM224.28 274.806C224.408 275.126 224.312 275.318 224.056 275.254C223.8 275.19 223.48 274.902 223.352 274.614C222.712 274.006 221.144 274.742 220.568 275.222C219.384 276.182 218.712 277.334 218.36 278.806C219.48 278.486 222.392 275.094 222.392 275.094C222.52 274.966 222.808 275.062 223.096 275.35C223.32 275.606 223.448 275.894 223.352 276.054C223.288 276.214 222.904 277.046 223.096 277.942C223.224 278.71 227.384 275.222 227.448 275.19C227.576 275.062 227.832 274.902 228.088 275.158C228.344 275.446 228.312 275.702 228.184 275.83C226.072 277.718 224.824 278.838 223.96 279.286C222.488 280.054 221.368 279.606 221.4 278.038C220.248 279.126 219.064 280.118 218.36 279.798C218.104 279.702 217.912 279.51 217.72 279.318C217.4 278.902 217.272 278.454 217.336 277.974C217.368 277.59 217.496 277.174 217.688 276.758C218.104 275.862 218.84 274.87 219.672 274.198C221.112 273.014 223.736 272.95 224.28 274.806ZM229.104 272.598C229.232 272.47 229.552 272.598 229.808 272.854C230.064 273.142 230.16 273.462 230.064 273.622C227.632 276.406 227.44 278.326 227.664 278.518C228.048 278.838 230.512 277.27 232.24 274.358L232.336 274.23C232.464 274.102 232.784 274.198 233.04 274.486C233.296 274.742 233.424 275.094 233.296 275.222C233.296 275.222 233.232 275.318 233.072 275.446C232.656 275.958 230.256 279.35 232.656 278.198C233.904 277.59 235.376 276.406 236.208 275.318C236.336 275.158 236.464 274.838 236.752 275.126C237.008 275.382 236.848 275.574 236.72 275.702C235.856 276.822 234.64 278.326 233.36 278.934C232.24 279.478 230.832 279.222 230.64 277.846C227.472 280.566 224.88 280.054 226.64 276.15C227.216 274.87 228.272 273.494 229.104 272.598ZM245.148 275.478C245.212 275.382 245.34 275.19 245.596 275.382C245.852 275.542 246.012 275.798 245.948 275.894C245.148 277.27 238.684 282.486 236.828 283.414C235.676 284.022 233.756 284.598 232.956 283.318C231.068 280.662 243.388 263.094 243.676 263.03C244.7 261.558 246.044 260.566 247.036 260.278C247.388 260.182 247.74 260.15 248.06 260.278C248.604 260.438 248.988 260.79 249.148 261.302C249.276 261.782 249.148 262.55 248.572 263.638C246.524 267.734 237.98 274.23 237.948 274.262C237.916 274.262 237.884 274.294 237.82 274.262C235.484 278.326 233.82 282.006 234.268 282.966C234.556 283.382 235.932 282.87 236.252 282.71C238.076 281.75 244.348 276.822 245.148 275.478ZM244.572 263.702C244.572 263.702 241.98 267.478 239.388 271.702C242.044 269.494 246.3 265.718 247.676 262.998C248.156 262.038 248.316 261.366 248.22 260.95C248.124 260.95 247.964 260.982 247.804 261.014C246.876 261.302 245.596 262.262 244.572 263.702ZM250.343 274.806C250.471 275.126 250.375 275.318 250.119 275.254C249.863 275.19 249.543 274.902 249.415 274.614C248.775 274.006 247.207 274.742 246.631 275.222C245.447 276.182 244.774 277.334 244.422 278.806C245.543 278.486 248.455 275.094 248.455 275.094C248.583 274.966 248.871 275.062 249.159 275.35C249.383 275.606 249.511 275.894 249.415 276.054C249.351 276.214 248.967 277.046 249.159 277.942C249.286 278.71 253.447 275.222 253.51 275.19C253.639 275.062 253.895 274.902 254.151 275.158C254.407 275.446 254.375 275.702 254.247 275.83C252.135 277.718 250.887 278.838 250.023 279.286C248.551 280.054 247.431 279.606 247.463 278.038C246.311 279.126 245.127 280.118 244.422 279.798C244.166 279.702 243.974 279.51 243.782 279.318C243.462 278.902 243.334 278.454 243.398 277.974C243.43 277.59 243.558 277.174 243.75 276.758C244.166 275.862 244.902 274.87 245.735 274.198C247.174 273.014 249.799 272.95 250.343 274.806ZM254.334 273.558C254.43 273.398 254.75 273.462 255.006 273.718C255.294 273.974 255.422 274.326 255.326 274.486L254.526 275.926C256.254 274.486 258.142 273.078 258.846 273.27H258.91C259.87 273.558 260.03 274.166 259.806 274.966C259.71 275.318 259.486 275.734 259.262 276.214C258.846 277.046 258.366 277.974 258.366 277.974C259.39 278.646 262.846 275.606 262.878 275.606C262.974 275.478 263.326 275.062 263.582 275.35C263.87 275.606 263.678 275.67 263.55 275.83C263.55 275.83 260.062 279.958 258.398 278.87C256.958 277.942 257.662 276.534 258.27 275.286C258.398 275.03 258.526 274.774 258.622 274.518C256.798 275.478 252.542 279.542 252.414 279.67C252.318 279.798 252.03 279.702 251.774 279.478C251.518 279.19 251.358 278.87 251.454 278.71L254.334 273.558ZM268.249 274.806C268.377 275.126 268.281 275.318 268.025 275.254C267.769 275.19 267.449 274.902 267.321 274.614C266.681 274.006 265.113 274.742 264.537 275.222C263.353 276.182 262.681 277.334 262.329 278.806C263.449 278.486 266.361 275.094 266.361 275.094C266.489 274.966 266.777 275.062 267.065 275.35C267.289 275.606 267.417 275.894 267.321 276.054C267.257 276.214 266.873 277.046 267.065 277.942C267.193 278.71 271.353 275.222 271.417 275.19C271.545 275.062 271.801 274.902 272.057 275.158C272.313 275.446 272.281 275.702 272.153 275.83C270.041 277.718 268.793 278.838 267.929 279.286C266.457 280.054 265.337 279.606 265.369 278.038C264.217 279.126 263.033 280.118 262.329 279.798C262.073 279.702 261.881 279.51 261.689 279.318C261.369 278.902 261.241 278.454 261.305 277.974C261.337 277.59 261.465 277.174 261.657 276.758C262.073 275.862 262.809 274.87 263.641 274.198C265.081 273.014 267.705 272.95 268.249 274.806Z" fill="black"/>
<path d="M359.296 280.966C358.421 280.966 357.984 280.348 357.984 279.11C357.984 277.724 358.656 275.58 360 272.678L363.072 266.342C363.627 265.126 363.904 264.39 363.904 264.134C363.904 264.006 363.861 263.942 363.776 263.942C363.349 263.942 362.176 265.148 360.256 267.558C359.531 268.476 358.901 269.297 358.368 270.022C357.835 270.748 357.397 271.356 357.056 271.846C356.139 273.212 355.392 274.428 354.816 275.494C354.24 276.561 353.813 277.5 353.536 278.31C353.237 279.121 352.864 279.526 352.416 279.526C352.075 279.526 351.904 279.377 351.904 279.078C351.925 279.164 352.416 277.66 353.376 274.566C354.549 270.79 355.136 268.092 355.136 266.47C355.136 265.83 355.029 265.51 354.816 265.51C354.645 265.51 354.347 265.734 353.92 266.182C353.301 266.844 352.651 267.654 351.968 268.614C351.285 269.574 350.613 270.609 349.952 271.718C349.312 272.806 348.725 273.894 348.192 274.982C347.659 276.049 347.232 277.03 346.912 277.926C346.827 278.161 346.763 278.364 346.72 278.534C346.677 278.705 346.656 278.844 346.656 278.95C346.656 279.057 346.72 279.164 346.848 279.27C346.955 279.334 347.008 279.388 347.008 279.43C347.008 279.601 346.848 279.772 346.528 279.942C346.208 280.113 345.963 280.198 345.792 280.198C345.387 280.198 345.184 280.006 345.184 279.622C345.184 279.302 345.557 278.118 346.304 276.07C346.475 275.644 346.677 275.11 346.912 274.47C347.168 273.809 347.456 273.052 347.776 272.198C348.352 270.598 348.64 269.02 348.64 267.462C348.64 266.289 348.405 265.425 347.936 264.87C347.488 264.316 346.688 264.038 345.536 264.038C344.491 264.038 343.467 264.294 342.464 264.806C341.483 265.318 340.597 266.001 339.808 266.854C339.04 267.708 338.421 268.657 337.952 269.702C337.504 270.726 337.28 271.772 337.28 272.838C337.28 273.841 337.525 274.716 338.016 275.462C338.571 276.273 339.339 276.678 340.32 276.678C341.28 276.678 342.123 276.454 342.848 276.006C343.701 275.473 344.128 274.758 344.128 273.862C344.128 273.585 344.043 273.308 343.872 273.03C343.701 272.796 343.616 272.689 343.616 272.71C343.616 272.561 343.712 272.486 343.904 272.486C344.224 272.486 344.48 272.646 344.672 272.966C344.885 273.265 344.992 273.585 344.992 273.926C344.992 274.95 344.512 275.804 343.552 276.486C342.699 277.084 341.728 277.382 340.64 277.382C339.744 277.382 338.955 277.169 338.272 276.742C337.611 276.294 337.088 275.708 336.704 274.982C336.341 274.257 336.16 273.446 336.16 272.55C336.16 270.246 337.28 267.964 339.52 265.702C340.203 265.02 341.184 264.433 342.464 263.942C343.659 263.494 344.789 263.27 345.856 263.27C348.544 263.27 349.888 264.678 349.888 267.494C349.888 268.113 349.824 268.764 349.696 269.446C349.589 270.129 349.419 270.833 349.184 271.558C349.632 270.705 350.144 269.83 350.72 268.934C351.317 268.038 351.979 267.121 352.704 266.182C353.643 264.988 354.539 264.39 355.392 264.39C356.117 264.39 356.48 264.956 356.48 266.086C356.48 267.132 355.936 269.596 354.848 273.478C356.171 271.004 358.261 268.241 361.12 265.19C362.443 263.804 363.499 263.11 364.288 263.11C364.885 263.11 365.184 263.473 365.184 264.198C365.184 264.945 364.821 265.937 364.096 267.174C363.051 268.966 362.069 270.908 361.152 272.998C359.957 275.75 359.36 277.798 359.36 279.142C359.36 279.676 359.499 279.942 359.776 279.942C359.968 279.942 360.288 279.857 360.736 279.686C361.184 279.516 361.504 279.43 361.696 279.43C361.909 279.43 362.016 279.494 362.016 279.622C362.016 279.921 361.632 280.23 360.864 280.55C360.224 280.828 359.701 280.966 359.296 280.966ZM366.319 279.462C366.127 279.462 366.031 279.324 366.031 279.046C366.031 278.321 366.426 276.966 367.215 274.982C366.746 275.836 366.202 276.7 365.583 277.574C364.687 278.812 363.994 279.43 363.503 279.43C362.821 279.43 362.479 278.95 362.479 277.99C362.479 276.988 362.927 275.676 363.823 274.054C364.229 273.308 364.847 272.518 365.679 271.686C366.661 270.705 367.482 270.214 368.143 270.214C368.677 270.214 368.943 270.428 368.943 270.854C368.943 271.025 368.89 271.249 368.783 271.526C368.698 271.804 368.591 271.942 368.463 271.942C368.442 271.942 368.378 271.846 368.271 271.654C368.165 271.484 368.047 271.398 367.919 271.398C367.471 271.398 366.863 271.836 366.095 272.71C365.007 273.948 364.25 275.174 363.823 276.39C363.503 277.244 363.343 277.926 363.343 278.438C363.343 278.737 363.418 278.886 363.567 278.886C363.909 278.886 364.698 277.958 365.935 276.102C366.533 275.228 367.013 274.502 367.375 273.926C367.738 273.329 367.973 272.892 368.079 272.614C368.143 272.444 368.314 272.23 368.591 271.974C368.89 271.697 369.114 271.558 369.263 271.558C369.349 271.558 369.391 271.622 369.391 271.75C369.391 271.878 369.327 272.102 369.199 272.422C367.834 275.75 367.151 277.681 367.151 278.214C367.151 278.406 367.194 278.502 367.279 278.502C367.343 278.502 367.546 278.332 367.887 277.99C368.229 277.649 368.442 277.478 368.527 277.478C368.613 277.478 368.655 277.542 368.655 277.67C368.655 277.841 368.495 278.076 368.175 278.374C367.877 278.652 367.535 278.908 367.151 279.142C366.789 279.356 366.511 279.462 366.319 279.462ZM374.182 279.494C374.011 279.494 373.926 279.366 373.926 279.11C373.926 278.108 374.704 276.006 376.262 272.806C374.896 274.726 373.947 276.028 373.414 276.71C371.942 278.524 370.779 279.43 369.926 279.43C369.648 279.43 369.51 279.292 369.51 279.014C369.51 278.438 370.363 276.23 372.07 272.39C372.155 272.22 372.272 271.964 372.422 271.622C372.571 271.281 372.752 270.876 372.966 270.406C373.2 269.958 373.595 269.734 374.15 269.734C374.299 269.734 374.374 269.798 374.374 269.926C374.374 270.182 373.787 271.473 372.614 273.798C371.419 276.145 370.822 277.564 370.822 278.054C370.822 278.204 370.864 278.289 370.95 278.31C371.142 278.31 371.718 277.745 372.678 276.614C373.019 276.209 373.318 275.846 373.574 275.526C373.851 275.185 374.086 274.876 374.278 274.598C374.32 274.513 374.416 274.364 374.566 274.15C374.715 273.916 374.896 273.617 375.11 273.254L376.486 271.014C376.827 270.46 377.158 270.054 377.478 269.798C377.798 269.521 378.075 269.382 378.31 269.382C378.544 269.382 378.662 269.478 378.662 269.67C378.662 269.884 378.075 271.238 376.902 273.734C375.707 276.294 375.11 277.884 375.11 278.502C375.11 278.588 375.12 278.63 375.142 278.63C375.163 278.63 375.408 278.417 375.878 277.99C376.304 277.585 376.603 277.382 376.774 277.382C376.816 277.425 376.838 277.468 376.838 277.51C376.838 277.638 376.731 277.82 376.518 278.054C376.304 278.268 376.038 278.492 375.718 278.726C375.419 278.94 375.12 279.121 374.822 279.27C374.544 279.42 374.331 279.494 374.182 279.494ZM378.845 279.43C378.183 279.43 377.853 279.11 377.853 278.47C377.853 277.638 378.386 275.782 379.453 272.902C380.306 270.641 381.095 268.678 381.821 267.014C382.567 265.329 383.271 263.932 383.933 262.822C385.191 260.71 386.311 259.654 387.293 259.654C387.549 259.654 387.751 259.697 387.901 259.782C388.242 259.932 388.413 260.465 388.413 261.382C388.413 261.937 388.274 262.214 387.997 262.214C387.933 262.214 387.879 262.001 387.837 261.574C387.773 261.148 387.602 260.934 387.325 260.934C386.109 260.934 384.295 263.782 381.885 269.478C379.901 274.172 378.909 277.201 378.909 278.566C378.909 278.737 378.941 278.822 379.005 278.822C379.239 278.822 379.794 278.417 380.669 277.606L381.917 276.422C381.959 276.422 381.981 276.454 381.981 276.518C381.981 276.774 381.863 277.073 381.629 277.414C381.415 277.734 381.138 278.054 380.797 278.374C380.477 278.673 380.135 278.929 379.773 279.142C379.41 279.334 379.101 279.43 378.845 279.43ZM386.351 279.462C386.159 279.462 386.062 279.324 386.062 279.046C386.062 278.321 386.457 276.966 387.247 274.982C386.777 275.836 386.233 276.7 385.615 277.574C384.719 278.812 384.025 279.43 383.535 279.43C382.852 279.43 382.511 278.95 382.511 277.99C382.511 276.988 382.959 275.676 383.855 274.054C384.26 273.308 384.879 272.518 385.711 271.686C386.692 270.705 387.513 270.214 388.175 270.214C388.708 270.214 388.975 270.428 388.975 270.854C388.975 271.025 388.921 271.249 388.815 271.526C388.729 271.804 388.623 271.942 388.495 271.942C388.473 271.942 388.409 271.846 388.303 271.654C388.196 271.484 388.079 271.398 387.951 271.398C387.503 271.398 386.895 271.836 386.127 272.71C385.039 273.948 384.281 275.174 383.855 276.39C383.535 277.244 383.375 277.926 383.375 278.438C383.375 278.737 383.449 278.886 383.599 278.886C383.94 278.886 384.729 277.958 385.967 276.102C386.564 275.228 387.044 274.502 387.407 273.926C387.769 273.329 388.004 272.892 388.111 272.614C388.175 272.444 388.345 272.23 388.623 271.974C388.921 271.697 389.145 271.558 389.295 271.558C389.38 271.558 389.423 271.622 389.423 271.75C389.423 271.878 389.359 272.102 389.231 272.422C387.865 275.75 387.183 277.681 387.183 278.214C387.183 278.406 387.225 278.502 387.311 278.502C387.375 278.502 387.577 278.332 387.919 277.99C388.26 277.649 388.473 277.478 388.559 277.478C388.644 277.478 388.687 277.542 388.687 277.67C388.687 277.841 388.527 278.076 388.207 278.374C387.908 278.652 387.567 278.908 387.183 279.142C386.82 279.356 386.543 279.462 386.351 279.462ZM389.285 279.526C389.072 279.526 388.965 279.43 388.965 279.238C388.965 279.089 389.253 278.428 389.829 277.254L391.397 273.99C391.738 273.286 391.994 272.657 392.165 272.102C392.336 271.526 392.464 271.036 392.549 270.63C392.592 270.332 392.762 270.033 393.061 269.734C393.36 269.414 393.648 269.254 393.925 269.254C394.117 269.254 394.213 269.372 394.213 269.606C394.213 269.926 393.36 271.889 391.653 275.494C392.784 273.788 393.648 272.572 394.245 271.846C395.589 270.225 396.688 269.414 397.541 269.414C397.861 269.414 398.021 269.521 398.021 269.734C398.021 270.268 397.52 271.59 396.517 273.702C395.493 275.772 394.981 276.998 394.981 277.382C394.981 277.446 395.002 277.5 395.045 277.542C395.088 277.585 395.109 277.638 395.109 277.702C395.109 277.83 395.002 278.076 394.789 278.438C394.597 278.801 394.437 279.036 394.309 279.142C394.096 279.313 393.893 279.398 393.701 279.398C393.402 279.398 393.253 279.281 393.253 279.046C393.253 278.513 393.829 277.116 394.981 274.854C396.112 272.55 396.677 271.206 396.677 270.822C396.677 270.673 396.634 270.598 396.549 270.598C396.101 270.598 394.949 271.836 393.093 274.31C392.581 274.993 392.122 275.676 391.717 276.358C391.312 277.02 390.96 277.681 390.661 278.342C390.32 279.132 389.861 279.526 389.285 279.526ZM401.226 279.462C401.034 279.462 400.938 279.324 400.938 279.046C400.938 278.321 401.332 276.966 402.122 274.982C401.652 275.836 401.108 276.7 400.49 277.574C399.594 278.812 398.9 279.43 398.41 279.43C397.727 279.43 397.386 278.95 397.386 277.99C397.386 276.988 397.834 275.676 398.73 274.054C399.135 273.308 399.754 272.518 400.586 271.686C401.567 270.705 402.388 270.214 403.05 270.214C403.583 270.214 403.85 270.428 403.85 270.854C403.85 271.025 403.796 271.249 403.69 271.526C403.604 271.804 403.498 271.942 403.37 271.942C403.348 271.942 403.284 271.846 403.178 271.654C403.071 271.484 402.954 271.398 402.826 271.398C402.378 271.398 401.77 271.836 401.002 272.71C399.914 273.948 399.156 275.174 398.73 276.39C398.41 277.244 398.25 277.926 398.25 278.438C398.25 278.737 398.324 278.886 398.474 278.886C398.815 278.886 399.604 277.958 400.842 276.102C401.439 275.228 401.919 274.502 402.282 273.926C402.644 273.329 402.879 272.892 402.986 272.614C403.05 272.444 403.22 272.23 403.498 271.974C403.796 271.697 404.02 271.558 404.17 271.558C404.255 271.558 404.298 271.622 404.298 271.75C404.298 271.878 404.234 272.102 404.106 272.422C402.74 275.75 402.058 277.681 402.058 278.214C402.058 278.406 402.1 278.502 402.186 278.502C402.25 278.502 402.452 278.332 402.794 277.99C403.135 277.649 403.348 277.478 403.434 277.478C403.519 277.478 403.562 277.542 403.562 277.67C403.562 277.841 403.402 278.076 403.082 278.374C402.783 278.652 402.442 278.908 402.058 279.142C401.695 279.356 401.418 279.462 401.226 279.462Z" fill="black"/>
<path d="M185.856 337.286C185.184 337.596 184.475 337.761 183.728 337.782C182.907 337.804 182.187 337.542 181.568 336.998C181.227 336.689 180.997 336.31 180.88 335.862C180.763 335.404 180.779 334.956 180.928 334.518C180.981 334.348 181.056 334.177 181.152 334.006C181.259 333.825 181.435 333.617 181.68 333.382C181.936 333.137 182.229 332.918 182.56 332.726C182.901 332.534 183.355 332.358 183.92 332.198C184.485 332.028 185.12 331.916 185.824 331.862C185.941 331.852 186.043 331.884 186.128 331.958C186.213 332.033 186.261 332.129 186.272 332.246C186.283 332.353 186.251 332.454 186.176 332.55C186.101 332.636 186.005 332.684 185.888 332.694C184.779 332.79 183.856 333.025 183.12 333.398C182.384 333.761 181.92 334.225 181.728 334.79C181.621 335.078 181.605 335.366 181.68 335.654C181.765 335.942 181.92 336.182 182.144 336.374C182.347 336.566 182.603 336.716 182.912 336.822C183.221 336.918 183.605 336.95 184.064 336.918C184.523 336.876 185.003 336.742 185.504 336.518C186.261 336.188 187.003 335.724 187.728 335.126C188.453 334.529 189.099 333.91 189.664 333.27C190.229 332.63 190.805 331.846 191.392 330.918C191.979 329.99 192.464 329.18 192.848 328.486C193.232 327.782 193.653 326.913 194.112 325.878C194.581 324.833 194.923 324.044 195.136 323.51C195.349 322.977 195.632 322.262 195.984 321.366L196 321.35C196.469 320.145 196.784 319.382 196.944 319.062C197.051 318.87 197.211 318.801 197.424 318.854C197.52 318.876 197.595 318.929 197.648 319.014C197.712 319.089 197.744 319.174 197.744 319.27C197.669 321.894 197.067 326.449 195.936 332.934C195.915 333.073 195.968 333.169 196.096 333.222C196.224 333.276 196.325 333.244 196.4 333.126C197.819 331.068 199.477 328.454 201.376 325.286C203.285 322.108 204.459 320.097 204.896 319.254C204.939 319.158 205.008 319.094 205.104 319.062C205.211 319.02 205.312 319.02 205.408 319.062C205.515 319.094 205.589 319.158 205.632 319.254C205.685 319.35 205.696 319.452 205.664 319.558C205.568 319.91 205.397 320.518 205.152 321.382C204.843 322.481 204.592 323.382 204.4 324.086C204.208 324.79 203.936 325.825 203.584 327.19C203.232 328.545 202.971 329.686 202.8 330.614C202.64 331.542 202.496 332.508 202.368 333.51C202.24 334.513 202.229 335.297 202.336 335.862C202.453 336.428 202.672 336.764 202.992 336.87C203.109 336.902 203.195 336.972 203.248 337.078C203.301 337.174 203.307 337.276 203.264 337.382C203.232 337.5 203.163 337.585 203.056 337.638C202.96 337.692 202.859 337.702 202.752 337.67C202.421 337.574 202.155 337.366 201.952 337.046C201.76 336.726 201.627 336.337 201.552 335.878C201.477 335.409 201.456 334.838 201.488 334.166C201.52 333.484 201.589 332.78 201.696 332.054C201.813 331.329 201.968 330.497 202.16 329.558C202.363 328.62 202.576 327.708 202.8 326.822C203.024 325.926 203.291 324.934 203.6 323.846C203.621 323.75 203.589 323.686 203.504 323.654C203.419 323.612 203.349 323.633 203.296 323.718C199.637 329.894 196.981 333.99 195.328 336.006C195.189 336.166 195.019 336.204 194.816 336.118C194.624 336.022 194.549 335.868 194.592 335.654C195.52 330.652 196.187 326.422 196.592 322.966C196.603 322.87 196.56 322.812 196.464 322.79C196.379 322.769 196.32 322.801 196.288 322.886C195.968 323.686 195.669 324.417 195.392 325.078C195.115 325.729 194.757 326.502 194.32 327.398C193.893 328.284 193.472 329.089 193.056 329.814C192.64 330.54 192.149 331.308 191.584 332.118C191.029 332.929 190.469 333.644 189.904 334.262C189.339 334.87 188.704 335.446 188 335.99C187.296 336.534 186.581 336.966 185.856 337.286ZM217.776 333.222C217.893 333.222 217.989 333.265 218.064 333.35C218.139 333.436 218.171 333.537 218.16 333.654C218.16 333.772 218.117 333.868 218.032 333.942C217.936 334.028 217.808 334.14 217.648 334.278C217.499 334.406 217.221 334.62 216.816 334.918C216.411 335.217 216 335.489 215.584 335.734C215.168 335.98 214.677 336.225 214.112 336.47C213.547 336.705 213.003 336.87 212.48 336.966C211.957 337.062 211.408 337.073 210.832 336.998C210.256 336.913 209.728 336.716 209.248 336.406C208.8 336.118 208.443 335.745 208.176 335.286C208.101 335.158 207.984 335.089 207.824 335.078C207.675 335.068 207.557 335.126 207.472 335.254C207.099 335.83 206.688 336.316 206.24 336.71C205.803 337.105 205.397 337.308 205.024 337.318H205.008C204.816 337.308 204.64 337.249 204.48 337.142C204.309 337.025 204.187 336.876 204.112 336.694C203.792 335.894 203.84 335.116 204.256 334.358C204.608 333.622 205.099 332.998 205.728 332.486C206.368 331.964 207.088 331.606 207.888 331.414C208.048 331.372 208.181 331.409 208.288 331.526C208.405 331.644 208.437 331.782 208.384 331.942C208.341 332.092 208.24 332.188 208.08 332.23C207.408 332.39 206.805 332.689 206.272 333.126C205.739 333.553 205.323 334.081 205.024 334.71C204.725 335.222 204.672 335.756 204.864 336.31C204.928 336.417 204.976 336.47 205.008 336.47C205.189 336.588 205.541 336.257 206.064 335.478C206.587 334.7 207.056 333.857 207.472 332.95C207.557 332.758 207.707 332.678 207.92 332.71C208.123 332.742 208.24 332.86 208.272 333.062C208.283 333.116 208.293 333.19 208.304 333.286C208.325 333.372 208.373 333.537 208.448 333.782C208.523 334.017 208.608 334.241 208.704 334.454C208.8 334.668 208.939 334.897 209.12 335.142C209.301 335.377 209.499 335.564 209.712 335.702C210.117 335.969 210.571 336.129 211.072 336.182C211.584 336.236 212.069 336.209 212.528 336.102C212.997 335.996 213.488 335.83 214 335.606C214.512 335.372 214.955 335.137 215.328 334.902C215.701 334.668 216.069 334.417 216.432 334.15C216.795 333.884 217.04 333.697 217.168 333.59C217.307 333.473 217.408 333.382 217.472 333.318C217.557 333.244 217.659 333.212 217.776 333.222ZM231.194 332.63C231.311 332.62 231.412 332.657 231.498 332.742C231.583 332.817 231.626 332.913 231.626 333.03C231.626 333.148 231.588 333.249 231.514 333.334C230.938 333.932 230.239 334.529 229.418 335.126C228.607 335.713 227.684 336.23 226.65 336.678C225.615 337.116 224.682 337.334 223.85 337.334H223.818C222.89 337.366 222.111 337.046 221.482 336.374C221.215 336.076 221.055 335.729 221.002 335.334C220.98 335.185 220.895 335.089 220.746 335.046C220.607 335.004 220.484 335.036 220.378 335.142C219.108 336.465 218.111 336.908 217.386 336.47C217.13 336.321 216.98 336.081 216.938 335.75C216.884 335.409 216.927 335.03 217.066 334.614C217.204 334.198 217.348 333.836 217.498 333.526C217.636 333.217 217.791 332.908 217.962 332.598C218.026 332.502 218.111 332.444 218.218 332.422C218.324 332.39 218.426 332.401 218.522 332.454C218.618 332.508 218.682 332.588 218.714 332.694C218.746 332.801 218.74 332.908 218.698 333.014C218.442 333.452 218.228 333.884 218.058 334.31C217.898 334.737 217.802 335.068 217.77 335.302C217.748 335.526 217.764 335.676 217.818 335.75C218.084 335.91 218.58 335.654 219.306 334.982C220.042 334.31 220.73 333.505 221.37 332.566C221.434 332.47 221.514 332.412 221.61 332.39C221.716 332.369 221.818 332.385 221.914 332.438C222.01 332.481 222.074 332.55 222.106 332.646C222.148 332.742 222.154 332.838 222.122 332.934C222.036 333.18 221.956 333.468 221.882 333.798C221.818 334.118 221.791 334.486 221.802 334.902C221.823 335.318 221.919 335.622 222.09 335.814C222.57 336.294 223.146 336.524 223.818 336.502H223.85C224.596 336.502 225.444 336.289 226.394 335.862C227.354 335.436 228.212 334.95 228.97 334.406C229.738 333.852 230.378 333.302 230.89 332.758C230.975 332.673 231.076 332.63 231.194 332.63ZM241.548 333.014C241.665 333.014 241.767 333.057 241.852 333.142C241.937 333.217 241.98 333.313 241.98 333.43C241.98 333.548 241.937 333.649 241.852 333.734C241.713 333.862 241.548 334.012 241.356 334.182C241.175 334.353 240.812 334.646 240.268 335.062C239.735 335.478 239.207 335.841 238.684 336.15C238.172 336.46 237.564 336.742 236.86 336.998C236.167 337.244 235.516 337.366 234.908 337.366C234.513 337.366 234.129 337.313 233.756 337.206C233.063 337.004 232.481 336.588 232.012 335.958C231.553 335.318 231.217 334.497 231.004 333.494C230.983 333.441 230.972 333.388 230.972 333.334C230.876 332.812 230.812 332.284 230.78 331.75C230.716 330.598 230.78 329.382 230.972 328.102C231.164 326.822 231.468 325.686 231.884 324.694C232.3 323.702 232.769 323.094 233.292 322.87C233.516 322.774 233.751 322.758 233.996 322.822C234.241 322.886 234.439 323.014 234.588 323.206C234.812 323.441 234.935 323.793 234.956 324.262C234.988 324.732 234.929 325.27 234.78 325.878C234.641 326.486 234.471 327.105 234.268 327.734C234.076 328.364 233.831 329.025 233.532 329.718C233.233 330.412 232.972 330.998 232.748 331.478C232.535 331.958 232.316 332.428 232.092 332.886C231.921 333.238 231.889 333.596 231.996 333.958C232.391 335.302 233.057 336.118 233.996 336.406C234.295 336.534 234.636 336.577 235.02 336.534C235.415 336.481 235.777 336.422 236.108 336.358C236.449 336.284 236.812 336.15 237.196 335.958C237.591 335.766 237.937 335.59 238.236 335.43C238.545 335.26 238.865 335.057 239.196 334.822C239.537 334.577 239.815 334.369 240.028 334.198C240.241 334.028 240.455 333.852 240.668 333.67C240.881 333.478 241.02 333.35 241.084 333.286C241.159 333.222 241.217 333.169 241.26 333.126C241.345 333.052 241.441 333.014 241.548 333.014ZM231.676 331.51C231.687 331.585 231.724 331.638 231.788 331.67C231.852 331.692 231.905 331.67 231.948 331.606C232.236 331.148 232.577 330.337 232.972 329.174C233.377 328.001 233.692 326.86 233.916 325.75C234.151 324.641 234.172 323.985 233.98 323.782C233.884 323.676 233.793 323.622 233.708 323.622C233.676 323.622 233.644 323.628 233.612 323.638C233.345 323.756 233.025 324.273 232.652 325.19C232.279 326.097 231.98 327.169 231.756 328.406C231.543 329.644 231.516 330.678 231.676 331.51ZM253.995 333.222C254.112 333.222 254.208 333.265 254.283 333.35C254.357 333.436 254.389 333.537 254.379 333.654C254.379 333.772 254.336 333.868 254.251 333.942C254.155 334.028 254.027 334.14 253.867 334.278C253.717 334.406 253.44 334.62 253.035 334.918C252.629 335.217 252.219 335.489 251.803 335.734C251.387 335.98 250.896 336.225 250.331 336.47C249.765 336.705 249.221 336.87 248.699 336.966C248.176 337.062 247.627 337.073 247.051 336.998C246.475 336.913 245.947 336.716 245.467 336.406C245.019 336.118 244.661 335.745 244.395 335.286C244.32 335.158 244.203 335.089 244.043 335.078C243.893 335.068 243.776 335.126 243.691 335.254C243.317 335.83 242.907 336.316 242.459 336.71C242.021 337.105 241.616 337.308 241.243 337.318H241.227C241.035 337.308 240.859 337.249 240.699 337.142C240.528 337.025 240.405 336.876 240.331 336.694C240.011 335.894 240.059 335.116 240.475 334.358C240.827 333.622 241.317 332.998 241.947 332.486C242.587 331.964 243.307 331.606 244.107 331.414C244.267 331.372 244.4 331.409 244.507 331.526C244.624 331.644 244.656 331.782 244.603 331.942C244.56 332.092 244.459 332.188 244.299 332.23C243.627 332.39 243.024 332.689 242.491 333.126C241.957 333.553 241.541 334.081 241.243 334.71C240.944 335.222 240.891 335.756 241.083 336.31C241.147 336.417 241.195 336.47 241.227 336.47C241.408 336.588 241.76 336.257 242.283 335.478C242.805 334.7 243.275 333.857 243.691 332.95C243.776 332.758 243.925 332.678 244.139 332.71C244.341 332.742 244.459 332.86 244.491 333.062C244.501 333.116 244.512 333.19 244.523 333.286C244.544 333.372 244.592 333.537 244.667 333.782C244.741 334.017 244.827 334.241 244.923 334.454C245.019 334.668 245.157 334.897 245.339 335.142C245.52 335.377 245.717 335.564 245.931 335.702C246.336 335.969 246.789 336.129 247.291 336.182C247.803 336.236 248.288 336.209 248.747 336.102C249.216 335.996 249.707 335.83 250.219 335.606C250.731 335.372 251.173 335.137 251.547 334.902C251.92 334.668 252.288 334.417 252.651 334.15C253.013 333.884 253.259 333.697 253.387 333.59C253.525 333.473 253.627 333.382 253.691 333.318C253.776 333.244 253.877 333.212 253.995 333.222ZM267.259 333.142C267.376 333.142 267.477 333.18 267.563 333.254C267.648 333.329 267.691 333.425 267.691 333.542C267.701 333.66 267.664 333.761 267.579 333.846C267.515 333.921 267.424 334.017 267.307 334.134C267.189 334.252 266.971 334.444 266.651 334.71C266.331 334.977 266.005 335.228 265.675 335.462C265.344 335.697 264.939 335.937 264.459 336.182C263.989 336.417 263.525 336.604 263.067 336.742C262.608 336.87 262.106 336.929 261.562 336.918C261.029 336.908 260.523 336.806 260.043 336.614C259.211 336.198 258.565 335.585 258.107 334.774C258.107 334.764 258.08 334.721 258.027 334.646C257.984 334.572 257.941 334.513 257.899 334.47C257.867 334.417 257.819 334.358 257.755 334.294C257.701 334.23 257.637 334.182 257.562 334.15C257.499 334.118 257.429 334.108 257.355 334.118C256.501 334.14 255.296 335.062 253.739 336.886C253.6 337.046 253.434 337.078 253.242 336.982C253.04 336.886 252.965 336.732 253.018 336.518L253.819 332.998C253.84 332.892 253.899 332.806 253.995 332.742C254.101 332.678 254.208 332.662 254.315 332.694C254.432 332.716 254.517 332.78 254.571 332.886C254.635 332.982 254.656 333.084 254.635 333.19L254.267 334.774C254.256 334.828 254.277 334.87 254.331 334.902C254.384 334.924 254.432 334.913 254.475 334.87C255.659 333.75 256.656 333.217 257.467 333.27C257.808 333.292 258.096 333.43 258.331 333.686C258.512 333.878 258.672 334.086 258.811 334.31C259.173 334.972 259.685 335.478 260.347 335.83C260.677 335.969 261.024 336.049 261.387 336.07C261.749 336.092 262.091 336.076 262.411 336.022C262.741 335.958 263.077 335.862 263.419 335.734C263.76 335.596 264.069 335.446 264.347 335.286C264.635 335.126 264.917 334.95 265.195 334.758C265.483 334.566 265.723 334.39 265.915 334.23C266.107 334.07 266.293 333.91 266.475 333.75C266.656 333.59 266.773 333.478 266.827 333.414C266.891 333.35 266.939 333.302 266.971 333.27C267.045 333.185 267.141 333.142 267.259 333.142ZM279.87 333.222C279.987 333.222 280.083 333.265 280.158 333.35C280.232 333.436 280.264 333.537 280.254 333.654C280.254 333.772 280.211 333.868 280.126 333.942C280.03 334.028 279.902 334.14 279.742 334.278C279.592 334.406 279.315 334.62 278.91 334.918C278.504 335.217 278.094 335.489 277.678 335.734C277.262 335.98 276.771 336.225 276.206 336.47C275.64 336.705 275.096 336.87 274.574 336.966C274.051 337.062 273.502 337.073 272.926 336.998C272.35 336.913 271.822 336.716 271.342 336.406C270.894 336.118 270.536 335.745 270.27 335.286C270.195 335.158 270.078 335.089 269.918 335.078C269.768 335.068 269.651 335.126 269.566 335.254C269.192 335.83 268.782 336.316 268.334 336.71C267.896 337.105 267.491 337.308 267.118 337.318H267.102C266.91 337.308 266.734 337.249 266.574 337.142C266.403 337.025 266.28 336.876 266.206 336.694C265.886 335.894 265.934 335.116 266.35 334.358C266.702 333.622 267.192 332.998 267.822 332.486C268.462 331.964 269.182 331.606 269.982 331.414C270.142 331.372 270.275 331.409 270.382 331.526C270.499 331.644 270.531 331.782 270.478 331.942C270.435 332.092 270.334 332.188 270.174 332.23C269.502 332.39 268.899 332.689 268.366 333.126C267.832 333.553 267.416 334.081 267.118 334.71C266.819 335.222 266.766 335.756 266.958 336.31C267.022 336.417 267.07 336.47 267.102 336.47C267.283 336.588 267.635 336.257 268.158 335.478C268.68 334.7 269.15 333.857 269.566 332.95C269.651 332.758 269.8 332.678 270.014 332.71C270.216 332.742 270.334 332.86 270.366 333.062C270.376 333.116 270.387 333.19 270.398 333.286C270.419 333.372 270.467 333.537 270.542 333.782C270.616 334.017 270.702 334.241 270.798 334.454C270.894 334.668 271.032 334.897 271.214 335.142C271.395 335.377 271.592 335.564 271.806 335.702C272.211 335.969 272.664 336.129 273.166 336.182C273.678 336.236 274.163 336.209 274.622 336.102C275.091 335.996 275.582 335.83 276.094 335.606C276.606 335.372 277.048 335.137 277.422 334.902C277.795 334.668 278.163 334.417 278.526 334.15C278.888 333.884 279.134 333.697 279.262 333.59C279.4 333.473 279.502 333.382 279.566 333.318C279.651 333.244 279.752 333.212 279.87 333.222Z" fill="black"/>
</g>
<rect x="60.2307" y="36.4688" width="226.539" height="185.539" rx="10.8439" fill="white"/>
<rect x="60.2307" y="36.4688" width="226.539" height="185.539" rx="10.8439" stroke="#D6D6D6" stroke-width="0.461441"/>
<path d="M75 58.6211C75 54.5436 78.3055 51.238 82.3831 51.238H124.383C128.461 51.238 131.766 54.5435 131.766 58.6211V70.6211H82.3831C78.3055 70.6211 75 67.3156 75 63.238V58.6211Z" fill="#0B3B7B"/>
<path d="M85.7064 63.9297C87.4672 63.9297 88.6799 62.6921 88.6799 60.9063C88.6799 59.0956 87.4423 57.858 85.6482 57.858H83.5219V63.9297H85.7064ZM85.5485 58.8381C86.8027 58.8381 87.5586 59.6189 87.5586 60.9063C87.5586 62.1688 86.8194 62.9496 85.6067 62.9496H84.5851V58.8381H85.5485ZM92.0956 59.8099C91.9295 59.7684 91.7883 59.7518 91.6471 59.7518C91.0989 59.7518 90.7085 60.0259 90.5341 60.4329L90.4759 59.8349H89.5207V63.9297H90.5341V61.9363C90.5341 61.1389 90.9909 60.7485 91.7218 60.7485H92.0956V59.8099ZM93.8402 64.0377C94.4798 64.0377 95.0363 63.747 95.2107 63.3234L95.2855 63.9297H96.1742V61.4379C96.1742 60.3 95.4931 59.702 94.3884 59.702C93.2754 59.702 92.5445 60.2834 92.5445 61.1721H93.4083C93.4083 60.7402 93.7405 60.491 94.3386 60.491C94.8535 60.491 95.1858 60.7153 95.1858 61.2718V61.3631L93.9565 61.4545C92.9847 61.5293 92.4365 62.0027 92.4365 62.7585C92.4365 63.531 92.9681 64.0377 93.8402 64.0377ZM94.1725 63.2735C93.7156 63.2735 93.4665 63.0908 93.4665 62.717C93.4665 62.3848 93.7073 62.1771 94.3386 62.119L95.1941 62.0525V62.2685C95.1941 62.8998 94.7954 63.2735 94.1725 63.2735ZM97.9534 63.9297H98.9418L99.5066 62.1688C99.7142 61.496 99.789 61.2053 99.8305 61.0143C99.8637 61.2219 99.9551 61.6123 100.121 62.1522L100.686 63.9297H101.633L103.053 59.8265H101.982L101.434 61.5874C101.359 61.8449 101.226 62.3349 101.159 62.6423C101.11 62.3682 100.943 61.7535 100.894 61.5874L100.345 59.8265H99.3155L98.7507 61.5874C98.6178 61.9944 98.5431 62.2519 98.4683 62.6506C98.3936 62.2685 98.3105 61.9113 98.2191 61.5874L97.6793 59.8265H96.6244L97.9534 63.9297ZM107.118 63.9297V61.3548H109.809V63.9297H110.872V57.858H109.809V60.3664H107.118V57.858H106.055V63.9297H107.118ZM113.906 64.0377C114.977 64.0377 115.725 63.4978 115.899 62.6007H114.961C114.844 62.9911 114.479 63.2071 113.922 63.2071C113.25 63.2071 112.867 62.8416 112.793 62.119L115.883 62.1107V61.8034C115.883 60.5242 115.102 59.702 113.872 59.702C112.668 59.702 111.829 60.5907 111.829 61.8781C111.829 63.1489 112.685 64.0377 113.906 64.0377ZM113.881 60.5326C114.487 60.5326 114.877 60.9063 114.877 61.4711H112.818C112.917 60.8565 113.283 60.5326 113.881 60.5326ZM119.268 59.8099C119.102 59.7684 118.961 59.7518 118.82 59.7518C118.272 59.7518 117.881 60.0259 117.707 60.4329L117.649 59.8349H116.694V63.9297H117.707V61.9363C117.707 61.1389 118.164 60.7485 118.895 60.7485H119.268V59.8099ZM121.652 64.0377C122.723 64.0377 123.471 63.4978 123.645 62.6007H122.707C122.591 62.9911 122.225 63.2071 121.669 63.2071C120.996 63.2071 120.614 62.8416 120.539 62.119L123.629 62.1107V61.8034C123.629 60.5242 122.848 59.702 121.619 59.702C120.414 59.702 119.575 60.5907 119.575 61.8781C119.575 63.1489 120.431 64.0377 121.652 64.0377ZM121.627 60.5326C122.233 60.5326 122.624 60.9063 122.624 61.4711H120.564C120.664 60.8565 121.029 60.5326 121.627 60.5326Z" fill="white"/>
<rect x="179.622" y="51.738" width="61.7661" height="18.3831" rx="3.69153" fill="#F4F9FF"/>
<path d="M189.745 63.4297C191.325 63.4297 192.389 62.3518 192.389 60.7644C192.389 59.1697 191.311 58.0917 189.716 58.0917H187.981V63.4297H189.745ZM189.664 58.7562C190.882 58.7562 191.636 59.524 191.636 60.7644C191.636 61.99 190.882 62.7578 189.694 62.7578H188.704V58.7562H189.664ZM195.258 59.7898C195.118 59.7603 195.015 59.7455 194.889 59.7455C194.394 59.7455 194.033 59.9966 193.885 60.3731L193.841 59.8268H193.191V63.4297H193.885V61.5175C193.885 60.8235 194.291 60.4248 194.948 60.4248H195.258V59.7898ZM196.821 63.5183C197.404 63.5183 197.899 63.2599 198.083 62.8464L198.157 63.4297H198.748V61.1631C198.748 60.1885 198.142 59.716 197.249 59.716C196.319 59.716 195.698 60.2107 195.698 60.9637H196.304C196.304 60.5281 196.636 60.2697 197.219 60.2697C197.707 60.2697 198.068 60.4838 198.068 61.0893V61.1926L196.931 61.2812C196.082 61.3477 195.588 61.7611 195.588 62.4256C195.588 63.0827 196.045 63.5183 196.821 63.5183ZM197.02 62.9793C196.57 62.9793 196.289 62.7874 196.289 62.4034C196.289 62.0491 196.54 61.8128 197.153 61.7537L198.076 61.6799V61.8719C198.076 62.5511 197.677 62.9793 197.02 62.9793ZM200.376 63.4297H201.063L201.69 61.5027C201.823 61.0671 201.889 60.8308 201.926 60.6537C201.963 60.853 202.037 61.1336 202.155 61.4953L202.783 63.4297H203.44L204.673 59.8194H203.949L203.344 61.6947C203.241 62.0121 203.174 62.2632 203.115 62.5511C203.056 62.2927 202.938 61.8719 202.879 61.6947L202.281 59.8194H201.572L200.967 61.6947C200.885 61.9309 200.789 62.2336 200.73 62.5511C200.664 62.2336 200.59 61.9605 200.509 61.6947L199.911 59.8194H199.195L200.376 63.4297ZM207.914 63.4297L207.966 62.7726C208.202 63.2673 208.682 63.5183 209.25 63.5183C210.299 63.5183 210.949 62.7357 210.949 61.643C210.949 60.5281 210.328 59.716 209.295 59.716C208.704 59.716 208.217 59.967 207.981 60.4395V57.9958H207.287V63.4297H207.914ZM207.988 61.6135C207.988 60.8751 208.416 60.3436 209.125 60.3436C209.834 60.3436 210.255 60.8751 210.255 61.6135C210.255 62.3591 209.834 62.8907 209.125 62.8907C208.416 62.8907 207.988 62.3665 207.988 61.6135ZM211.244 65.0466C211.429 65.0909 211.62 65.1204 211.849 65.1204C212.403 65.1204 212.765 64.862 213.008 64.2418L214.714 59.8194H213.998L212.927 62.7283L211.879 59.8194H211.148L212.602 63.6216L212.477 63.9687C212.307 64.4264 212.041 64.4781 211.709 64.4781H211.244V65.0466ZM217.981 63.4223V61.4584C217.981 60.8382 218.343 60.3509 219.014 60.3509C219.531 60.3509 219.878 60.6463 219.878 61.3772V63.4297H220.572V61.2222C220.572 60.2993 220.129 59.716 219.206 59.716C218.645 59.716 218.21 59.9818 217.981 60.3731V57.9958H217.287V63.4223H217.981ZM222.589 63.5183C223.173 63.5183 223.667 63.2599 223.852 62.8464L223.926 63.4297H224.516V61.1631C224.516 60.1885 223.911 59.716 223.018 59.716C222.087 59.716 221.467 60.2107 221.467 60.9637H222.073C222.073 60.5281 222.405 60.2697 222.988 60.2697C223.475 60.2697 223.837 60.4838 223.837 61.0893V61.1926L222.7 61.2812C221.851 61.3477 221.356 61.7611 221.356 62.4256C221.356 63.0827 221.814 63.5183 222.589 63.5183ZM222.789 62.9793C222.338 62.9793 222.058 62.7874 222.058 62.4034C222.058 62.0491 222.309 61.8128 222.922 61.7537L223.844 61.6799V61.8719C223.844 62.5511 223.446 62.9793 222.789 62.9793ZM226.171 63.4297V61.5175C226.171 60.8161 226.548 60.3509 227.198 60.3509C227.729 60.3509 228.069 60.6463 228.069 61.3772V63.4297H228.763V61.2222C228.763 60.2993 228.327 59.716 227.375 59.716C226.865 59.716 226.408 59.9596 226.179 60.3731L226.105 59.8194H225.477V63.4297H226.171ZM231.171 63.5183C231.747 63.5183 232.234 63.2673 232.471 62.7726L232.53 63.4297H233.15V57.9958H232.463V60.4026C232.22 59.9596 231.754 59.716 231.201 59.716C230.13 59.716 229.488 60.5281 229.488 61.6356C229.488 62.7357 230.123 63.5183 231.171 63.5183ZM231.312 62.8907C230.603 62.8907 230.189 62.3591 230.189 61.6135C230.189 60.8751 230.603 60.3436 231.312 60.3436C232.02 60.3436 232.456 60.8751 232.456 61.6135C232.456 62.3665 232.02 62.8907 231.312 62.8907Z" fill="#1777F7"/>
<path d="M250.756 58.7562H252.365V63.4297H253.089V58.7562H254.691V58.0917H250.756V58.7562ZM254.665 65.0466C254.849 65.0909 255.041 65.1204 255.27 65.1204C255.824 65.1204 256.185 64.862 256.429 64.2418L258.135 59.8194H257.418L256.348 62.7283L255.3 59.8194H254.569L256.023 63.6216L255.898 63.9687C255.728 64.4264 255.462 64.4781 255.13 64.4781H254.665V65.0466ZM258.689 65.0466H259.383V62.839C259.619 63.282 260.099 63.5257 260.675 63.5257C261.745 63.5257 262.351 62.6988 262.351 61.5987C262.351 60.4912 261.708 59.716 260.675 59.716C260.099 59.716 259.612 59.9744 259.368 60.4691L259.316 59.8194H258.689V65.0466ZM259.39 61.6282C259.39 60.8751 259.818 60.3509 260.527 60.3509C261.236 60.3509 261.657 60.8825 261.657 61.6282C261.657 62.3665 261.236 62.8981 260.527 62.8981C259.818 62.8981 259.39 62.3665 259.39 61.6282ZM264.673 63.5183C265.567 63.5183 266.172 63.0827 266.349 62.3075H265.7C265.582 62.7209 265.227 62.9424 264.688 62.9424C264.002 62.9424 263.603 62.5216 263.551 61.7611L266.342 61.7537V61.4953C266.342 60.4248 265.67 59.716 264.644 59.716C263.596 59.716 262.879 60.4986 262.879 61.6282C262.879 62.7504 263.61 63.5183 264.673 63.5183ZM264.644 60.2993C265.257 60.2993 265.648 60.698 265.648 61.296H263.566C263.655 60.661 264.039 60.2993 264.644 60.2993ZM269.476 58.9629C269.727 58.9629 269.933 58.7562 269.933 58.5052C269.933 58.2468 269.727 58.0474 269.476 58.0474C269.225 58.0474 269.018 58.2468 269.018 58.5052C269.018 58.7562 269.225 58.9629 269.476 58.9629ZM269.136 63.4297H269.83V59.8194H269.136V63.4297ZM271.532 63.4297V61.5175C271.532 60.8161 271.908 60.3509 272.558 60.3509C273.089 60.3509 273.429 60.6463 273.429 61.3772V63.4297H274.123V61.2222C274.123 60.2993 273.687 59.716 272.735 59.716C272.226 59.716 271.768 59.9596 271.539 60.3731L271.465 59.8194H270.838V63.4297H271.532Z" fill="#101010"/>
<g clip-path="url(#clip2_506_19669)">
<path fill-rule="evenodd" clip-rule="evenodd" d="M80.5373 190.238C77.4792 190.238 75 192.717 75 195.776C75 198.834 77.4792 201.313 80.5373 201.313C83.5954 201.313 86.0746 198.834 86.0746 195.776C86.0746 192.717 83.5954 190.238 80.5373 190.238ZM82.9375 194.839C82.9817 194.789 83.0153 194.73 83.0364 194.666C83.0575 194.602 83.0657 194.535 83.0604 194.468C83.0552 194.401 83.0366 194.336 83.0057 194.277C82.9749 194.217 82.9324 194.164 82.8809 194.121C82.8293 194.078 82.7697 194.046 82.7055 194.026C82.6412 194.007 82.5738 194 82.507 194.007C82.4402 194.014 82.3755 194.034 82.3167 194.066C82.2578 194.099 82.206 194.142 82.1643 194.195L79.9997 196.792L78.8796 195.671C78.7847 195.58 78.6575 195.529 78.5255 195.53C78.3936 195.531 78.2673 195.584 78.174 195.678C78.0806 195.771 78.0277 195.897 78.0265 196.029C78.0254 196.161 78.0761 196.288 78.1678 196.383L79.678 197.893C79.7275 197.943 79.7867 197.981 79.8519 198.007C79.9171 198.032 79.9868 198.043 80.0567 198.04C80.1266 198.037 80.195 198.019 80.2576 197.988C80.3203 197.957 80.3757 197.913 80.4205 197.86L82.9375 194.839Z" fill="#101010"/>
</g>
<circle cx="98.9953" cy="195.776" r="5.5373" fill="#1777F7"/>
<circle cx="117.452" cy="195.776" r="5.5373" fill="#26AA5E"/>
<circle cx="135.91" cy="195.776" r="5.5373" fill="#F86A1B"/>
<path d="M75 174.238L275 175.238" stroke="#C2C2C2" stroke-width="0.468504"/>
<path d="M107.242 129.814C107.482 130.294 107.386 130.63 107.05 130.582C106.666 130.534 106.186 130.15 105.946 129.718C105.466 128.806 105.322 127.75 105.418 126.694C105.658 124.726 106.81 122.422 108.442 120.358C110.026 118.246 112.138 116.374 114.346 115.222C116.026 114.31 117.754 113.83 119.386 114.022C119.914 114.07 120.346 114.262 120.778 114.598C122.218 115.75 122.602 118.054 122.17 120.982C121.786 123.574 120.874 126.838 119.626 130.294C119.194 131.59 118.666 132.934 118.138 134.23C122.89 128.47 127.786 123.142 130.666 121.318C132.682 120.022 134.074 120.454 135.034 121.942C136.282 123.958 135.61 128.566 134.986 132.79C134.554 135.622 134.17 138.262 134.122 139.174C134.794 138.79 135.994 137.59 137.53 135.862C139.498 133.654 141.946 130.582 144.586 127.078C146.266 124.87 147.994 122.518 149.674 120.07C152.41 112.87 155.77 105.862 158.65 100.63C161.722 95.014 164.41 91.366 165.418 91.318C166.426 91.27 167.002 91.894 167.05 93.238C167.194 97.03 159.274 109.99 151.21 121.462L150.826 122.518C145.402 137.206 142.618 152.566 151.114 155.686C151.546 155.83 151.978 156.31 152.122 156.742C152.266 157.174 152.074 157.414 151.642 157.27C142.234 153.814 143.146 140.518 147.418 126.742C146.938 127.318 146.506 127.942 146.074 128.518C143.386 132.07 140.938 135.142 138.97 137.35C136.954 139.606 135.466 140.95 134.746 140.998C134.506 140.998 134.218 140.902 133.93 140.71C132.25 139.414 132.826 135.67 133.402 131.638C134.026 127.654 134.65 123.334 133.834 122.086C133.738 121.894 133.21 122.134 132.01 122.902C128.17 125.302 120.778 133.99 114.922 141.574C112.138 147.334 109.21 152.182 107.242 153.862C106.858 154.198 106.57 154.342 106.378 154.39C104.362 154.774 104.218 153.622 105.562 151.318C106.138 150.31 107.098 148.822 108.346 147.046C109.738 145.03 111.514 142.63 113.434 140.134C115.162 136.582 116.794 132.694 118.09 128.998C119.29 125.59 120.202 122.326 120.586 119.782C120.922 117.574 120.922 116.086 120.538 115.75C120.49 115.702 120.394 115.702 120.25 115.702C118.81 115.51 117.226 115.942 115.642 116.806C113.53 117.958 111.466 119.782 109.882 121.798C108.298 123.814 107.194 126.022 107.002 127.846C106.906 128.662 106.954 129.334 107.242 129.814ZM155.002 112.246C159.898 104.902 163.978 97.894 165.13 94.102C163.93 95.59 162.154 98.374 160.138 102.022C158.506 104.998 156.73 108.454 155.002 112.246ZM160.186 137.59C160.378 138.07 160.234 138.358 159.85 138.262C159.466 138.166 158.986 137.734 158.794 137.302C157.834 136.39 155.482 137.494 154.618 138.214C152.842 139.654 151.834 141.382 151.306 143.59C152.986 143.11 157.354 138.022 157.354 138.022C157.546 137.83 157.978 137.974 158.41 138.406C158.746 138.79 158.938 139.222 158.794 139.462C158.698 139.702 158.122 140.95 158.41 142.294C158.602 143.446 164.842 138.214 164.938 138.166C165.13 137.974 165.514 137.734 165.898 138.118C166.282 138.55 166.234 138.934 166.042 139.126C162.874 141.958 161.002 143.638 159.706 144.31C157.498 145.462 155.818 144.79 155.866 142.438C154.138 144.07 152.362 145.558 151.306 145.078C150.922 144.934 150.634 144.646 150.346 144.358C149.866 143.734 149.674 143.062 149.77 142.342C149.818 141.766 150.01 141.142 150.298 140.518C150.922 139.174 152.026 137.686 153.274 136.678C155.434 134.902 159.37 134.806 160.186 137.59ZM167.421 134.278C167.613 134.086 168.093 134.278 168.477 134.662C168.861 135.094 169.005 135.574 168.861 135.814C165.213 139.99 164.925 142.87 165.261 143.158C165.837 143.638 169.533 141.286 172.125 136.918L172.269 136.726C172.461 136.534 172.941 136.678 173.325 137.11C173.709 137.494 173.901 138.022 173.709 138.214C173.709 138.214 173.613 138.358 173.373 138.55C172.749 139.318 169.149 144.406 172.749 142.678C174.621 141.766 176.829 139.99 178.077 138.358C178.269 138.118 178.461 137.638 178.893 138.07C179.277 138.454 179.037 138.742 178.845 138.934C177.549 140.614 175.725 142.87 173.805 143.782C172.125 144.598 170.013 144.214 169.725 142.15C164.973 146.23 161.085 145.462 163.725 139.606C164.589 137.686 166.173 135.622 167.421 134.278ZM191.488 138.598C191.584 138.454 191.776 138.166 192.16 138.454C192.544 138.694 192.784 139.078 192.688 139.222C191.488 141.286 181.792 149.11 179.008 150.502C177.28 151.414 174.4 152.278 173.2 150.358C170.368 146.374 188.848 120.022 189.28 119.926C190.816 117.718 192.832 116.23 194.32 115.798C194.848 115.654 195.376 115.606 195.856 115.798C196.672 116.038 197.248 116.566 197.488 117.334C197.68 118.054 197.488 119.206 196.624 120.838C193.552 126.982 180.736 136.726 180.688 136.774C180.64 136.774 180.592 136.822 180.496 136.774C176.992 142.87 174.496 148.39 175.168 149.83C175.6 150.454 177.664 149.686 178.144 149.446C180.88 148.006 190.288 140.614 191.488 138.598ZM190.624 120.934C190.624 120.934 186.736 126.598 182.848 132.934C186.832 129.622 193.216 123.958 195.28 119.878C196 118.438 196.24 117.43 196.096 116.806C195.952 116.806 195.712 116.854 195.472 116.902C194.08 117.334 192.16 118.774 190.624 120.934ZM199.279 137.59C199.471 138.07 199.327 138.358 198.943 138.262C198.559 138.166 198.079 137.734 197.887 137.302C196.927 136.39 194.575 137.494 193.711 138.214C191.935 139.654 190.927 141.382 190.399 143.59C192.079 143.11 196.447 138.022 196.447 138.022C196.639 137.83 197.071 137.974 197.503 138.406C197.839 138.79 198.031 139.222 197.887 139.462C197.791 139.702 197.215 140.95 197.503 142.294C197.695 143.446 203.935 138.214 204.031 138.166C204.223 137.974 204.607 137.734 204.991 138.118C205.375 138.55 205.327 138.934 205.135 139.126C201.967 141.958 200.095 143.638 198.799 144.31C196.591 145.462 194.911 144.79 194.959 142.438C193.231 144.07 191.455 145.558 190.399 145.078C190.015 144.934 189.727 144.646 189.439 144.358C188.959 143.734 188.767 143.062 188.863 142.342C188.911 141.766 189.103 141.142 189.391 140.518C190.015 139.174 191.119 137.686 192.367 136.678C194.527 134.902 198.463 134.806 199.279 137.59ZM205.267 135.718C205.411 135.478 205.891 135.574 206.275 135.958C206.707 136.342 206.899 136.87 206.755 137.11L205.555 139.27C208.147 137.11 210.979 134.998 212.035 135.286H212.131C213.571 135.718 213.811 136.63 213.475 137.83C213.331 138.358 212.995 138.982 212.659 139.702C212.035 140.95 211.315 142.342 211.315 142.342C212.851 143.35 218.035 138.79 218.083 138.79C218.227 138.598 218.755 137.974 219.139 138.406C219.571 138.79 219.283 138.886 219.091 139.126C219.091 139.126 213.859 145.318 211.363 143.686C209.203 142.294 210.259 140.182 211.171 138.31C211.363 137.926 211.555 137.542 211.699 137.158C208.963 138.598 202.579 144.694 202.387 144.886C202.243 145.078 201.811 144.934 201.427 144.598C201.043 144.166 200.803 143.686 200.947 143.446L205.267 135.718ZM226.139 137.59C226.331 138.07 226.187 138.358 225.803 138.262C225.419 138.166 224.939 137.734 224.747 137.302C223.787 136.39 221.435 137.494 220.571 138.214C218.795 139.654 217.787 141.382 217.259 143.59C218.939 143.11 223.307 138.022 223.307 138.022C223.499 137.83 223.931 137.974 224.363 138.406C224.699 138.79 224.891 139.222 224.747 139.462C224.651 139.702 224.075 140.95 224.363 142.294C224.555 143.446 230.795 138.214 230.891 138.166C231.083 137.974 231.467 137.734 231.851 138.118C232.235 138.55 232.187 138.934 231.995 139.126C228.827 141.958 226.955 143.638 225.659 144.31C223.451 145.462 221.771 144.79 221.819 142.438C220.091 144.07 218.315 145.558 217.259 145.078C216.875 144.934 216.587 144.646 216.299 144.358C215.819 143.734 215.627 143.062 215.723 142.342C215.771 141.766 215.963 141.142 216.251 140.518C216.875 139.174 217.979 137.686 219.227 136.678C221.387 134.902 225.323 134.806 226.139 137.59Z" fill="#606060"/>
<g filter="url(#filter0_d_506_19669)">
<rect x="395" y="40.238" width="56" height="56" rx="12" fill="#1777F7" shape-rendering="crispEdges"/>
<path d="M432 78.238H414C413.59 78.238 413.25 77.898 413.25 77.488C413.25 77.078 413.59 76.738 414 76.738H432C432.41 76.738 432.75 77.078 432.75 77.488C432.75 77.898 432.41 78.238 432 78.238Z" fill="white"/>
<path d="M430.02 59.718C428.08 57.778 426.18 57.728 424.19 59.718L422.98 60.928C422.88 61.028 422.84 61.188 422.88 61.328C423.64 63.978 425.76 66.0979 428.41 66.858C428.45 66.868 428.49 66.878 428.53 66.878C428.64 66.878 428.74 66.838 428.82 66.758L430.02 65.548C431.01 64.568 431.49 63.618 431.49 62.658C431.5 61.668 431.02 60.708 430.02 59.718Z" fill="white"/>
<path d="M426.61 67.7681C426.32 67.6281 426.04 67.4881 425.77 67.3281C425.55 67.1981 425.34 67.0581 425.13 66.9081C424.96 66.7981 424.76 66.6381 424.57 66.4781C424.55 66.4681 424.48 66.4081 424.4 66.3281C424.07 66.0481 423.7 65.6881 423.37 65.2881C423.34 65.2681 423.29 65.1981 423.22 65.1081C423.12 64.9881 422.95 64.7881 422.8 64.5581C422.68 64.4081 422.54 64.1881 422.41 63.9681C422.25 63.6981 422.11 63.4281 421.97 63.1481C421.949 63.1027 421.929 63.0575 421.909 63.0126C421.761 62.6793 421.327 62.5819 421.069 62.8396L415.34 68.5681C415.21 68.6981 415.09 68.9481 415.06 69.1181L414.52 72.9481C414.42 73.6281 414.61 74.2681 415.03 74.6981C415.39 75.0481 415.89 75.2381 416.43 75.2381C416.55 75.2381 416.67 75.2281 416.79 75.2081L420.63 74.6681C420.81 74.6381 421.06 74.5181 421.18 74.3881L426.902 68.6668C427.161 68.4072 427.063 67.9618 426.726 67.8177C426.688 67.8015 426.649 67.785 426.61 67.7681Z" fill="white"/>
</g>
</g>
<defs>
<filter id="filter0_d_506_19669" x="379" y="28.238" width="88" height="88" filterUnits="userSpaceOnUse" color-interpolation-filters="sRGB">
<feFlood flood-opacity="0" result="BackgroundImageFix"/>
<feColorMatrix in="SourceAlpha" type="matrix" values="0 0 0 0 0 0 0 0 0 0 0 0 0 0 0 0 0 0 127 0" result="hardAlpha"/>
<feOffset dy="4"/>
<feGaussianBlur stdDeviation="8"/>
<feComposite in2="hardAlpha" operator="out"/>
<feColorMatrix type="matrix" values="0 0 0 0 0 0 0 0 0 0 0 0 0 0 0 0 0 0 0.1 0"/>
<feBlend mode="normal" in2="BackgroundImageFix" result="effect1_dropShadow_506_19669"/>
<feBlend mode="normal" in="SourceGraphic" in2="effect1_dropShadow_506_19669" result="shape"/>
</filter>
<clipPath id="clip0_506_19669">
<rect y="0.238037" width="540" height="321" rx="16" fill="white"/>
</clipPath>
<clipPath id="clip1_506_19669">
<rect x="131" y="128.238" width="348" height="249" rx="12" fill="white"/>
</clipPath>
<clipPath id="clip2_506_19669">
<rect width="11.0746" height="11.0746" fill="white" transform="translate(75 190.238)"/>
</clipPath>
</defs>
</svg>
