<svg width="219" height="32" viewBox="0 0 219 32" fill="none" xmlns="http://www.w3.org/2000/svg">
<path d="M0.196119 30.398L19.2851 13.9968H29.2218C29.5486 13.9968 29.8101 14.3573 29.8101 14.8078C29.8101 15.1683 29.6794 15.3485 29.5486 15.4387L20.1349 23.1887C19.5465 23.7293 19.2851 24.7206 19.2851 25.4416V30.3078H31.2483V1.92121C31.2483 1.38051 30.9215 0.929932 30.4638 0.929932H19.0889L0 17.241V30.398H0.196119Z" fill="white"/>
<path d="M156.896 30.398H174.089V23.9997H162.321V18.6828H171.801V12.2846H162.321V7.32819H174.089V0.929932H156.896V30.398Z" fill="white"/>
<path d="M48.8991 0.929932L40.6621 30.398H46.2842L47.7224 24.9009H56.8746L58.2475 30.398H64.0657L55.8287 0.929932H48.8991ZM49.3567 18.5927L52.3639 7.05784L55.3057 18.5927H49.3567Z" fill="white"/>
<path d="M87.4687 7.32819H94.3329V30.398H99.7588V7.32819H106.623V0.929932H87.4033V7.32819H87.4687Z" fill="white"/>
<path d="M79.559 19.0433C79.559 22.8282 77.8593 24.4503 74.9175 24.4503C72.1065 24.4503 70.2761 22.8282 70.2761 19.0433V0.839844H64.8501V19.9445C64.8501 28.4154 70.3414 31.1189 74.9829 31.1189C79.559 31.1189 85.0504 28.5055 85.0504 19.9445V0.839844H79.6244L79.559 19.0433Z" fill="white"/>
<path d="M219 0.929932H212.528L204.748 12.9154V0.929932H199.322V30.398H204.748V19.2235L212.135 30.398H219L209.063 15.8892L219 0.929932Z" fill="white"/>
<path d="M144.082 0.929932H134.08V30.398H144.082C151.73 30.398 153.822 26.4328 153.822 15.4387C153.822 5.07528 151.796 0.929932 144.082 0.929932ZM143.82 23.9997H139.506V7.32819H143.82C147.22 7.32819 148.266 8.58982 148.266 15.4387C148.266 21.6567 147.154 23.9997 143.82 23.9997Z" fill="white"/>
<path d="M190.563 13.0055L185.594 12.1945C182.718 11.7439 181.933 10.7526 181.933 9.40087C181.933 7.8689 183.437 6.51715 186.313 6.51715C189.124 6.51715 190.563 7.95901 190.824 10.1218H196.185C195.923 3.9939 192.131 0.118896 186.64 0.118896C180.103 0.118896 176.769 3.72355 176.769 10.1218C176.769 15.2584 178.992 17.7817 183.502 18.4125L188.536 19.1334C190.432 19.4038 191.347 20.4852 191.347 21.7468C191.347 23.2788 190.04 24.6305 186.967 24.6305C183.371 24.6305 181.933 23.3689 181.737 20.8456H176.507C176.769 27.6044 179.972 31.1189 186.836 31.1189C193.112 31.1189 196.577 27.334 196.577 21.6567C196.511 16.6102 194.42 13.6363 190.563 13.0055Z" fill="white"/>
<path d="M119.305 0.118896C111.526 0.118896 107.538 6.69738 107.538 15.5288C107.538 24.4503 111.591 31.0288 119.305 31.0288C127.085 31.0288 131.138 24.4503 131.138 15.5288C131.138 6.69738 127.085 0.118896 119.305 0.118896ZM119.305 24.4503C115.252 24.4503 113.095 21.0259 113.095 15.5288C113.095 10.1218 115.317 6.69738 119.305 6.69738C123.358 6.69738 125.516 10.1218 125.516 15.5288C125.581 21.116 123.358 24.4503 119.305 24.4503Z" fill="white"/>
</svg>
