<svg width="459" height="345" viewBox="0 0 459 345" fill="none" xmlns="http://www.w3.org/2000/svg">
<g clip-path="url(#clip0_506_19838)">
<rect y="0.238281" width="459" height="344" rx="24" fill="#454C58"/>
<rect x="166.5" y="26.7383" width="195" height="235" rx="11.5" stroke="white" stroke-dasharray="5 5"/>
<g filter="url(#filter0_d_506_19838)">
<rect x="68" y="73.2383" width="196.084" height="299.822" rx="8" fill="white"/>
<rect x="82.5415" y="162.136" width="41.9751" height="47.6717" stroke="#C2C2C2" stroke-width="0.299822"/>
<rect x="124.816" y="162.136" width="41.9751" height="47.6717" stroke="#C2C2C2" stroke-width="0.299822"/>
<rect x="167.091" y="162.136" width="41.9751" height="47.6717" stroke="#C2C2C2" stroke-width="0.299822"/>
<rect x="209.366" y="162.136" width="41.9751" height="47.6717" stroke="#C2C2C2" stroke-width="0.299822"/>
<rect x="82.5415" y="210.107" width="41.9751" height="26.0845" stroke="#C2C2C2" stroke-width="0.299822"/>
<rect x="124.816" y="210.107" width="41.9751" height="26.0845" stroke="#C2C2C2" stroke-width="0.299822"/>
<rect x="167.091" y="210.107" width="41.9751" height="26.0845" stroke="#C2C2C2" stroke-width="0.299822"/>
<rect x="209.366" y="210.107" width="41.9751" height="26.0845" stroke="#C2C2C2" stroke-width="0.299822"/>
<rect x="82.5415" y="236.492" width="41.9751" height="26.0845" stroke="#C2C2C2" stroke-width="0.299822"/>
<rect x="124.816" y="236.492" width="41.9751" height="26.0845" stroke="#C2C2C2" stroke-width="0.299822"/>
<rect x="167.091" y="236.492" width="41.9751" height="26.0845" stroke="#C2C2C2" stroke-width="0.299822"/>
<rect x="209.366" y="236.492" width="41.9751" height="26.0845" stroke="#C2C2C2" stroke-width="0.299822"/>
<path d="M82.8126 93.9417C82.8126 95.1505 83.5141 95.9169 84.8525 96.2083L86.1046 96.4889C86.7522 96.6293 87.0221 96.9423 87.0221 97.4712C87.0221 98.1296 86.4392 98.5289 85.5217 98.5289C84.6367 98.5289 84.097 98.1296 84.0862 97.4604H82.7046C82.737 98.8743 83.8379 99.7702 85.5217 99.7702C87.2595 99.7702 88.4036 98.8204 88.4036 97.3524C88.4036 96.1759 87.7452 95.4851 86.396 95.1937L85.1548 94.9239C84.4964 94.7728 84.1941 94.4598 84.1941 93.8985C84.1941 93.2401 84.7446 92.8299 85.5973 92.8299C86.3744 92.8299 86.8601 93.2293 86.8925 93.9093H88.2741C88.2309 92.4845 87.2163 91.5994 85.6189 91.5994C83.9567 91.5994 82.8126 92.5601 82.8126 93.9417ZM89.1462 96.9531C89.1462 98.6153 90.3443 99.7594 91.9957 99.7594C93.6471 99.7594 94.8452 98.6153 94.8452 96.9531C94.8452 95.2909 93.6471 94.1467 91.9957 94.1467C90.3443 94.1467 89.1462 95.2909 89.1462 96.9531ZM90.463 96.9531C90.463 95.9816 91.089 95.3232 91.9957 95.3232C92.9024 95.3232 93.5284 95.9816 93.5284 96.9531C93.5284 97.9245 92.9024 98.5829 91.9957 98.5829C91.089 98.5829 90.463 97.9245 90.463 96.9531ZM95.339 94.2978V95.3988H96.1054V99.6299H97.4114V95.3988H99.6565V99.6299H100.973V95.3988H102.009V94.2978H100.973V92.6356H99.6565V94.2978H97.4114V93.6502C97.4114 93.1213 97.5625 92.7759 98.1562 92.7759H98.6203V91.6534C98.3936 91.6102 98.1454 91.5994 97.9403 91.5994C96.8609 91.5994 96.1054 92.2039 96.1054 93.6502V94.2978H95.339ZM104.001 99.6299H105.286L106.02 97.3416C106.289 96.4674 106.387 96.0896 106.441 95.8413C106.484 96.1112 106.602 96.6185 106.818 97.3201L107.552 99.6299H108.783L110.628 94.2978H109.236L108.524 96.5861C108.427 96.9207 108.254 97.5575 108.168 97.9569C108.103 97.6007 107.887 96.802 107.822 96.5861L107.11 94.2978H105.771L105.037 96.5861C104.865 97.115 104.768 97.4496 104.67 97.9677C104.573 97.4712 104.465 97.007 104.347 96.5861L103.645 94.2978H102.274L104.001 99.6299ZM112.749 99.7702C113.58 99.7702 114.303 99.3924 114.53 98.842L114.627 99.6299H115.782V96.3918C115.782 94.9131 114.897 94.1359 113.461 94.1359C112.015 94.1359 111.065 94.8915 111.065 96.0464H112.188C112.188 95.4851 112.619 95.1613 113.397 95.1613C114.066 95.1613 114.498 95.4528 114.498 96.1759V96.2947L112.9 96.4134C111.637 96.5105 110.925 97.1258 110.925 98.108C110.925 99.1118 111.616 99.7702 112.749 99.7702ZM113.181 98.7772C112.587 98.7772 112.263 98.5397 112.263 98.054C112.263 97.6223 112.576 97.3524 113.397 97.2769L114.508 97.1905V97.4712C114.508 98.2915 113.99 98.7772 113.181 98.7772ZM120.422 94.2763C120.206 94.2223 120.022 94.2007 119.839 94.2007C119.126 94.2007 118.619 94.5569 118.392 95.0858L118.317 94.3086H117.076V99.6299H118.392V97.0394C118.392 96.0032 118.986 95.4959 119.936 95.4959H120.422V94.2763ZM123.519 99.7702C124.912 99.7702 125.883 99.0686 126.11 97.9029H124.89C124.739 98.4102 124.264 98.6908 123.541 98.6908C122.666 98.6908 122.17 98.2159 122.073 97.2769L126.088 97.2661V96.8667C126.088 95.2045 125.073 94.1359 123.476 94.1359C121.911 94.1359 120.821 95.2909 120.821 96.9639C120.821 98.6153 121.932 99.7702 123.519 99.7702ZM123.487 95.2153C124.275 95.2153 124.782 95.701 124.782 96.435H122.105C122.235 95.6363 122.71 95.2153 123.487 95.2153ZM129.792 93.9417C129.792 95.1505 130.494 95.9169 131.832 96.2083L133.084 96.4889C133.732 96.6293 134.002 96.9423 134.002 97.4712C134.002 98.1296 133.419 98.5289 132.501 98.5289C131.616 98.5289 131.077 98.1296 131.066 97.4604H129.684C129.717 98.8743 130.817 99.7702 132.501 99.7702C134.239 99.7702 135.383 98.8204 135.383 97.3524C135.383 96.1759 134.725 95.4851 133.376 95.1937L132.134 94.9239C131.476 94.7728 131.174 94.4598 131.174 93.8985C131.174 93.2401 131.724 92.8299 132.577 92.8299C133.354 92.8299 133.84 93.2293 133.872 93.9093H135.254C135.21 92.4845 134.196 91.5994 132.598 91.5994C130.936 91.5994 129.792 92.5601 129.792 93.9417ZM138.824 99.7702C140.217 99.7702 141.188 99.0686 141.415 97.9029H140.195C140.044 98.4102 139.569 98.6908 138.846 98.6908C137.971 98.6908 137.475 98.2159 137.378 97.2769L141.393 97.2661V96.8667C141.393 95.2045 140.378 94.1359 138.781 94.1359C137.216 94.1359 136.126 95.2909 136.126 96.9639C136.126 98.6153 137.237 99.7702 138.824 99.7702ZM138.792 95.2153C139.58 95.2153 140.087 95.701 140.087 96.435H137.41C137.54 95.6363 138.015 95.2153 138.792 95.2153ZM145.793 94.2763C145.577 94.2223 145.394 94.2007 145.21 94.2007C144.498 94.2007 143.99 94.5569 143.764 95.0858L143.688 94.3086H142.447V99.6299H143.764V97.0394C143.764 96.0032 144.357 95.4959 145.307 95.4959H145.793V94.2763ZM148.353 99.6299H149.649L151.872 94.2978H150.512L149.541 96.748C149.314 97.3308 149.12 97.8921 149.044 98.2267C148.979 97.9353 148.796 97.3848 148.569 96.748L147.641 94.2978H146.238L148.353 99.6299ZM153.288 93.2293C153.719 93.2293 154.075 92.8731 154.075 92.4306C154.075 91.988 153.719 91.6426 153.288 91.6426C152.834 91.6426 152.478 91.988 152.478 92.4306C152.478 92.8731 152.834 93.2293 153.288 93.2293ZM152.629 99.6299H153.946V94.2978H152.629V99.6299ZM154.993 96.9531C154.993 98.6477 156.051 99.7702 157.67 99.7702C159.063 99.7702 160.099 98.9175 160.261 97.6762H158.933C158.793 98.2591 158.329 98.5829 157.67 98.5829C156.828 98.5829 156.31 97.9569 156.31 96.9531C156.31 95.9493 156.872 95.3124 157.713 95.3124C158.339 95.3124 158.782 95.6255 158.933 96.2299H160.25C160.11 94.9455 159.117 94.1359 157.659 94.1359C156.084 94.1359 154.993 95.3017 154.993 96.9531ZM163.626 99.7702C165.019 99.7702 165.99 99.0686 166.217 97.9029H164.997C164.846 98.4102 164.371 98.6908 163.648 98.6908C162.774 98.6908 162.277 98.2159 162.18 97.2769L166.195 97.2661V96.8667C166.195 95.2045 165.18 94.1359 163.583 94.1359C162.018 94.1359 160.928 95.2909 160.928 96.9639C160.928 98.6153 162.04 99.7702 163.626 99.7702ZM163.594 95.2153C164.382 95.2153 164.889 95.701 164.889 96.435H162.212C162.342 95.6363 162.817 95.2153 163.594 95.2153ZM173.472 96.9099C175.048 96.9099 176.084 95.8413 176.084 94.3194C176.084 92.7759 175.058 91.7398 173.472 91.7398H170.352V99.6299H171.734V96.9099H173.472ZM173.202 92.9702C174.119 92.9702 174.638 93.4452 174.638 94.3086C174.638 95.1721 174.13 95.6794 173.18 95.6794H171.734V92.9702H173.202ZM180.398 94.2763C180.182 94.2223 179.998 94.2007 179.815 94.2007C179.103 94.2007 178.595 94.5569 178.369 95.0858L178.293 94.3086H177.052V99.6299H178.369V97.0394C178.369 96.0032 178.962 95.4959 179.912 95.4959H180.398V94.2763ZM180.797 96.9531C180.797 98.6153 181.995 99.7594 183.646 99.7594C185.298 99.7594 186.496 98.6153 186.496 96.9531C186.496 95.2909 185.298 94.1467 183.646 94.1467C181.995 94.1467 180.797 95.2909 180.797 96.9531ZM182.114 96.9531C182.114 95.9816 182.74 95.3232 183.646 95.3232C184.553 95.3232 185.179 95.9816 185.179 96.9531C185.179 97.9245 184.553 98.5829 183.646 98.5829C182.74 98.5829 182.114 97.9245 182.114 96.9531ZM187.54 102.102H188.856V98.9175C189.191 99.4572 189.882 99.7702 190.681 99.7702C192.267 99.7702 193.174 98.5613 193.174 96.8991C193.174 95.2261 192.181 94.1359 190.681 94.1359C189.871 94.1359 189.17 94.4921 188.846 95.1074L188.759 94.2978H187.54V102.102ZM188.867 96.9639C188.867 96.0032 189.461 95.334 190.368 95.334C191.296 95.334 191.846 96.014 191.846 96.9639C191.846 97.9137 191.296 98.5829 190.368 98.5829C189.461 98.5829 188.867 97.9245 188.867 96.9639ZM193.909 96.9531C193.909 98.6153 195.108 99.7594 196.759 99.7594C198.41 99.7594 199.608 98.6153 199.608 96.9531C199.608 95.2909 198.41 94.1467 196.759 94.1467C195.108 94.1467 193.909 95.2909 193.909 96.9531ZM195.226 96.9531C195.226 95.9816 195.852 95.3232 196.759 95.3232C197.666 95.3232 198.292 95.9816 198.292 96.9531C198.292 97.9245 197.666 98.5829 196.759 98.5829C195.852 98.5829 195.226 97.9245 195.226 96.9531ZM200.242 98.0108C200.242 99.0578 201.084 99.7702 202.412 99.7702C203.728 99.7702 204.646 99.101 204.646 98.0216C204.646 97.2013 204.193 96.7912 203.297 96.5861L202.336 96.3594C201.883 96.2515 201.645 96.0572 201.645 95.755C201.645 95.3556 201.947 95.1182 202.466 95.1182C202.973 95.1182 203.275 95.4096 203.286 95.8629H204.538C204.527 94.8267 203.718 94.1359 202.52 94.1359C201.289 94.1359 200.404 94.762 200.404 95.809C200.404 96.6616 200.868 97.115 201.829 97.3308L202.789 97.5575C203.264 97.6654 203.405 97.8597 203.405 98.1296C203.405 98.5181 203.07 98.7664 202.455 98.7664C201.85 98.7664 201.505 98.475 201.494 98.0108H200.242ZM207.235 99.7702C208.066 99.7702 208.789 99.3924 209.016 98.842L209.113 99.6299H210.268V96.3918C210.268 94.9131 209.383 94.1359 207.948 94.1359C206.501 94.1359 205.551 94.8915 205.551 96.0464H206.674C206.674 95.4851 207.106 95.1613 207.883 95.1613C208.552 95.1613 208.984 95.4528 208.984 96.1759V96.2947L207.386 96.4134C206.123 96.5105 205.411 97.1258 205.411 98.108C205.411 99.1118 206.102 99.7702 207.235 99.7702ZM207.667 98.7772C207.073 98.7772 206.749 98.5397 206.749 98.054C206.749 97.6223 207.062 97.3524 207.883 97.2769L208.994 97.1905V97.4712C208.994 98.2915 208.476 98.7772 207.667 98.7772ZM212.889 99.6299V91.5994H211.583V99.6299H212.889Z" fill="black"/>
<rect width="90.5943" height="16" transform="translate(82.3916 109.217)" fill="#E7F0FC"/>
<path d="M89.4228 121.217V115.626L93.1357 121.217H94.4957V113.327H93.1357V118.918L89.4335 113.327H88.0628V121.217H89.4228ZM97.6347 121.357C98.4658 121.357 99.1889 120.979 99.4156 120.429L99.5127 121.217H100.668V117.979C100.668 116.5 99.7826 115.723 98.347 115.723C96.9007 115.723 95.9509 116.478 95.9509 117.633H97.0734C97.0734 117.072 97.5051 116.748 98.2823 116.748C98.9515 116.748 99.3832 117.04 99.3832 117.763V117.882L97.7858 118C96.5229 118.097 95.8105 118.713 95.8105 119.695C95.8105 120.699 96.5013 121.357 97.6347 121.357ZM98.0664 120.364C97.4727 120.364 97.1489 120.127 97.1489 119.641C97.1489 119.209 97.462 118.939 98.2823 118.864L99.394 118.777V119.058C99.394 119.878 98.8759 120.364 98.0664 120.364ZM103.278 121.217V118.195C103.278 117.331 103.785 116.921 104.411 116.921C105.037 116.921 105.437 117.32 105.437 118.065V121.217H106.754V118.195C106.754 117.32 107.239 116.91 107.876 116.91C108.502 116.91 108.912 117.31 108.912 118.076V121.217H110.218V117.73C110.218 116.5 109.506 115.723 108.211 115.723C107.401 115.723 106.775 116.122 106.505 116.737C106.225 116.122 105.663 115.723 104.854 115.723C104.088 115.723 103.548 116.068 103.278 116.511L103.17 115.885H101.961V121.217H103.278ZM113.896 121.357C115.289 121.357 116.26 120.656 116.487 119.49H115.267C115.116 119.997 114.641 120.278 113.918 120.278C113.044 120.278 112.547 119.803 112.45 118.864L116.465 118.853V118.454C116.465 116.791 115.451 115.723 113.853 115.723C112.288 115.723 111.198 116.878 111.198 118.551C111.198 120.202 112.31 121.357 113.896 121.357ZM113.864 116.802C114.652 116.802 115.159 117.288 115.159 118.022H112.483C112.612 117.223 113.087 116.802 113.864 116.802ZM118.078 121.346C118.552 121.346 118.952 120.958 118.952 120.494C118.952 120.019 118.552 119.63 118.078 119.63C117.603 119.63 117.203 120.019 117.203 120.494C117.203 120.958 117.603 121.346 118.078 121.346ZM123.378 121.346C125.246 121.346 126.692 120.245 126.994 118.583H125.559C125.299 119.457 124.479 120.019 123.411 120.019C121.964 120.019 121.036 118.939 121.036 117.266C121.036 115.583 121.953 114.525 123.411 114.525C124.458 114.525 125.246 115.064 125.515 115.982H126.972C126.703 114.287 125.31 113.197 123.443 113.197C121.133 113.197 119.59 114.827 119.59 117.277C119.59 119.749 121.079 121.346 123.378 121.346ZM127.726 118.54C127.726 120.202 128.924 121.346 130.575 121.346C132.227 121.346 133.425 120.202 133.425 118.54C133.425 116.878 132.227 115.734 130.575 115.734C128.924 115.734 127.726 116.878 127.726 118.54ZM129.043 118.54C129.043 117.569 129.669 116.91 130.575 116.91C131.482 116.91 132.108 117.569 132.108 118.54C132.108 119.511 131.482 120.17 130.575 120.17C129.669 120.17 129.043 119.511 129.043 118.54ZM135.785 121.217V118.195C135.785 117.331 136.293 116.921 136.919 116.921C137.545 116.921 137.944 117.32 137.944 118.065V121.217H139.261V118.195C139.261 117.32 139.747 116.91 140.383 116.91C141.009 116.91 141.42 117.31 141.42 118.076V121.217H142.726V117.73C142.726 116.5 142.013 115.723 140.718 115.723C139.909 115.723 139.282 116.122 139.013 116.737C138.732 116.122 138.171 115.723 137.361 115.723C136.595 115.723 136.055 116.068 135.785 116.511L135.677 115.885H134.469V121.217H135.785ZM144.018 123.689H145.335V120.504C145.67 121.044 146.361 121.357 147.159 121.357C148.746 121.357 149.653 120.148 149.653 118.486C149.653 116.813 148.66 115.723 147.159 115.723C146.35 115.723 145.648 116.079 145.324 116.694L145.238 115.885H144.018V123.689ZM145.346 118.551C145.346 117.59 145.94 116.921 146.846 116.921C147.775 116.921 148.325 117.601 148.325 118.551C148.325 119.501 147.775 120.17 146.846 120.17C145.94 120.17 145.346 119.511 145.346 118.551ZM152.288 121.357C153.119 121.357 153.842 120.979 154.069 120.429L154.166 121.217H155.321V117.979C155.321 116.5 154.436 115.723 153 115.723C151.554 115.723 150.604 116.478 150.604 117.633H151.726C151.726 117.072 152.158 116.748 152.935 116.748C153.605 116.748 154.036 117.04 154.036 117.763V117.882L152.439 118C151.176 118.097 150.464 118.713 150.464 119.695C150.464 120.699 151.154 121.357 152.288 121.357ZM152.72 120.364C152.126 120.364 151.802 120.127 151.802 119.641C151.802 119.209 152.115 118.939 152.935 118.864L154.047 118.777V119.058C154.047 119.878 153.529 120.364 152.72 120.364ZM157.931 121.217V118.346C157.931 117.482 158.428 116.921 159.237 116.921C159.917 116.921 160.36 117.353 160.36 118.249V121.217H161.677V117.936C161.677 116.554 160.986 115.723 159.647 115.723C158.924 115.723 158.277 116.036 157.942 116.576L157.834 115.885H156.614V121.217H157.931ZM162.401 123.689C162.692 123.764 163.016 123.807 163.383 123.807C164.257 123.807 164.819 123.397 165.218 122.404L167.83 115.885H166.47L165.024 119.77L163.653 115.885H162.261L164.408 121.443L164.257 121.843C164.031 122.469 163.707 122.588 163.189 122.588H162.401V123.689Z" fill="#1777F7"/>
<rect x="82.3916" y="130.804" width="169.1" height="18.589" fill="#EDEDED"/>
<rect x="82.3916" y="161.986" width="169.1" height="14.3915" fill="#E7F0FC"/>
<path d="M82.6722 279.526C82.6722 280.332 83.14 280.843 84.0322 281.037L84.8669 281.224C85.2987 281.318 85.4786 281.527 85.4786 281.879C85.4786 282.318 85.09 282.584 84.4784 282.584C83.8883 282.584 83.5285 282.318 83.5213 281.872H82.6003C82.6219 282.815 83.3558 283.412 84.4784 283.412C85.6369 283.412 86.3996 282.779 86.3996 281.8C86.3996 281.016 85.9607 280.555 85.0612 280.361L84.2337 280.181C83.7948 280.08 83.5933 279.872 83.5933 279.497C83.5933 279.058 83.9603 278.785 84.5287 278.785C85.0468 278.785 85.3706 279.051 85.3922 279.505H86.3133C86.2845 278.555 85.6081 277.965 84.5431 277.965C83.435 277.965 82.6722 278.605 82.6722 279.526ZM88.6936 283.412C89.6218 283.412 90.2695 282.944 90.4206 282.167H89.6075C89.5067 282.505 89.1901 282.692 88.708 282.692C88.1251 282.692 87.7941 282.376 87.7294 281.75L90.4062 281.742V281.476C90.4062 280.368 89.7298 279.656 88.6648 279.656C87.6214 279.656 86.8947 280.426 86.8947 281.541C86.8947 282.642 87.6358 283.412 88.6936 283.412ZM88.672 280.375C89.1973 280.375 89.5355 280.699 89.5355 281.188H87.751C87.8373 280.656 88.1539 280.375 88.672 280.375ZM91.9867 283.318V281.404C91.9867 280.829 92.3177 280.454 92.8573 280.454C93.3107 280.454 93.6057 280.742 93.6057 281.34V283.318H94.4836V281.131C94.4836 280.21 94.023 279.656 93.1308 279.656C92.6487 279.656 92.2169 279.864 91.9939 280.224L91.9219 279.764H91.1088V283.318H91.9867ZM96.8068 283.412C97.3465 283.412 97.807 283.174 98.0229 282.764L98.0805 283.318H98.8864V277.965H98.0157V280.217C97.7927 279.864 97.3537 279.656 96.8572 279.656C95.785 279.656 95.1374 280.447 95.1374 281.555C95.1374 282.656 95.7779 283.412 96.8068 283.412ZM97.0011 282.606C96.3895 282.606 96.0153 282.16 96.0153 281.527C96.0153 280.893 96.3895 280.44 97.0011 280.44C97.6128 280.44 98.0085 280.886 98.0085 281.527C98.0085 282.167 97.6128 282.606 97.0011 282.606ZM101.392 283.412C102.32 283.412 102.967 282.944 103.119 282.167H102.305C102.205 282.505 101.888 282.692 101.406 282.692C100.823 282.692 100.492 282.376 100.427 281.75L103.104 281.742V281.476C103.104 280.368 102.428 279.656 101.363 279.656C100.319 279.656 99.5926 280.426 99.5926 281.541C99.5926 282.642 100.334 283.412 101.392 283.412ZM101.37 280.375C101.895 280.375 102.233 280.699 102.233 281.188H100.449C100.535 280.656 100.852 280.375 101.37 280.375ZM106.037 279.749C105.893 279.713 105.771 279.699 105.649 279.699C105.174 279.699 104.836 279.936 104.685 280.289L104.634 279.771H103.807V283.318H104.685V281.591C104.685 280.901 105.08 280.562 105.714 280.562H106.037V279.749ZM110.924 283.405C112.169 283.405 113.133 282.671 113.335 281.563H112.378C112.205 282.145 111.658 282.52 110.946 282.52C109.981 282.52 109.363 281.8 109.363 280.685C109.363 279.562 109.974 278.857 110.946 278.857C111.644 278.857 112.169 279.217 112.349 279.828H113.32C113.14 278.699 112.212 277.972 110.967 277.972C109.427 277.972 108.398 279.058 108.398 280.692C108.398 282.34 109.391 283.405 110.924 283.405ZM113.822 281.534C113.822 282.642 114.621 283.405 115.722 283.405C116.823 283.405 117.622 282.642 117.622 281.534C117.622 280.426 116.823 279.663 115.722 279.663C114.621 279.663 113.822 280.426 113.822 281.534ZM114.7 281.534C114.7 280.886 115.118 280.447 115.722 280.447C116.327 280.447 116.744 280.886 116.744 281.534C116.744 282.181 116.327 282.62 115.722 282.62C115.118 282.62 114.7 282.181 114.7 281.534ZM119.196 283.318V281.304C119.196 280.728 119.534 280.454 119.951 280.454C120.368 280.454 120.635 280.721 120.635 281.217V283.318H121.513V281.304C121.513 280.721 121.836 280.447 122.261 280.447C122.678 280.447 122.952 280.714 122.952 281.224V283.318H123.822V280.994C123.822 280.174 123.347 279.656 122.484 279.656C121.944 279.656 121.527 279.922 121.347 280.332C121.16 279.922 120.786 279.656 120.246 279.656C119.735 279.656 119.375 279.886 119.196 280.181L119.124 279.764H118.318V283.318H119.196ZM124.684 284.966H125.562V282.843C125.785 283.203 126.246 283.412 126.778 283.412C127.836 283.412 128.44 282.606 128.44 281.498C128.44 280.383 127.778 279.656 126.778 279.656C126.238 279.656 125.771 279.893 125.555 280.303L125.497 279.764H124.684V284.966ZM125.569 281.541C125.569 280.901 125.965 280.454 126.569 280.454C127.188 280.454 127.555 280.908 127.555 281.541C127.555 282.174 127.188 282.62 126.569 282.62C125.965 282.62 125.569 282.181 125.569 281.541ZM130.197 283.412C130.751 283.412 131.233 283.16 131.384 282.793L131.449 283.318H132.219V281.16C132.219 280.174 131.629 279.656 130.672 279.656C129.708 279.656 129.075 280.159 129.075 280.929H129.823C129.823 280.555 130.111 280.339 130.629 280.339C131.075 280.339 131.363 280.534 131.363 281.016V281.095L130.298 281.174C129.456 281.239 128.981 281.649 128.981 282.304C128.981 282.973 129.442 283.412 130.197 283.412ZM130.485 282.75C130.089 282.75 129.873 282.592 129.873 282.268C129.873 281.98 130.082 281.8 130.629 281.75L131.37 281.692V281.879C131.37 282.426 131.025 282.75 130.485 282.75ZM133.959 283.318V281.404C133.959 280.829 134.29 280.454 134.83 280.454C135.283 280.454 135.578 280.742 135.578 281.34V283.318H136.456V281.131C136.456 280.21 135.996 279.656 135.104 279.656C134.621 279.656 134.19 279.864 133.967 280.224L133.895 279.764H133.082V283.318H133.959ZM136.939 284.966C137.133 285.017 137.349 285.045 137.594 285.045C138.177 285.045 138.551 284.772 138.817 284.11L140.559 279.764H139.652L138.688 282.354L137.774 279.764H136.846L138.278 283.469L138.177 283.736C138.026 284.153 137.81 284.232 137.464 284.232H136.939V284.966Z" fill="black"/>
<rect x="82.6914" y="292.408" width="83.3505" height="39.5765" fill="#E7F0FC"/>
<rect x="82.6914" y="292.408" width="83.3505" height="39.5765" stroke="#1777F7" stroke-width="0.599644"/>
<path d="M106.472 308.838L103.19 312.312C103.066 312.444 102.946 312.704 102.922 312.884L102.774 314.179C102.722 314.647 103.058 314.966 103.521 314.886L104.809 314.667C104.989 314.635 105.24 314.503 105.364 314.367L108.646 310.893C109.214 310.293 109.47 309.61 108.586 308.774C107.707 307.947 107.039 308.238 106.472 308.838Z" stroke="#1777F7" stroke-width="0.899466" stroke-miterlimit="10" stroke-linecap="round" stroke-linejoin="round"/>
<path d="M105.924 309.418C106.096 310.521 106.991 311.365 108.103 311.477" stroke="#1777F7" stroke-width="0.899466" stroke-miterlimit="10" stroke-linecap="round" stroke-linejoin="round"/>
<path d="M102.37 316.194H109.566" stroke="#1777F7" stroke-width="0.899466" stroke-miterlimit="10" stroke-linecap="round" stroke-linejoin="round"/>
<path d="M115.843 310.904C115.843 311.71 116.311 312.221 117.203 312.415L118.038 312.602C118.47 312.696 118.649 312.905 118.649 313.257C118.649 313.696 118.261 313.962 117.649 313.962C117.059 313.962 116.699 313.696 116.692 313.25H115.771C115.793 314.193 116.527 314.79 117.649 314.79C118.808 314.79 119.571 314.157 119.571 313.178C119.571 312.394 119.132 311.933 118.232 311.739L117.405 311.559C116.966 311.458 116.764 311.25 116.764 310.875C116.764 310.436 117.131 310.163 117.7 310.163C118.218 310.163 118.542 310.429 118.563 310.883H119.484C119.455 309.933 118.779 309.343 117.714 309.343C116.606 309.343 115.843 309.983 115.843 310.904ZM120.713 310.429C121.001 310.429 121.238 310.192 121.238 309.897C121.238 309.602 121.001 309.371 120.713 309.371C120.411 309.371 120.174 309.602 120.174 309.897C120.174 310.192 120.411 310.429 120.713 310.429ZM120.274 314.696H121.152V311.142H120.274V314.696ZM121.858 312.84C121.858 313.869 122.52 314.624 123.527 314.624C124.038 314.624 124.477 314.416 124.7 314.085V314.675C124.7 315.265 124.311 315.646 123.707 315.646C123.167 315.646 122.815 315.373 122.757 314.912H121.879C121.987 315.862 122.685 316.445 123.707 316.445C124.858 316.445 125.571 315.704 125.571 314.516V311.142H124.758L124.707 311.631C124.498 311.25 124.081 311.026 123.549 311.026C122.534 311.026 121.858 311.804 121.858 312.84ZM122.743 312.818C122.743 312.235 123.117 311.796 123.7 311.796C124.311 311.796 124.678 312.214 124.678 312.818C124.678 313.437 124.304 313.862 123.7 313.862C123.124 313.862 122.743 313.415 122.743 312.818ZM127.357 314.696V312.782C127.357 312.207 127.688 311.832 128.228 311.832C128.681 311.832 128.976 312.12 128.976 312.717V314.696H129.854V312.509C129.854 311.588 129.393 311.034 128.501 311.034C128.019 311.034 127.587 311.242 127.364 311.602L127.292 311.142H126.479V314.696H127.357ZM131.774 314.79C132.328 314.79 132.81 314.538 132.962 314.171L133.026 314.696H133.796V312.538C133.796 311.552 133.206 311.034 132.249 311.034C131.285 311.034 130.652 311.537 130.652 312.307H131.4C131.4 311.933 131.688 311.717 132.206 311.717C132.652 311.717 132.94 311.912 132.94 312.394V312.473L131.875 312.552C131.033 312.617 130.558 313.027 130.558 313.682C130.558 314.351 131.019 314.79 131.774 314.79ZM132.062 314.128C131.666 314.128 131.45 313.97 131.45 313.646C131.45 313.358 131.659 313.178 132.206 313.128L132.947 313.07V313.257C132.947 313.804 132.602 314.128 132.062 314.128ZM135.818 314.696V311.876H136.509V311.142H135.818V310.033H134.94V311.142H134.257V311.876H134.94V314.696H135.818ZM139.465 311.142V313.005C139.465 313.682 139.199 314.005 138.645 314.005C138.156 314.005 137.89 313.732 137.89 313.056V311.142H137.012V313.365C137.012 314.236 137.494 314.79 138.314 314.79C138.789 314.79 139.25 314.56 139.465 314.221L139.53 314.696H140.343V311.142H139.465ZM143.481 311.127C143.337 311.091 143.215 311.077 143.092 311.077C142.617 311.077 142.279 311.314 142.128 311.667L142.078 311.149H141.25V314.696H142.128V312.969C142.128 312.279 142.524 311.94 143.157 311.94H143.481V311.127ZM145.546 314.79C146.474 314.79 147.122 314.322 147.273 313.545H146.46C146.359 313.883 146.042 314.07 145.56 314.07C144.977 314.07 144.646 313.754 144.582 313.128L147.258 313.12V312.854C147.258 311.746 146.582 311.034 145.517 311.034C144.474 311.034 143.747 311.804 143.747 312.919C143.747 314.02 144.488 314.79 145.546 314.79ZM145.524 311.753C146.049 311.753 146.388 312.077 146.388 312.566H144.603C144.689 312.034 145.006 311.753 145.524 311.753Z" fill="#1777F7"/>
</g>
<g filter="url(#filter1_d_506_19838)">
<rect x="333" y="231.238" width="44" height="44" rx="8" fill="#1777F7" shape-rendering="crispEdges"/>
<path d="M353.25 251.268C353.25 251.808 353.4 251.888 353.74 252.008L354.25 252.188V250.488H353.95C353.57 250.488 353.25 250.838 353.25 251.268Z" fill="white"/>
<path d="M355.75 255.988H356.05C356.44 255.988 356.75 255.638 356.75 255.208C356.75 254.668 356.6 254.588 356.26 254.468L355.75 254.288V255.988Z" fill="white"/>
<path d="M362.58 246.718L360.53 248.768C360.38 248.918 360.19 248.988 360 248.988C359.81 248.988 359.62 248.918 359.47 248.768C359.18 248.478 359.18 247.998 359.47 247.708L361.52 245.658C359.76 244.158 357.49 243.238 355 243.238C349.48 243.238 345 247.718 345 253.238C345 258.758 349.48 263.238 355 263.238C360.52 263.238 365 258.758 365 253.238C365 250.748 364.08 248.478 362.58 246.718ZM356.75 253.058C357.39 253.288 358.25 253.748 358.25 255.218C358.25 256.468 357.26 257.498 356.05 257.498H355.75V257.748C355.75 258.158 355.41 258.498 355 258.498C354.59 258.498 354.25 258.158 354.25 257.748V257.498H354.17C352.84 257.498 351.75 256.378 351.75 254.998C351.75 254.578 352.09 254.238 352.5 254.238C352.91 254.238 353.25 254.578 353.25 254.988C353.25 255.538 353.66 255.988 354.17 255.988H354.25V253.768L353.25 253.418C352.61 253.188 351.75 252.728 351.75 251.258C351.75 250.008 352.74 248.978 353.95 248.978H354.25V248.738C354.25 248.328 354.59 247.988 355 247.988C355.41 247.988 355.75 248.328 355.75 248.738V248.988H355.83C357.16 248.988 358.25 250.108 358.25 251.488C358.25 251.898 357.91 252.238 357.5 252.238C357.09 252.238 356.75 251.898 356.75 251.488C356.75 250.938 356.34 250.488 355.83 250.488H355.75V252.708L356.75 253.058Z" fill="white"/>
<path d="M365.69 242.948C365.61 242.768 365.47 242.618 365.28 242.538C365.19 242.508 365.1 242.488 365 242.488H361C360.59 242.488 360.25 242.828 360.25 243.238C360.25 243.648 360.59 243.988 361 243.988H363.19L361.52 245.658C361.9 245.988 362.25 246.338 362.58 246.718L364.25 245.048V247.238C364.25 247.648 364.59 247.988 365 247.988C365.41 247.988 365.75 247.648 365.75 247.238V243.238C365.75 243.138 365.73 243.048 365.69 242.948Z" fill="white"/>
</g>
<g filter="url(#filter2_d_506_19838)">
<rect x="281" y="41.2383" width="143.315" height="124.126" rx="12" fill="white" shape-rendering="crispEdges"/>
<rect x="295.392" y="55.6294" width="66.5605" height="7.19573" rx="3.59786" fill="#EDEDED"/>
<path d="M295.392 79.6152V150.973H409.924" stroke="#878787" stroke-width="1.19929"/>
<rect x="302.287" y="79.6152" width="30.382" height="71.3577" fill="#0B3B7B"/>
<rect x="337.666" y="94.0068" width="29.9822" height="56.9662" fill="#1777F7"/>
<rect x="372.445" y="117.393" width="30.5819" height="33.5801" fill="#1363CE"/>
</g>
</g>
<defs>
<filter id="filter0_d_506_19838" x="44" y="65.2383" width="244.084" height="347.822" filterUnits="userSpaceOnUse" color-interpolation-filters="sRGB">
<feFlood flood-opacity="0" result="BackgroundImageFix"/>
<feColorMatrix in="SourceAlpha" type="matrix" values="0 0 0 0 0 0 0 0 0 0 0 0 0 0 0 0 0 0 127 0" result="hardAlpha"/>
<feOffset dy="16"/>
<feGaussianBlur stdDeviation="12"/>
<feComposite in2="hardAlpha" operator="out"/>
<feColorMatrix type="matrix" values="0 0 0 0 0 0 0 0 0 0 0 0 0 0 0 0 0 0 0.1 0"/>
<feBlend mode="normal" in2="BackgroundImageFix" result="effect1_dropShadow_506_19838"/>
<feBlend mode="normal" in="SourceGraphic" in2="effect1_dropShadow_506_19838" result="shape"/>
</filter>
<filter id="filter1_d_506_19838" x="321" y="223.238" width="68" height="68" filterUnits="userSpaceOnUse" color-interpolation-filters="sRGB">
<feFlood flood-opacity="0" result="BackgroundImageFix"/>
<feColorMatrix in="SourceAlpha" type="matrix" values="0 0 0 0 0 0 0 0 0 0 0 0 0 0 0 0 0 0 127 0" result="hardAlpha"/>
<feOffset dy="4"/>
<feGaussianBlur stdDeviation="6"/>
<feComposite in2="hardAlpha" operator="out"/>
<feColorMatrix type="matrix" values="0 0 0 0 0 0 0 0 0 0 0 0 0 0 0 0 0 0 0.1 0"/>
<feBlend mode="normal" in2="BackgroundImageFix" result="effect1_dropShadow_506_19838"/>
<feBlend mode="normal" in="SourceGraphic" in2="effect1_dropShadow_506_19838" result="shape"/>
</filter>
<filter id="filter2_d_506_19838" x="257" y="33.2383" width="191.314" height="172.126" filterUnits="userSpaceOnUse" color-interpolation-filters="sRGB">
<feFlood flood-opacity="0" result="BackgroundImageFix"/>
<feColorMatrix in="SourceAlpha" type="matrix" values="0 0 0 0 0 0 0 0 0 0 0 0 0 0 0 0 0 0 127 0" result="hardAlpha"/>
<feOffset dy="16"/>
<feGaussianBlur stdDeviation="12"/>
<feComposite in2="hardAlpha" operator="out"/>
<feColorMatrix type="matrix" values="0 0 0 0 0 0 0 0 0 0 0 0 0 0 0 0 0 0 0.08 0"/>
<feBlend mode="normal" in2="BackgroundImageFix" result="effect1_dropShadow_506_19838"/>
<feBlend mode="normal" in="SourceGraphic" in2="effect1_dropShadow_506_19838" result="shape"/>
</filter>
<clipPath id="clip0_506_19838">
<rect width="459" height="344" fill="white" transform="translate(0 0.238281)"/>
</clipPath>
</defs>
</svg>
