<svg width="191" height="51" viewBox="0 0 191 51" fill="none" xmlns="http://www.w3.org/2000/svg">
<path d="M21.2024 8.89624V22.994H7.24632V8.89624H0.625V42.5495H7.24811V28.9092H21.2006V42.5495H27.8255V8.89624H21.2024ZM49.0248 31.6722C49.0248 33.0211 48.4474 34.3147 47.4196 35.2686C46.3919 36.2224 44.9979 36.7582 43.5444 36.7582C42.0909 36.7582 40.6969 36.2224 39.6691 35.2686C38.6414 34.3147 38.064 33.0211 38.064 31.6722V17.2567H31.7814V31.6722C31.7814 34.5645 33.0195 37.3384 35.2233 39.3836C37.4271 41.4288 40.4161 42.5778 43.5327 42.5778C46.6494 42.5778 49.6384 41.4288 51.8422 39.3836C54.046 37.3384 55.2841 34.5645 55.2841 31.6722V17.2567H49.0248V31.6722V31.6722ZM95.5766 18.7422C95.5766 15.7863 97.6827 14.8497 99.9896 14.8497C101.85 14.8497 104.306 16.1639 105.914 17.7574L110.027 13.2561C107.973 10.6778 103.808 8.89624 100.397 8.89624C93.5798 8.89624 88.6506 12.6007 88.6506 18.7422C88.6506 30.1368 103.657 26.5205 103.657 32.8982C103.657 34.8644 101.599 36.601 99.244 36.601C95.5282 36.601 94.3237 34.9159 92.6173 33.1327L88.0501 37.5392C90.9718 40.8661 94.5746 42.5562 98.8891 42.5562C105.365 42.5562 110.574 38.8067 110.574 32.9447C110.574 20.2959 95.5658 24.2266 95.5658 18.7422M188.415 37.1732C184.703 37.1732 183.647 35.6828 183.647 33.4005V23.2951H189.419V18.175H183.647V11.4197L177.277 14.0729V34.6564C177.277 39.9213 181.191 42.5745 186.558 42.5745C187.4 42.5878 188.243 42.5246 189.071 42.3882L190.625 37.0784C189.924 37.1233 189.119 37.1682 188.415 37.1682M72.9397 17.4248C69.828 17.4248 67.6556 18.2631 65.5548 20.1744V9.09752H59.2633V29.6295C59.2633 37.3146 65.2501 42.5811 71.979 42.5811C79.4427 42.5811 86.0085 37.2215 86.0085 30.0054C86.0085 22.8792 79.9661 17.4297 72.9397 17.4297M72.9003 36.7041C71.9626 36.7041 71.0341 36.5327 70.1678 36.1997C69.3015 35.8667 68.5144 35.3786 67.8514 34.7633C67.1883 34.148 66.6624 33.4175 66.3036 32.6136C65.9447 31.8096 65.76 30.948 65.76 30.0778C65.76 29.2076 65.9447 28.3459 66.3036 27.542C66.6624 26.738 67.1883 26.0076 67.8514 25.3922C68.5144 24.7769 69.3015 24.2888 70.1678 23.9558C71.0341 23.6228 71.9626 23.4514 72.9003 23.4514C74.794 23.4514 76.6101 24.1496 77.9492 25.3922C79.2882 26.6349 80.0405 28.3204 80.0405 30.0778C80.0405 31.8352 79.2882 33.5206 77.9492 34.7633C76.6101 36.006 74.794 36.7041 72.9003 36.7041M141.268 29.6994C141.268 22.47 134.717 17.1237 127.238 17.1237C120.511 17.1237 114.523 22.3885 114.523 30.0753V50.6189H120.814V39.527C122.912 41.435 125.088 42.2767 128.196 42.2767C135.222 42.2767 141.266 36.8272 141.266 29.6994M135.31 29.6262C135.31 31.3836 134.558 33.069 133.219 34.3117C131.88 35.5544 130.063 36.2525 128.17 36.2525C126.276 36.2525 124.46 35.5544 123.121 34.3117C121.782 33.069 121.029 31.3836 121.029 29.6262C121.029 27.8687 121.782 26.1833 123.121 24.9406C124.46 23.6979 126.276 22.9998 128.17 22.9998C130.063 22.9998 131.88 23.6979 133.219 24.9406C134.558 26.1833 135.31 27.8687 135.31 29.6262" fill="white"/>
<path d="M161.598 16.8409V10.9739C162.434 10.6115 163.141 10.0364 163.638 9.31551C164.135 8.5946 164.401 7.75754 164.405 6.90175V6.76701C164.405 4.27183 162.226 2.24908 159.537 2.24908H159.392C158.101 2.24908 156.862 2.72507 155.949 3.57235C155.036 4.41962 154.523 5.56878 154.523 6.76701V6.90175C154.528 7.75754 154.794 8.5946 155.291 9.31551C155.788 10.0364 156.495 10.6115 157.33 10.9739V16.8409C154.929 17.1821 152.668 18.106 150.775 19.519L133.437 6.98658C133.561 6.57238 133.625 6.14654 133.632 5.71903C133.635 4.71216 133.315 3.72731 132.714 2.88907C132.113 2.05083 131.257 1.39686 130.256 1.00987C129.254 0.622885 128.151 0.520271 127.087 0.715008C126.022 0.909746 125.044 1.39309 124.275 2.10389C123.507 2.8147 122.983 3.72104 122.77 4.70826C122.556 5.69549 122.663 6.71925 123.077 7.65005C123.491 8.58086 124.193 9.37688 125.094 9.93743C125.995 10.498 127.055 10.7979 128.14 10.7992C129.09 10.7951 130.021 10.5599 130.842 10.1172L147.915 22.4467C146.381 24.597 145.581 27.1262 145.618 29.7047C145.656 32.2831 146.53 34.7912 148.126 36.9021L142.933 41.7228C142.514 41.5982 142.076 41.532 141.636 41.5265C140.745 41.5271 139.875 41.7728 139.135 42.2324C138.394 42.6919 137.818 43.3448 137.477 44.1086C137.137 44.8723 137.048 45.7125 137.222 46.5231C137.395 47.3336 137.824 48.0782 138.454 48.6626C139.084 49.247 139.886 49.6451 140.76 49.8065C141.633 49.9679 142.538 49.8854 143.361 49.5694C144.184 49.2534 144.888 48.7182 145.383 48.0312C145.878 47.3443 146.143 46.5365 146.144 45.7101C146.138 45.3011 146.067 44.8952 145.932 44.5057L151.069 39.7366C152.745 40.9335 154.693 41.7586 156.765 42.1488C158.837 42.539 160.977 42.4839 163.023 41.9877C165.068 41.4916 166.964 40.5675 168.565 39.2863C170.166 38.0051 171.43 36.4008 172.26 34.5963C173.09 32.7918 173.463 30.8349 173.353 28.8756C173.242 26.9164 172.649 25.0067 171.62 23.2928C170.591 21.579 169.152 20.1065 167.415 18.9882C165.678 17.8698 163.688 17.1353 161.598 16.8409M159.469 36.1369C158.519 36.1611 157.574 36.0085 156.69 35.6881C155.805 35.3677 154.998 34.8859 154.317 34.2713C153.637 33.6567 153.096 32.9217 152.726 32.1097C152.357 31.2977 152.166 30.4252 152.166 29.5438C152.166 28.6624 152.357 27.7899 152.726 26.9779C153.096 26.166 153.637 25.4309 154.317 24.8163C154.998 24.2017 155.805 23.7199 156.69 23.3995C157.574 23.0791 158.519 22.9265 159.469 22.9507C161.309 23.0105 163.052 23.7307 164.331 24.9596C165.611 26.1885 166.326 27.8302 166.327 29.5389C166.328 31.2476 165.614 32.89 164.336 34.1201C163.059 35.3502 161.316 36.072 159.476 36.1336" fill="white"/>
</svg>
