<svg width="217" height="59" viewBox="0 0 217 59" fill="none" xmlns="http://www.w3.org/2000/svg">
<g clip-path="url(#clip0_506_20033)">
<path d="M24.8689 9.73828C20.909 9.73828 17.1113 11.3113 14.3112 14.1114L5.17295 23.2497C2.37287 26.0498 0.799805 29.8475 0.799805 33.8074C0.799805 42.0536 7.48459 48.7383 15.7307 48.7383C19.6906 48.7383 23.4883 47.1651 26.2884 44.3651L32.6094 38.0441C32.6094 38.044 32.6095 38.0442 32.6094 38.0441L51.0266 19.6269C52.3639 18.2896 54.1777 17.5383 56.0689 17.5383C59.2352 17.5383 61.9196 19.6019 62.8502 22.4576L68.6627 16.6451C66.0111 12.4921 61.3616 9.73828 56.0689 9.73828C52.109 9.73828 48.3113 11.3113 45.5112 14.1114L20.773 38.8497C19.4357 40.187 17.6219 40.9383 15.7307 40.9383C11.7924 40.9383 8.5998 37.7457 8.5998 33.8074C8.5998 31.9162 9.35109 30.1024 10.6884 28.7651L19.8266 19.6269C21.1639 18.2896 22.9777 17.5383 24.8689 17.5383C28.0353 17.5383 30.7196 19.602 31.6502 22.4578L37.4628 16.6453C34.8112 12.4922 30.1617 9.73828 24.8689 9.73828Z" fill="white"/>
<path d="M21.9297 38.8497C20.6232 40.187 18.8512 40.9383 17.0035 40.9383C13.9105 40.9383 10.1597 41.7049 9.2502 38.8497L4.7002 41.8323C7.29089 45.9847 11.833 48.7383 17.0035 48.7383C20.8723 48.7383 24.5825 47.1651 27.3181 44.3651L51.4868 19.6269C52.7933 18.2896 54.5653 17.5383 56.4131 17.5383C60.2607 17.5383 63.3798 20.7309 63.3798 24.6692C63.3798 26.5604 62.6458 28.3742 61.3393 29.7115L52.4114 38.8497C51.1049 40.187 49.3329 40.9383 47.4852 40.9383C44.3919 40.9383 41.7695 38.8748 40.8601 36.0193L35.1817 41.8318C37.7722 45.9846 42.3145 48.7383 47.4852 48.7383C51.354 48.7383 55.0642 47.1651 57.7998 44.3651L66.7277 35.2269C69.4633 32.4268 71.0002 28.6291 71.0002 24.6692C71.0002 16.4231 64.4694 9.73828 56.4131 9.73828C52.5443 9.73828 48.834 11.3113 46.0984 14.1114L21.9297 38.8497Z" fill="white"/>
</g>
<path d="M87.8169 36.8164C88.145 42.9336 93.2075 46.8008 100.708 46.8008C108.723 46.8008 113.762 42.8398 113.762 36.5117C113.762 31.5664 110.879 28.7773 103.942 27.1367L100.215 26.2227C95.856 25.1445 94.0747 23.7383 94.0747 21.3477C94.0747 18.3477 96.8638 16.2852 100.942 16.2852C105.02 16.2852 107.809 18.3242 108.114 21.6992H113.223C113.059 15.8633 108.161 11.8555 101.012 11.8555C93.7935 11.8555 88.7075 15.8633 88.7075 21.6992C88.7075 26.4102 91.5903 29.3164 97.8013 30.8164L102.184 31.8711C106.567 32.9492 108.418 34.5195 108.418 37.1445C108.418 40.168 105.348 42.3711 101.083 42.3711C96.6294 42.3711 93.3716 40.168 92.9966 36.8164H87.8169ZM118.028 46.2383H123.09V21.582H118.028V46.2383ZM120.559 17.9727C122.2 17.9727 123.512 16.6836 123.512 15.0898C123.512 13.4727 122.2 12.1836 120.559 12.1836C118.942 12.1836 117.629 13.4727 117.629 15.0898C117.629 16.6836 118.942 17.9727 120.559 17.9727ZM138.77 42.1367C134.879 42.1367 132.348 38.9961 132.348 33.8398C132.348 28.707 134.879 25.4492 138.77 25.4492C142.731 25.4492 145.333 28.7773 145.333 33.8398C145.333 38.9258 142.731 42.1367 138.77 42.1367ZM138.817 55.5195C145.848 55.5195 150.395 51.6758 150.395 45.793V21.582H145.473V25.8008H145.379C143.879 22.9414 141.02 21.1836 137.528 21.1836C131.2 21.1836 127.168 26.0586 127.168 33.8164C127.168 41.5039 131.223 46.332 137.411 46.332C140.926 46.332 143.833 44.5742 145.215 41.9023H145.309V45.957C145.309 49.332 142.965 51.582 139.004 51.582C136.122 51.582 133.872 50.2227 133.145 48.1602H128.059C128.692 52.4258 133.004 55.5195 138.817 55.5195ZM155.411 46.2383H160.473V31.8711C160.473 28.0508 162.77 25.5195 166.333 25.5195C169.848 25.5195 171.583 27.5586 171.583 31.2617V46.2383H176.668V30.2773C176.668 24.6289 173.551 21.1602 168.114 21.1602C164.317 21.1602 161.692 22.8945 160.356 25.707H160.239V21.582H155.411V46.2383ZM181.731 46.2383H186.793V21.582H181.731V46.2383ZM184.262 17.9727C185.903 17.9727 187.215 16.6836 187.215 15.0898C187.215 13.4727 185.903 12.1836 184.262 12.1836C182.645 12.1836 181.333 13.4727 181.333 15.0898C181.333 16.6836 182.645 17.9727 184.262 17.9727ZM202.567 46.707C209.622 46.707 214.262 41.8555 214.262 33.9102C214.262 25.9883 209.598 21.1367 202.567 21.1367C195.536 21.1367 190.872 25.9883 190.872 33.9102C190.872 41.8555 195.512 46.707 202.567 46.707ZM202.567 42.5352C198.606 42.5352 196.028 39.3945 196.028 33.9102C196.028 28.4492 198.606 25.3086 202.567 25.3086C206.528 25.3086 209.106 28.4492 209.106 33.9102C209.106 39.3945 206.551 42.5352 202.567 42.5352Z" fill="white"/>
<defs>
<clipPath id="clip0_506_20033">
<rect width="101.4" height="39" fill="white" transform="translate(0.799805 9.73828)"/>
</clipPath>
</defs>
</svg>
