<svg width="158" height="38" viewBox="0 0 158 38" fill="none" xmlns="http://www.w3.org/2000/svg">
<path d="M73.6477 14.4205C73.5568 13.5038 73.1667 12.7917 72.4773 12.2841C71.7879 11.7765 70.8523 11.5227 69.6705 11.5227C68.8674 11.5227 68.1894 11.6364 67.6364 11.8636C67.0833 12.0833 66.6591 12.3902 66.3636 12.7841C66.0758 13.178 65.9318 13.625 65.9318 14.125C65.9167 14.5417 66.0038 14.9053 66.1932 15.2159C66.3902 15.5265 66.6591 15.7955 67 16.0227C67.3409 16.2424 67.7348 16.4356 68.1818 16.6023C68.6288 16.7614 69.1061 16.8977 69.6136 17.0114L71.7045 17.5114C72.7197 17.7386 73.6515 18.0417 74.5 18.4205C75.3485 18.7992 76.0833 19.2652 76.7045 19.8182C77.3258 20.3712 77.8068 21.0227 78.1477 21.7727C78.4962 22.5227 78.6742 23.3826 78.6818 24.3523C78.6742 25.7765 78.3106 27.0114 77.5909 28.0568C76.8788 29.0947 75.8485 29.9015 74.5 30.4773C73.1591 31.0455 71.5417 31.3295 69.6477 31.3295C67.7689 31.3295 66.1326 31.0417 64.7386 30.4659C63.3523 29.8902 62.2689 29.0379 61.4886 27.9091C60.7159 26.7727 60.3106 25.3674 60.2727 23.6932H65.0341C65.0871 24.4735 65.3106 25.125 65.7045 25.6477C66.1061 26.1629 66.6402 26.553 67.3068 26.8182C67.9811 27.0758 68.7424 27.2045 69.5909 27.2045C70.4242 27.2045 71.1477 27.0833 71.7614 26.8409C72.3826 26.5985 72.8636 26.2614 73.2045 25.8295C73.5455 25.3977 73.7159 24.9015 73.7159 24.3409C73.7159 23.8182 73.5606 23.3788 73.25 23.0227C72.947 22.6667 72.5 22.3636 71.9091 22.1136C71.3258 21.8636 70.6098 21.6364 69.7614 21.4318L67.2273 20.7955C65.2652 20.3182 63.7159 19.572 62.5795 18.5568C61.4432 17.5417 60.8788 16.1742 60.8864 14.4545C60.8788 13.0455 61.2538 11.8144 62.0114 10.7614C62.7765 9.70833 63.8258 8.88636 65.1591 8.29545C66.4924 7.70454 68.0076 7.40909 69.7045 7.40909C71.4318 7.40909 72.9394 7.70454 74.2273 8.29545C75.5227 8.88636 76.5303 9.70833 77.25 10.7614C77.9697 11.8144 78.3409 13.0341 78.3636 14.4205H73.6477ZM81.9006 31V13.5455H86.7415V31H81.9006ZM84.3324 11.2955C83.6127 11.2955 82.9953 11.0568 82.4801 10.5795C81.9725 10.0947 81.7188 9.51515 81.7188 8.84091C81.7188 8.17424 81.9725 7.60227 82.4801 7.125C82.9953 6.64015 83.6127 6.39773 84.3324 6.39773C85.0521 6.39773 85.6657 6.64015 86.1733 7.125C86.6884 7.60227 86.946 8.17424 86.946 8.84091C86.946 9.51515 86.6884 10.0947 86.1733 10.5795C85.6657 11.0568 85.0521 11.2955 84.3324 11.2955ZM98.483 37.9091C96.9148 37.9091 95.5701 37.6932 94.4489 37.2614C93.3352 36.8371 92.4489 36.2576 91.7898 35.5227C91.1307 34.7879 90.7027 33.9621 90.5057 33.0455L94.983 32.4432C95.1193 32.7917 95.3352 33.1174 95.6307 33.4205C95.9261 33.7235 96.3163 33.9659 96.8011 34.1477C97.2936 34.3371 97.892 34.4318 98.5966 34.4318C99.6496 34.4318 100.517 34.1742 101.199 33.6591C101.888 33.1515 102.233 32.2992 102.233 31.1023V27.9091H102.028C101.816 28.3939 101.498 28.8523 101.074 29.2841C100.65 29.7159 100.104 30.0682 99.4375 30.3409C98.7708 30.6136 97.9754 30.75 97.0511 30.75C95.7405 30.75 94.5473 30.447 93.4716 29.8409C92.4034 29.2273 91.5511 28.2917 90.9148 27.0341C90.286 25.7689 89.9716 24.1705 89.9716 22.2386C89.9716 20.2614 90.2936 18.6098 90.9375 17.2841C91.5814 15.9583 92.4375 14.9659 93.5057 14.3068C94.5814 13.6477 95.7595 13.3182 97.0398 13.3182C98.017 13.3182 98.8352 13.4848 99.4943 13.8182C100.153 14.1439 100.684 14.553 101.085 15.0455C101.494 15.5303 101.809 16.0076 102.028 16.4773H102.21V13.5455H107.017V31.1705C107.017 32.6553 106.653 33.8977 105.926 34.8977C105.199 35.8977 104.191 36.6477 102.903 37.1477C101.623 37.6553 100.15 37.9091 98.483 37.9091ZM98.5852 27.1136C99.3655 27.1136 100.025 26.9205 100.562 26.5341C101.108 26.1402 101.525 25.5795 101.812 24.8523C102.108 24.1174 102.256 23.2386 102.256 22.2159C102.256 21.1932 102.112 20.3068 101.824 19.5568C101.536 18.7992 101.119 18.2121 100.574 17.7955C100.028 17.3788 99.3655 17.1705 98.5852 17.1705C97.7898 17.1705 97.1193 17.3864 96.5739 17.8182C96.0284 18.2424 95.6155 18.8333 95.3352 19.5909C95.0549 20.3485 94.9148 21.2235 94.9148 22.2159C94.9148 23.2235 95.0549 24.0947 95.3352 24.8295C95.6231 25.5568 96.036 26.1212 96.5739 26.5227C97.1193 26.9167 97.7898 27.1136 98.5852 27.1136ZM115.71 20.9091V31H110.869V13.5455H115.483V16.625H115.688C116.074 15.6098 116.722 14.8068 117.631 14.2159C118.54 13.6174 119.642 13.3182 120.938 13.3182C122.15 13.3182 123.206 13.5833 124.108 14.1136C125.009 14.6439 125.71 15.4015 126.21 16.3864C126.71 17.3636 126.96 18.5303 126.96 19.8864V31H122.119V20.75C122.127 19.6818 121.854 18.8485 121.301 18.25C120.748 17.6439 119.987 17.3409 119.017 17.3409C118.366 17.3409 117.79 17.4811 117.29 17.7614C116.797 18.0417 116.411 18.4508 116.131 18.9886C115.858 19.5189 115.718 20.1591 115.71 20.9091ZM130.776 31V13.5455H135.616V31H130.776ZM133.207 11.2955C132.488 11.2955 131.87 11.0568 131.355 10.5795C130.848 10.0947 130.594 9.51515 130.594 8.84091C130.594 8.17424 130.848 7.60227 131.355 7.125C131.87 6.64015 132.488 6.39773 133.207 6.39773C133.927 6.39773 134.541 6.64015 135.048 7.125C135.563 7.60227 135.821 8.17424 135.821 8.84091C135.821 9.51515 135.563 10.0947 135.048 10.5795C134.541 11.0568 133.927 11.2955 133.207 11.2955ZM147.381 31.3409C145.616 31.3409 144.089 30.9659 142.801 30.2159C141.521 29.4583 140.532 28.4053 139.835 27.0568C139.138 25.7008 138.79 24.1288 138.79 22.3409C138.79 20.5379 139.138 18.9621 139.835 17.6136C140.532 16.2576 141.521 15.2045 142.801 14.4545C144.089 13.697 145.616 13.3182 147.381 13.3182C149.146 13.3182 150.669 13.697 151.949 14.4545C153.237 15.2045 154.229 16.2576 154.926 17.6136C155.623 18.9621 155.972 20.5379 155.972 22.3409C155.972 24.1288 155.623 25.7008 154.926 27.0568C154.229 28.4053 153.237 29.4583 151.949 30.2159C150.669 30.9659 149.146 31.3409 147.381 31.3409ZM147.403 27.5909C148.206 27.5909 148.877 27.3636 149.415 26.9091C149.953 26.447 150.358 25.8182 150.631 25.0227C150.911 24.2273 151.051 23.322 151.051 22.3068C151.051 21.2917 150.911 20.3864 150.631 19.5909C150.358 18.7955 149.953 18.1667 149.415 17.7045C148.877 17.2424 148.206 17.0114 147.403 17.0114C146.593 17.0114 145.911 17.2424 145.358 17.7045C144.813 18.1667 144.4 18.7955 144.119 19.5909C143.847 20.3864 143.71 21.2917 143.71 22.3068C143.71 23.322 143.847 24.2273 144.119 25.0227C144.4 25.8182 144.813 26.447 145.358 26.9091C145.911 27.3636 146.593 27.5909 147.403 27.5909Z" fill="white"/>
<path d="M18.5147 4C15.4686 4 12.5473 5.21005 10.3934 7.36396L3.36396 14.3934C1.21005 16.5473 0 19.4686 0 22.5147C0 28.8579 5.14214 34 11.4853 34C14.5314 34 17.4527 32.7899 19.6066 30.636L24.4689 25.7737C24.4689 25.7736 24.469 25.7738 24.4689 25.7737L38.636 11.6066C39.6647 10.5779 41.0599 10 42.5147 10C44.9503 10 47.0152 11.5874 47.7311 13.7841L52.2022 9.31296C50.1625 6.11834 46.586 4 42.5147 4C39.4686 4 36.5473 5.21005 34.3934 7.36396L15.364 26.3934C14.3353 27.4221 12.9401 28 11.4853 28C8.45584 28 6 25.5442 6 22.5147C6 21.0599 6.57791 19.6647 7.6066 18.636L14.636 11.6066C15.6647 10.5779 17.0599 10 18.5147 10C20.9504 10 23.0152 11.5875 23.7311 13.7842L28.2023 9.31307C26.1626 6.1184 22.5861 4 18.5147 4Z" fill="#1777F7"/>
<path d="M16.2535 26.3934C15.2485 27.4221 13.8854 28 12.4641 28C10.0848 28 7.19961 28.5897 6.5 26.3934L3 28.6877C4.99284 31.8819 8.4868 34 12.4641 34C15.4401 34 18.2941 32.7899 20.3984 30.636L38.9897 11.6066C39.9947 10.5779 41.3578 10 42.7791 10C45.7389 10 48.1381 12.4558 48.1381 15.4853C48.1381 16.9401 47.5735 18.3353 46.5685 19.364L39.701 26.3934C38.6959 27.4221 37.3329 28 35.9115 28C33.5321 28 31.5149 26.4127 30.8153 24.2162L26.4473 28.6873C28.44 31.8818 31.9341 34 35.9115 34C38.8875 34 41.7416 32.7899 43.8459 30.636L50.7134 23.6066C52.8178 21.4527 54 18.5314 54 15.4853C54 9.14214 48.9763 4 42.7791 4C39.8031 4 36.9491 5.21005 34.8448 7.36396L16.2535 26.3934Z" fill="#1777F7"/>
</svg>
