<svg width="54" height="30" viewBox="0 0 54 30" fill="none" xmlns="http://www.w3.org/2000/svg">
<path d="M18.5147 0C15.4686 0 12.5473 1.21005 10.3934 3.36396L3.36396 10.3934C1.21005 12.5473 0 15.4686 0 18.5147C0 24.8579 5.14214 30 11.4853 30C14.5314 30 17.4527 28.7899 19.6066 26.636L24.4689 21.7737C24.4689 21.7736 24.469 21.7738 24.4689 21.7737L38.636 7.6066C39.6647 6.57791 41.0599 6 42.5147 6C44.9503 6 47.0152 7.58741 47.7311 9.78407L52.2022 5.31296C50.1625 2.11834 46.586 0 42.5147 0C39.4686 0 36.5473 1.21005 34.3934 3.36396L15.364 22.3934C14.3353 23.4221 12.9401 24 11.4853 24C8.45584 24 6 21.5442 6 18.5147C6 17.0599 6.57791 15.6647 7.6066 14.636L14.636 7.6066C15.6647 6.57791 17.0599 6 18.5147 6C20.9504 6 23.0152 7.58748 23.7311 9.78421L28.2023 5.31307C26.1626 2.1184 22.5861 0 18.5147 0Z" fill="#1777F7"/>
<path d="M16.2535 22.3934C15.2485 23.4221 13.8854 24 12.4641 24C10.0848 24 7.19961 24.5897 6.5 22.3934L3 24.6877C4.99284 27.8819 8.4868 30 12.4641 30C15.4401 30 18.2941 28.7899 20.3984 26.636L38.9897 7.6066C39.9947 6.57791 41.3578 6 42.7791 6C45.7389 6 48.1381 8.45584 48.1381 11.4853C48.1381 12.9401 47.5735 14.3353 46.5685 15.364L39.701 22.3934C38.6959 23.4221 37.3329 24 35.9115 24C33.5321 24 31.5149 22.4127 30.8153 20.2162L26.4473 24.6873C28.44 27.8818 31.9341 30 35.9115 30C38.8875 30 41.7416 28.7899 43.8459 26.636L50.7134 19.6066C52.8178 17.4527 54 14.5314 54 11.4853C54 5.14214 48.9763 0 42.7791 0C39.8031 0 36.9491 1.21005 34.8448 3.36396L16.2535 22.3934Z" fill="#1777F7"/>
</svg>
