<svg width="30" height="30" viewBox="0 0 30 30" fill="none" xmlns="http://www.w3.org/2000/svg">
<path d="M28.055 15.2385C28.0577 15.6102 27.9447 15.9735 27.7315 16.278C27.5184 16.5825 27.2157 16.8131 26.8656 16.9377L19.6269 19.5659L16.9988 26.8045C16.87 27.1514 16.6382 27.4506 16.3344 27.6618C16.0307 27.8731 15.6695 27.9863 15.2996 27.9863C14.9296 27.9863 14.5684 27.8731 14.2647 27.6618C13.9609 27.4506 13.7291 27.1514 13.6003 26.8045L10.9722 19.5659L3.73353 16.9377C3.38666 16.809 3.08751 16.5772 2.87625 16.2734C2.66499 15.9696 2.55176 15.6085 2.55176 15.2385C2.55176 14.8685 2.66499 14.5074 2.87625 14.2036C3.08751 13.8999 3.38666 13.668 3.73353 13.5393L10.9722 10.9112L13.6003 3.6725C13.7291 3.32563 13.9609 3.02647 14.2647 2.81521C14.5684 2.60396 14.9296 2.49072 15.2996 2.49072C15.6695 2.49072 16.0307 2.60396 16.3344 2.81521C16.6382 3.02647 16.87 3.32563 16.9988 3.6725L19.6269 10.9112L26.8656 13.5393C27.2157 13.664 27.5184 13.8946 27.7315 14.199C27.9447 14.5035 28.0577 14.8668 28.055 15.2385Z" fill="white"/>
</svg>
