<svg width="269" height="59" viewBox="0 0 269 59" fill="none" xmlns="http://www.w3.org/2000/svg">
<path d="M1.81738 36.8164C2.14551 42.9336 7.20801 46.8008 14.708 46.8008C22.7236 46.8008 27.7627 42.8398 27.7627 36.5117C27.7627 31.5664 24.8799 28.7773 17.9424 27.1367L14.2158 26.2227C9.85645 25.1445 8.0752 23.7383 8.0752 21.3477C8.0752 18.3477 10.8643 16.2852 14.9424 16.2852C19.0205 16.2852 21.8096 18.3242 22.1143 21.6992H27.2236C27.0596 15.8633 22.1611 11.8555 15.0127 11.8555C7.79395 11.8555 2.70801 15.8633 2.70801 21.6992C2.70801 26.4102 5.59082 29.3164 11.8018 30.8164L16.1846 31.8711C20.5674 32.9492 22.4189 34.5195 22.4189 37.1445C22.4189 40.168 19.3486 42.3711 15.083 42.3711C10.6299 42.3711 7.37207 40.168 6.99707 36.8164H1.81738ZM33.3408 15.7461V21.582H29.7549V25.5898H33.3408V39.7461C33.3408 44.5039 35.2861 46.4023 40.2783 46.4023C41.4033 46.4023 42.5283 46.3086 43.0908 46.168V42.1602C42.7627 42.2305 41.9424 42.2773 41.4268 42.2773C39.3643 42.2773 38.4268 41.3164 38.4268 39.1836V25.5898H43.1143V21.582H38.4268V15.7461H33.3408ZM55.5361 42.6523C52.8174 42.6523 51.0361 41.2461 51.0361 39.0898C51.0361 36.9805 52.7471 35.6445 55.7705 35.4336L61.8408 35.0586V37.0039C61.8408 40.2148 59.0752 42.6523 55.5361 42.6523ZM54.1299 46.6602C57.3643 46.6602 60.4814 44.9258 61.9111 42.1836H62.0283V46.2383H66.8799V29.2461C66.8799 24.3008 63.0596 21.1367 57.083 21.1367C50.9893 21.1367 47.1924 24.418 46.9111 28.8711H51.6924C52.1377 26.668 53.9658 25.2617 56.8955 25.2617C59.9893 25.2617 61.8408 26.9023 61.8408 29.6445V31.543L55.0908 31.9414C49.2314 32.2695 45.9268 34.918 45.9268 39.2305C45.9268 43.6602 49.3018 46.6602 54.1299 46.6602ZM71.8018 46.2383H76.8643V31.4727C76.8643 27.9805 78.8799 25.8008 82.1377 25.8008C83.1221 25.8008 84.0127 25.918 84.4111 26.082V21.3711C84.0361 21.3008 83.4033 21.1836 82.6768 21.1836C79.7705 21.1836 77.5674 22.8945 76.7471 25.7773H76.6299V21.582H71.8018V46.2383ZM89.0283 15.7461V21.582H85.4424V25.5898H89.0283V39.7461C89.0283 44.5039 90.9736 46.4023 95.9658 46.4023C97.0908 46.4023 98.2158 46.3086 98.7783 46.168V42.1602C98.4502 42.2305 97.6299 42.2773 97.1143 42.2773C95.0518 42.2773 94.1143 41.3164 94.1143 39.1836V25.5898H98.8018V21.582H94.1143V15.7461H89.0283ZM114.2 46.2383H119.286V25.5898H124.208V21.6289H119.216V19.3086C119.216 17.1289 120.247 16.0273 122.45 16.0273C123.13 16.0273 123.81 16.0742 124.302 16.168V12.418C123.646 12.3008 122.497 12.1836 121.466 12.1836C116.45 12.1836 114.2 14.4336 114.2 19.2148V21.6289H110.802V25.5898H114.2V46.2383ZM137.755 46.707C144.81 46.707 149.45 41.8555 149.45 33.9102C149.45 25.9883 144.786 21.1367 137.755 21.1367C130.724 21.1367 126.06 25.9883 126.06 33.9102C126.06 41.8555 130.7 46.707 137.755 46.707ZM137.755 42.5352C133.794 42.5352 131.216 39.3945 131.216 33.9102C131.216 28.4492 133.794 25.3086 137.755 25.3086C141.716 25.3086 144.294 28.4492 144.294 33.9102C144.294 39.3945 141.739 42.5352 137.755 42.5352ZM153.364 46.2383H158.427V31.4727C158.427 27.9805 160.442 25.8008 163.7 25.8008C164.685 25.8008 165.575 25.918 165.974 26.082V21.3711C165.599 21.3008 164.966 21.1836 164.239 21.1836C161.333 21.1836 159.13 22.8945 158.31 25.7773H158.192V21.582H153.364V46.2383ZM184.724 46.2383V32.082H199.255V27.6523H184.724V16.9414H200.591V12.418H179.474V46.2383H184.724ZM204.552 46.2383H209.614V31.4727C209.614 27.9805 211.63 25.8008 214.888 25.8008C215.872 25.8008 216.763 25.918 217.161 26.082V21.3711C216.786 21.3008 216.153 21.1836 215.427 21.1836C212.521 21.1836 210.317 22.8945 209.497 25.7773H209.38V21.582H204.552V46.2383ZM229.536 25.2148C233.075 25.2148 235.466 27.8633 235.583 31.6367H223.255C223.513 27.9102 225.997 25.2148 229.536 25.2148ZM235.56 38.9961C234.88 41.1523 232.747 42.6055 229.864 42.6055C225.81 42.6055 223.231 39.7695 223.231 35.4805V35.1758H240.646V33.4414C240.646 25.9648 236.38 21.1367 229.536 21.1367C222.575 21.1367 218.122 26.293 218.122 34.0273C218.122 41.8086 222.505 46.707 229.747 46.707C235.396 46.707 239.661 43.4961 240.364 38.9961H235.56ZM254.896 25.2148C258.435 25.2148 260.825 27.8633 260.942 31.6367H248.614C248.872 27.9102 251.356 25.2148 254.896 25.2148ZM260.919 38.9961C260.239 41.1523 258.106 42.6055 255.224 42.6055C251.169 42.6055 248.591 39.7695 248.591 35.4805V35.1758H266.005V33.4414C266.005 25.9648 261.739 21.1367 254.896 21.1367C247.935 21.1367 243.481 26.293 243.481 34.0273C243.481 41.8086 247.864 46.707 255.106 46.707C260.755 46.707 265.021 43.4961 265.724 38.9961H260.919Z" fill="white"/>
</svg>
