<svg width="168" height="51" viewBox="0 0 168 51" fill="none" xmlns="http://www.w3.org/2000/svg">
<path d="M0.75 11.4304H20.4627V19.731H14.8305V39.6522H6.60748V19.731H0.75" fill="white"/>
<path d="M30.4509 22.8437L26.3206 39.6522H18.4355L26.1704 11.4304H34.7313L42.6539 39.6522H34.6562" fill="white"/>
<path d="M40.7764 11.4304H60.489V19.731H54.8568V39.6522H46.6338V19.731H40.7764" fill="white"/>
<path d="M70.4763 22.8437L66.346 39.6522H58.4609L66.1958 11.4304H74.7567L82.6793 39.6522H74.6816" fill="white"/>
<path d="M92.6674 34.0494C93.8689 34.9832 95.6712 35.8132 97.5862 35.8132C99.9517 35.8132 101.266 34.2569 101.266 31.9742C101.266 29.8472 100.252 28.6021 97.6613 27.3052C94.282 25.6451 92.1417 23.1549 92.1417 19.1603C92.1417 14.5431 94.9203 11.1191 99.3509 11.1191C101.566 11.1191 103.181 11.7417 104.232 12.5199L103.331 16.6701C102.58 16.1513 101.191 15.3213 99.2758 15.3213C96.9103 15.3213 95.9341 17.0333 95.9341 18.6934C95.9341 20.8723 97.0981 21.858 99.8391 23.3106C103.369 25.1782 105.058 27.6165 105.058 31.663C105.058 36.1764 102.58 40.1191 97.3609 40.1191C95.2207 40.1191 92.9678 39.2891 91.8789 38.3553" fill="white"/>
<path d="M111.254 15.892H105.434V11.5342H120.828V15.892H114.971V39.6522H111.254" fill="white"/>
<path d="M134.533 27.2014H126.873V35.4501H135.472V39.6522H123.156V11.5342H135.021V15.7882H126.873V22.9993H134.533" fill="white"/>
<path d="M150.679 27.2014H143.019V35.4501H151.58V39.6522H139.302V11.5342H151.129V15.7882H143.019V22.9993H150.679" fill="white"/>
<path d="M155.447 11.5342H159.165V35.3463H167.5V39.6522H155.447" fill="white"/>
</svg>
